<svg xmlns="http://www.w3.org/2000/svg" xmlns:xlink="http://www.w3.org/1999/xlink" width="600" height="400" viewBox="0 0 2400 1600">
<defs>
  <clipPath id="clip310">
    <rect x="0" y="0" width="2400" height="1600"></rect>
  </clipPath>
</defs>
<path clip-path="url(#clip310)" d="M0 1600 L2400 1600 L2400 8.88178e-14 L0 8.88178e-14  Z" fill="#ffffff" fill-rule="evenodd" fill-opacity="1"></path>
<defs>
  <clipPath id="clip311">
    <rect x="480" y="0" width="1681" height="1600"></rect>
  </clipPath>
</defs>
<path clip-path="url(#clip310)" d="M212.459 1423.18 L2352.76 1423.18 L2352.76 123.472 L212.459 123.472  Z" fill="#ffffff" fill-rule="evenodd" fill-opacity="1"></path>
<defs>
  <clipPath id="clip312">
    <rect x="212" y="123" width="2141" height="1301"></rect>
  </clipPath>
</defs>
<polyline clip-path="url(#clip312)" style="stroke:#000000; stroke-linecap:round; stroke-linejoin:round; stroke-width:2; stroke-opacity:0.1; fill:none" points="273.033,1423.18 273.033,123.472 "></polyline>
<polyline clip-path="url(#clip312)" style="stroke:#000000; stroke-linecap:round; stroke-linejoin:round; stroke-width:2; stroke-opacity:0.1; fill:none" points="720.198,1423.18 720.198,123.472 "></polyline>
<polyline clip-path="url(#clip312)" style="stroke:#000000; stroke-linecap:round; stroke-linejoin:round; stroke-width:2; stroke-opacity:0.1; fill:none" points="1167.36,1423.18 1167.36,123.472 "></polyline>
<polyline clip-path="url(#clip312)" style="stroke:#000000; stroke-linecap:round; stroke-linejoin:round; stroke-width:2; stroke-opacity:0.1; fill:none" points="1614.53,1423.18 1614.53,123.472 "></polyline>
<polyline clip-path="url(#clip312)" style="stroke:#000000; stroke-linecap:round; stroke-linejoin:round; stroke-width:2; stroke-opacity:0.1; fill:none" points="2061.69,1423.18 2061.69,123.472 "></polyline>
<polyline clip-path="url(#clip312)" style="stroke:#000000; stroke-linecap:round; stroke-linejoin:round; stroke-width:2; stroke-opacity:0.1; fill:none" points="212.459,1177.31 2352.76,1177.31 "></polyline>
<polyline clip-path="url(#clip312)" style="stroke:#000000; stroke-linecap:round; stroke-linejoin:round; stroke-width:2; stroke-opacity:0.1; fill:none" points="212.459,826.821 2352.76,826.821 "></polyline>
<polyline clip-path="url(#clip312)" style="stroke:#000000; stroke-linecap:round; stroke-linejoin:round; stroke-width:2; stroke-opacity:0.1; fill:none" points="212.459,476.329 2352.76,476.329 "></polyline>
<polyline clip-path="url(#clip312)" style="stroke:#000000; stroke-linecap:round; stroke-linejoin:round; stroke-width:2; stroke-opacity:0.1; fill:none" points="212.459,125.836 2352.76,125.836 "></polyline>
<polyline clip-path="url(#clip310)" style="stroke:#000000; stroke-linecap:round; stroke-linejoin:round; stroke-width:4; stroke-opacity:1; fill:none" points="212.459,1423.18 2352.76,1423.18 "></polyline>
<polyline clip-path="url(#clip310)" style="stroke:#000000; stroke-linecap:round; stroke-linejoin:round; stroke-width:4; stroke-opacity:1; fill:none" points="273.033,1423.18 273.033,1404.28 "></polyline>
<polyline clip-path="url(#clip310)" style="stroke:#000000; stroke-linecap:round; stroke-linejoin:round; stroke-width:4; stroke-opacity:1; fill:none" points="720.198,1423.18 720.198,1404.28 "></polyline>
<polyline clip-path="url(#clip310)" style="stroke:#000000; stroke-linecap:round; stroke-linejoin:round; stroke-width:4; stroke-opacity:1; fill:none" points="1167.36,1423.18 1167.36,1404.28 "></polyline>
<polyline clip-path="url(#clip310)" style="stroke:#000000; stroke-linecap:round; stroke-linejoin:round; stroke-width:4; stroke-opacity:1; fill:none" points="1614.53,1423.18 1614.53,1404.28 "></polyline>
<polyline clip-path="url(#clip310)" style="stroke:#000000; stroke-linecap:round; stroke-linejoin:round; stroke-width:4; stroke-opacity:1; fill:none" points="2061.69,1423.18 2061.69,1404.28 "></polyline>
<path clip-path="url(#clip310)" d="M250.418 1454.1 Q246.807 1454.1 244.978 1457.66 Q243.172 1461.2 243.172 1468.33 Q243.172 1475.44 244.978 1479.01 Q246.807 1482.55 250.418 1482.55 Q254.052 1482.55 255.858 1479.01 Q257.686 1475.44 257.686 1468.33 Q257.686 1461.2 255.858 1457.66 Q254.052 1454.1 250.418 1454.1 M250.418 1450.39 Q256.228 1450.39 259.283 1455 Q262.362 1459.58 262.362 1468.33 Q262.362 1477.06 259.283 1481.67 Q256.228 1486.25 250.418 1486.25 Q244.608 1486.25 241.529 1481.67 Q238.473 1477.06 238.473 1468.33 Q238.473 1459.58 241.529 1455 Q244.608 1450.39 250.418 1450.39 Z" fill="#000000" fill-rule="nonzero" fill-opacity="1"></path><path clip-path="url(#clip310)" d="M270.58 1479.7 L275.464 1479.7 L275.464 1485.58 L270.58 1485.58 L270.58 1479.7 Z" fill="#000000" fill-rule="nonzero" fill-opacity="1"></path><path clip-path="url(#clip310)" d="M295.649 1454.1 Q292.038 1454.1 290.209 1457.66 Q288.404 1461.2 288.404 1468.33 Q288.404 1475.44 290.209 1479.01 Q292.038 1482.55 295.649 1482.55 Q299.283 1482.55 301.089 1479.01 Q302.917 1475.44 302.917 1468.33 Q302.917 1461.2 301.089 1457.66 Q299.283 1454.1 295.649 1454.1 M295.649 1450.39 Q301.459 1450.39 304.515 1455 Q307.593 1459.58 307.593 1468.33 Q307.593 1477.06 304.515 1481.67 Q301.459 1486.25 295.649 1486.25 Q289.839 1486.25 286.76 1481.67 Q283.705 1477.06 283.705 1468.33 Q283.705 1459.58 286.76 1455 Q289.839 1450.39 295.649 1450.39 Z" fill="#000000" fill-rule="nonzero" fill-opacity="1"></path><path clip-path="url(#clip310)" d="M698.381 1454.1 Q694.77 1454.1 692.941 1457.66 Q691.135 1461.2 691.135 1468.33 Q691.135 1475.44 692.941 1479.01 Q694.77 1482.55 698.381 1482.55 Q702.015 1482.55 703.82 1479.01 Q705.649 1475.44 705.649 1468.33 Q705.649 1461.2 703.82 1457.66 Q702.015 1454.1 698.381 1454.1 M698.381 1450.39 Q704.191 1450.39 707.246 1455 Q710.325 1459.58 710.325 1468.33 Q710.325 1477.06 707.246 1481.67 Q704.191 1486.25 698.381 1486.25 Q692.57 1486.25 689.492 1481.67 Q686.436 1477.06 686.436 1468.33 Q686.436 1459.58 689.492 1455 Q692.57 1450.39 698.381 1450.39 Z" fill="#000000" fill-rule="nonzero" fill-opacity="1"></path><path clip-path="url(#clip310)" d="M718.543 1479.7 L723.427 1479.7 L723.427 1485.58 L718.543 1485.58 L718.543 1479.7 Z" fill="#000000" fill-rule="nonzero" fill-opacity="1"></path><path clip-path="url(#clip310)" d="M737.64 1481.64 L753.959 1481.64 L753.959 1485.58 L732.015 1485.58 L732.015 1481.64 Q734.677 1478.89 739.26 1474.26 Q743.867 1469.61 745.047 1468.27 Q747.292 1465.74 748.172 1464.01 Q749.075 1462.25 749.075 1460.56 Q749.075 1457.8 747.13 1456.07 Q745.209 1454.33 742.107 1454.33 Q739.908 1454.33 737.455 1455.09 Q735.024 1455.86 732.246 1457.41 L732.246 1452.69 Q735.07 1451.55 737.524 1450.97 Q739.978 1450.39 742.015 1450.39 Q747.385 1450.39 750.579 1453.08 Q753.774 1455.77 753.774 1460.26 Q753.774 1462.39 752.964 1464.31 Q752.177 1466.2 750.07 1468.8 Q749.491 1469.47 746.39 1472.69 Q743.288 1475.88 737.64 1481.64 Z" fill="#000000" fill-rule="nonzero" fill-opacity="1"></path><path clip-path="url(#clip310)" d="M1144.5 1454.1 Q1140.89 1454.1 1139.06 1457.66 Q1137.26 1461.2 1137.26 1468.33 Q1137.26 1475.44 1139.06 1479.01 Q1140.89 1482.55 1144.5 1482.55 Q1148.14 1482.55 1149.94 1479.01 Q1151.77 1475.44 1151.77 1468.33 Q1151.77 1461.2 1149.94 1457.66 Q1148.14 1454.1 1144.5 1454.1 M1144.5 1450.39 Q1150.31 1450.39 1153.37 1455 Q1156.45 1459.58 1156.45 1468.33 Q1156.45 1477.06 1153.37 1481.67 Q1150.31 1486.25 1144.5 1486.25 Q1138.69 1486.25 1135.61 1481.67 Q1132.56 1477.06 1132.56 1468.33 Q1132.56 1459.58 1135.61 1455 Q1138.69 1450.39 1144.5 1450.39 Z" fill="#000000" fill-rule="nonzero" fill-opacity="1"></path><path clip-path="url(#clip310)" d="M1164.67 1479.7 L1169.55 1479.7 L1169.55 1485.58 L1164.67 1485.58 L1164.67 1479.7 Z" fill="#000000" fill-rule="nonzero" fill-opacity="1"></path><path clip-path="url(#clip310)" d="M1192.58 1455.09 L1180.78 1473.54 L1192.58 1473.54 L1192.58 1455.09 M1191.35 1451.02 L1197.23 1451.02 L1197.23 1473.54 L1202.17 1473.54 L1202.17 1477.43 L1197.23 1477.43 L1197.23 1485.58 L1192.58 1485.58 L1192.58 1477.43 L1176.98 1477.43 L1176.98 1472.92 L1191.35 1451.02 Z" fill="#000000" fill-rule="nonzero" fill-opacity="1"></path><path clip-path="url(#clip310)" d="M1591.83 1454.1 Q1588.22 1454.1 1586.39 1457.66 Q1584.58 1461.2 1584.58 1468.33 Q1584.58 1475.44 1586.39 1479.01 Q1588.22 1482.55 1591.83 1482.55 Q1595.46 1482.55 1597.27 1479.01 Q1599.1 1475.44 1599.1 1468.33 Q1599.1 1461.2 1597.27 1457.66 Q1595.46 1454.1 1591.83 1454.1 M1591.83 1450.39 Q1597.64 1450.39 1600.7 1455 Q1603.77 1459.58 1603.77 1468.33 Q1603.77 1477.06 1600.7 1481.67 Q1597.64 1486.25 1591.83 1486.25 Q1586.02 1486.25 1582.94 1481.67 Q1579.89 1477.06 1579.89 1468.33 Q1579.89 1459.58 1582.94 1455 Q1586.02 1450.39 1591.83 1450.39 Z" fill="#000000" fill-rule="nonzero" fill-opacity="1"></path><path clip-path="url(#clip310)" d="M1611.99 1479.7 L1616.88 1479.7 L1616.88 1485.58 L1611.99 1485.58 L1611.99 1479.7 Z" fill="#000000" fill-rule="nonzero" fill-opacity="1"></path><path clip-path="url(#clip310)" d="M1637.64 1466.44 Q1634.49 1466.44 1632.64 1468.59 Q1630.81 1470.74 1630.81 1474.49 Q1630.81 1478.22 1632.64 1480.39 Q1634.49 1482.55 1637.64 1482.55 Q1640.79 1482.55 1642.62 1480.39 Q1644.47 1478.22 1644.47 1474.49 Q1644.47 1470.74 1642.62 1468.59 Q1640.79 1466.44 1637.64 1466.44 M1646.92 1451.78 L1646.92 1456.04 Q1645.16 1455.21 1643.36 1454.77 Q1641.57 1454.33 1639.82 1454.33 Q1635.19 1454.33 1632.73 1457.45 Q1630.3 1460.58 1629.95 1466.9 Q1631.32 1464.89 1633.38 1463.82 Q1635.44 1462.73 1637.92 1462.73 Q1643.13 1462.73 1646.13 1465.9 Q1649.17 1469.05 1649.17 1474.49 Q1649.17 1479.82 1646.02 1483.03 Q1642.87 1486.25 1637.64 1486.25 Q1631.64 1486.25 1628.47 1481.67 Q1625.3 1477.06 1625.3 1468.33 Q1625.3 1460.14 1629.19 1455.28 Q1633.08 1450.39 1639.63 1450.39 Q1641.39 1450.39 1643.17 1450.74 Q1644.98 1451.09 1646.92 1451.78 Z" fill="#000000" fill-rule="nonzero" fill-opacity="1"></path><path clip-path="url(#clip310)" d="M2039.12 1454.1 Q2035.51 1454.1 2033.68 1457.66 Q2031.88 1461.2 2031.88 1468.33 Q2031.88 1475.44 2033.68 1479.01 Q2035.51 1482.55 2039.12 1482.55 Q2042.76 1482.55 2044.56 1479.01 Q2046.39 1475.44 2046.39 1468.33 Q2046.39 1461.2 2044.56 1457.66 Q2042.76 1454.1 2039.12 1454.1 M2039.12 1450.39 Q2044.93 1450.39 2047.99 1455 Q2051.07 1459.58 2051.07 1468.33 Q2051.07 1477.06 2047.99 1481.67 Q2044.93 1486.25 2039.12 1486.25 Q2033.31 1486.25 2030.23 1481.67 Q2027.18 1477.06 2027.18 1468.33 Q2027.18 1459.58 2030.23 1455 Q2033.31 1450.39 2039.12 1450.39 Z" fill="#000000" fill-rule="nonzero" fill-opacity="1"></path><path clip-path="url(#clip310)" d="M2059.28 1479.7 L2064.17 1479.7 L2064.17 1485.58 L2059.28 1485.58 L2059.28 1479.7 Z" fill="#000000" fill-rule="nonzero" fill-opacity="1"></path><path clip-path="url(#clip310)" d="M2084.35 1469.17 Q2081.02 1469.17 2079.1 1470.95 Q2077.2 1472.73 2077.2 1475.86 Q2077.2 1478.98 2079.1 1480.77 Q2081.02 1482.55 2084.35 1482.55 Q2087.69 1482.55 2089.61 1480.77 Q2091.53 1478.96 2091.53 1475.86 Q2091.53 1472.73 2089.61 1470.95 Q2087.71 1469.17 2084.35 1469.17 M2079.68 1467.18 Q2076.67 1466.44 2074.98 1464.38 Q2073.31 1462.32 2073.31 1459.35 Q2073.31 1455.21 2076.25 1452.8 Q2079.21 1450.39 2084.35 1450.39 Q2089.51 1450.39 2092.45 1452.8 Q2095.39 1455.21 2095.39 1459.35 Q2095.39 1462.32 2093.7 1464.38 Q2092.04 1466.44 2089.05 1467.18 Q2092.43 1467.96 2094.31 1470.26 Q2096.2 1472.55 2096.2 1475.86 Q2096.2 1480.88 2093.13 1483.57 Q2090.07 1486.25 2084.35 1486.25 Q2078.63 1486.25 2075.56 1483.57 Q2072.5 1480.88 2072.5 1475.86 Q2072.5 1472.55 2074.4 1470.26 Q2076.3 1467.96 2079.68 1467.18 M2077.96 1459.79 Q2077.96 1462.48 2079.63 1463.98 Q2081.32 1465.49 2084.35 1465.49 Q2087.36 1465.49 2089.05 1463.98 Q2090.76 1462.48 2090.76 1459.79 Q2090.76 1457.11 2089.05 1455.6 Q2087.36 1454.1 2084.35 1454.1 Q2081.32 1454.1 2079.63 1455.6 Q2077.96 1457.11 2077.96 1459.79 Z" fill="#000000" fill-rule="nonzero" fill-opacity="1"></path><path clip-path="url(#clip310)" d="M1146.57 1518.52 L1152.43 1518.52 L1152.43 1568.04 L1146.57 1568.04 L1146.57 1518.52 Z" fill="#000000" fill-rule="nonzero" fill-opacity="1"></path><path clip-path="url(#clip310)" d="M1178.5 1536.5 Q1173.79 1536.5 1171.05 1540.19 Q1168.31 1543.85 1168.31 1550.25 Q1168.31 1556.65 1171.02 1560.34 Q1173.75 1564 1178.5 1564 Q1183.18 1564 1185.91 1560.31 Q1188.65 1556.62 1188.65 1550.25 Q1188.65 1543.92 1185.91 1540.23 Q1183.18 1536.5 1178.5 1536.5 M1178.5 1531.54 Q1186.14 1531.54 1190.5 1536.5 Q1194.86 1541.47 1194.86 1550.25 Q1194.86 1559 1190.5 1564 Q1186.14 1568.97 1178.5 1568.97 Q1170.83 1568.97 1166.47 1564 Q1162.14 1559 1162.14 1550.25 Q1162.14 1541.47 1166.47 1536.5 Q1170.83 1531.54 1178.5 1531.54 Z" fill="#000000" fill-rule="nonzero" fill-opacity="1"></path><path clip-path="url(#clip310)" d="M1228.02 1549.81 Q1228.02 1543.44 1225.38 1539.94 Q1222.77 1536.44 1218.03 1536.44 Q1213.32 1536.44 1210.67 1539.94 Q1208.06 1543.44 1208.06 1549.81 Q1208.06 1556.14 1210.67 1559.64 Q1213.32 1563.14 1218.03 1563.14 Q1222.77 1563.14 1225.38 1559.64 Q1228.02 1556.14 1228.02 1549.81 M1233.88 1563.62 Q1233.88 1572.72 1229.84 1577.15 Q1225.79 1581.6 1217.45 1581.6 Q1214.37 1581.6 1211.63 1581.13 Q1208.89 1580.68 1206.31 1579.72 L1206.31 1574.03 Q1208.89 1575.43 1211.41 1576.1 Q1213.92 1576.76 1216.53 1576.76 Q1222.29 1576.76 1225.16 1573.74 Q1228.02 1570.75 1228.02 1564.67 L1228.02 1561.77 Q1226.21 1564.92 1223.37 1566.48 Q1220.54 1568.04 1216.6 1568.04 Q1210.04 1568.04 1206.03 1563.05 Q1202.02 1558.05 1202.02 1549.81 Q1202.02 1541.53 1206.03 1536.53 Q1210.04 1531.54 1216.6 1531.54 Q1220.54 1531.54 1223.37 1533.1 Q1226.21 1534.66 1228.02 1537.81 L1228.02 1532.4 L1233.88 1532.4 L1233.88 1563.62 Z" fill="#000000" fill-rule="nonzero" fill-opacity="1"></path><path clip-path="url(#clip310)" d="M1260.01 1518.58 Q1255.74 1525.9 1253.68 1533.06 Q1251.61 1540.23 1251.61 1547.58 Q1251.61 1554.93 1253.68 1562.16 Q1255.78 1569.35 1260.01 1576.64 L1254.92 1576.64 Q1250.14 1569.16 1247.76 1561.93 Q1245.4 1554.71 1245.4 1547.58 Q1245.4 1540.48 1247.76 1533.29 Q1250.11 1526.09 1254.92 1518.58 L1260.01 1518.58 Z" fill="#000000" fill-rule="nonzero" fill-opacity="1"></path><path clip-path="url(#clip310)" d="M1273.31 1562.63 L1283.82 1562.63 L1283.82 1526.38 L1272.39 1528.67 L1272.39 1522.82 L1283.75 1520.52 L1290.18 1520.52 L1290.18 1562.63 L1300.69 1562.63 L1300.69 1568.04 L1273.31 1568.04 L1273.31 1562.63 Z" fill="#000000" fill-rule="nonzero" fill-opacity="1"></path><path clip-path="url(#clip310)" d="M1323.25 1520.52 L1328.66 1520.52 L1312.11 1574.09 L1306.7 1574.09 L1323.25 1520.52 Z" fill="#000000" fill-rule="nonzero" fill-opacity="1"></path><path clip-path="url(#clip310)" d="M1350.94 1526.86 L1337.89 1562.7 L1364.02 1562.7 L1350.94 1526.86 M1329.17 1568.04 L1347.31 1520.52 L1354.6 1520.52 L1372.71 1568.04 L1329.17 1568.04 Z" fill="#000000" fill-rule="nonzero" fill-opacity="1"></path><path clip-path="url(#clip310)" d="M1385.19 1522.27 L1385.19 1532.4 L1397.25 1532.4 L1397.25 1536.95 L1385.19 1536.95 L1385.19 1556.3 Q1385.19 1560.66 1386.37 1561.9 Q1387.58 1563.14 1391.24 1563.14 L1397.25 1563.14 L1397.25 1568.04 L1391.24 1568.04 Q1384.46 1568.04 1381.88 1565.53 Q1379.3 1562.98 1379.3 1556.3 L1379.3 1536.95 L1375.01 1536.95 L1375.01 1532.4 L1379.3 1532.4 L1379.3 1522.27 L1385.19 1522.27 Z" fill="#000000" fill-rule="nonzero" fill-opacity="1"></path><path clip-path="url(#clip310)" d="M1404.03 1518.58 L1409.13 1518.58 Q1413.9 1526.09 1416.26 1533.29 Q1418.64 1540.48 1418.64 1547.58 Q1418.64 1554.71 1416.26 1561.93 Q1413.9 1569.16 1409.13 1576.64 L1404.03 1576.64 Q1408.27 1569.35 1410.34 1562.16 Q1412.44 1554.93 1412.44 1547.58 Q1412.44 1540.23 1410.34 1533.06 Q1408.27 1525.9 1404.03 1518.58 Z" fill="#000000" fill-rule="nonzero" fill-opacity="1"></path><polyline clip-path="url(#clip310)" style="stroke:#000000; stroke-linecap:round; stroke-linejoin:round; stroke-width:4; stroke-opacity:1; fill:none" points="212.459,1423.18 212.459,123.472 "></polyline>
<polyline clip-path="url(#clip310)" style="stroke:#000000; stroke-linecap:round; stroke-linejoin:round; stroke-width:4; stroke-opacity:1; fill:none" points="212.459,1177.31 231.357,1177.31 "></polyline>
<polyline clip-path="url(#clip310)" style="stroke:#000000; stroke-linecap:round; stroke-linejoin:round; stroke-width:4; stroke-opacity:1; fill:none" points="212.459,826.821 231.357,826.821 "></polyline>
<polyline clip-path="url(#clip310)" style="stroke:#000000; stroke-linecap:round; stroke-linejoin:round; stroke-width:4; stroke-opacity:1; fill:none" points="212.459,476.329 231.357,476.329 "></polyline>
<polyline clip-path="url(#clip310)" style="stroke:#000000; stroke-linecap:round; stroke-linejoin:round; stroke-width:4; stroke-opacity:1; fill:none" points="212.459,125.836 231.357,125.836 "></polyline>
<path clip-path="url(#clip310)" d="M114.839 1177.77 L144.515 1177.77 L144.515 1181.7 L114.839 1181.7 L114.839 1177.77 Z" fill="#000000" fill-rule="nonzero" fill-opacity="1"></path><path clip-path="url(#clip310)" d="M164.607 1178.18 Q161.274 1178.18 159.353 1179.96 Q157.454 1181.75 157.454 1184.87 Q157.454 1188 159.353 1189.78 Q161.274 1191.56 164.607 1191.56 Q167.94 1191.56 169.862 1189.78 Q171.783 1187.97 171.783 1184.87 Q171.783 1181.75 169.862 1179.96 Q167.964 1178.18 164.607 1178.18 M159.931 1176.19 Q156.922 1175.45 155.232 1173.39 Q153.566 1171.33 153.566 1168.37 Q153.566 1164.22 156.505 1161.82 Q159.468 1159.41 164.607 1159.41 Q169.769 1159.41 172.709 1161.82 Q175.649 1164.22 175.649 1168.37 Q175.649 1171.33 173.959 1173.39 Q172.292 1175.45 169.306 1176.19 Q172.686 1176.98 174.561 1179.27 Q176.459 1181.56 176.459 1184.87 Q176.459 1189.89 173.38 1192.58 Q170.325 1195.27 164.607 1195.27 Q158.89 1195.27 155.811 1192.58 Q152.755 1189.89 152.755 1184.87 Q152.755 1181.56 154.653 1179.27 Q156.552 1176.98 159.931 1176.19 M158.218 1168.81 Q158.218 1171.49 159.885 1173 Q161.575 1174.5 164.607 1174.5 Q167.616 1174.5 169.306 1173 Q171.019 1171.49 171.019 1168.81 Q171.019 1166.12 169.306 1164.62 Q167.616 1163.11 164.607 1163.11 Q161.575 1163.11 159.885 1164.62 Q158.218 1166.12 158.218 1168.81 Z" fill="#000000" fill-rule="nonzero" fill-opacity="1"></path><path clip-path="url(#clip310)" d="M114.584 827.273 L144.26 827.273 L144.26 831.208 L114.584 831.208 L114.584 827.273 Z" fill="#000000" fill-rule="nonzero" fill-opacity="1"></path><path clip-path="url(#clip310)" d="M164.931 824.958 Q161.783 824.958 159.931 827.111 Q158.103 829.263 158.103 833.013 Q158.103 836.74 159.931 838.916 Q161.783 841.069 164.931 841.069 Q168.079 841.069 169.908 838.916 Q171.76 836.74 171.76 833.013 Q171.76 829.263 169.908 827.111 Q168.079 824.958 164.931 824.958 M174.214 810.305 L174.214 814.564 Q172.454 813.731 170.649 813.291 Q168.866 812.851 167.107 812.851 Q162.477 812.851 160.024 815.976 Q157.593 819.101 157.246 825.421 Q158.612 823.407 160.672 822.342 Q162.732 821.254 165.209 821.254 Q170.417 821.254 173.427 824.425 Q176.459 827.574 176.459 833.013 Q176.459 838.337 173.311 841.555 Q170.163 844.773 164.931 844.773 Q158.936 844.773 155.765 840.189 Q152.593 835.583 152.593 826.856 Q152.593 818.662 156.482 813.801 Q160.371 808.916 166.922 808.916 Q168.681 808.916 170.464 809.263 Q172.269 809.611 174.214 810.305 Z" fill="#000000" fill-rule="nonzero" fill-opacity="1"></path><path clip-path="url(#clip310)" d="M114.26 476.78 L143.936 476.78 L143.936 480.715 L114.26 480.715 L114.26 476.78 Z" fill="#000000" fill-rule="nonzero" fill-opacity="1"></path><path clip-path="url(#clip310)" d="M166.876 463.123 L155.07 481.572 L166.876 481.572 L166.876 463.123 M165.649 459.049 L171.528 459.049 L171.528 481.572 L176.459 481.572 L176.459 485.46 L171.528 485.46 L171.528 493.609 L166.876 493.609 L166.876 485.46 L151.274 485.46 L151.274 480.947 L165.649 459.049 Z" fill="#000000" fill-rule="nonzero" fill-opacity="1"></path><path clip-path="url(#clip310)" d="M116.343 126.287 L146.019 126.287 L146.019 130.222 L116.343 130.222 L116.343 126.287 Z" fill="#000000" fill-rule="nonzero" fill-opacity="1"></path><path clip-path="url(#clip310)" d="M160.14 139.181 L176.459 139.181 L176.459 143.116 L154.515 143.116 L154.515 139.181 Q157.177 136.426 161.76 131.796 Q166.366 127.144 167.547 125.801 Q169.792 123.278 170.672 121.542 Q171.575 119.783 171.575 118.093 Q171.575 115.338 169.63 113.602 Q167.709 111.866 164.607 111.866 Q162.408 111.866 159.954 112.63 Q157.524 113.394 154.746 114.945 L154.746 110.222 Q157.57 109.088 160.024 108.509 Q162.477 107.931 164.515 107.931 Q169.885 107.931 173.079 110.616 Q176.274 113.301 176.274 117.792 Q176.274 119.921 175.464 121.843 Q174.677 123.741 172.57 126.333 Q171.991 127.005 168.889 130.222 Q165.788 133.417 160.14 139.181 Z" fill="#000000" fill-rule="nonzero" fill-opacity="1"></path><path clip-path="url(#clip310)" d="M18.0438 930.018 L24.314 930.018 Q22.5634 933.678 21.704 936.925 Q20.8447 940.171 20.8447 943.195 Q20.8447 948.447 22.8817 951.311 Q24.9187 954.144 28.6745 954.144 Q31.8255 954.144 33.4488 952.266 Q35.0402 950.356 36.0269 945.073 L36.8226 941.19 Q38.1912 933.996 41.6605 930.591 Q45.098 927.153 50.8908 927.153 Q57.7976 927.153 61.3624 931.8 Q64.9272 936.415 64.9272 945.359 Q64.9272 948.733 64.1633 952.552 Q63.3994 956.34 61.9035 960.414 L55.2831 960.414 Q57.4793 956.499 58.5933 952.743 Q59.7073 948.988 59.7073 945.359 Q59.7073 939.853 57.543 936.861 Q55.3786 933.869 51.3682 933.869 Q47.8671 933.869 45.8937 936.033 Q43.9204 938.166 42.9337 943.068 L42.1698 946.982 Q40.7375 954.176 37.682 957.39 Q34.6264 960.605 29.1837 960.605 Q22.8817 960.605 19.2532 956.181 Q15.6248 951.725 15.6248 943.927 Q15.6248 940.585 16.2295 937.116 Q16.8343 933.646 18.0438 930.018 Z" fill="#000000" fill-rule="nonzero" fill-opacity="1"></path><path clip-path="url(#clip310)" d="M18.2347 911.589 L28.3562 911.589 L28.3562 899.526 L32.9077 899.526 L32.9077 911.589 L52.2594 911.589 Q56.6199 911.589 57.8613 910.411 Q59.1026 909.202 59.1026 905.542 L59.1026 899.526 L64.0042 899.526 L64.0042 905.542 Q64.0042 912.321 61.4897 914.899 Q58.9434 917.477 52.2594 917.477 L32.9077 917.477 L32.9077 921.774 L28.3562 921.774 L28.3562 917.477 L18.2347 917.477 L18.2347 911.589 Z" fill="#000000" fill-rule="nonzero" fill-opacity="1"></path><path clip-path="url(#clip310)" d="M33.8307 871.167 Q33.2578 872.154 33.0032 873.331 Q32.7167 874.477 32.7167 875.878 Q32.7167 880.843 35.9632 883.516 Q39.1779 886.158 45.2253 886.158 L64.0042 886.158 L64.0042 892.046 L28.3562 892.046 L28.3562 886.158 L33.8944 886.158 Q30.6479 884.312 29.0883 881.352 Q27.4968 878.392 27.4968 874.159 Q27.4968 873.554 27.5923 872.822 Q27.656 872.09 27.8151 871.199 L33.8307 871.167 Z" fill="#000000" fill-rule="nonzero" fill-opacity="1"></path><path clip-path="url(#clip310)" d="M44.7161 835.965 L47.5806 835.965 L47.5806 862.891 Q53.6281 862.51 56.8109 859.263 Q59.9619 855.985 59.9619 850.16 Q59.9619 846.786 59.1344 843.635 Q58.3069 840.452 56.6518 837.333 L62.1899 837.333 Q63.5267 840.484 64.227 843.794 Q64.9272 847.105 64.9272 850.51 Q64.9272 859.04 59.9619 864.037 Q54.9967 869.003 46.5303 869.003 Q37.7774 869.003 32.6531 864.292 Q27.4968 859.549 27.4968 851.529 Q27.4968 844.335 32.1438 840.166 Q36.7589 835.965 44.7161 835.965 M42.9973 841.821 Q38.1912 841.885 35.3266 844.526 Q32.4621 847.136 32.4621 851.465 Q32.4621 856.367 35.2312 859.327 Q38.0002 862.255 43.0292 862.701 L42.9973 841.821 Z" fill="#000000" fill-rule="nonzero" fill-opacity="1"></path><path clip-path="url(#clip310)" d="M29.4065 803.627 L34.9447 803.627 Q33.6716 806.109 33.035 808.783 Q32.3984 811.457 32.3984 814.321 Q32.3984 818.682 33.7352 820.878 Q35.072 823.042 37.7456 823.042 Q39.7826 823.042 40.9603 821.483 Q42.1061 819.923 43.1565 815.212 L43.6021 813.207 Q44.9389 806.969 47.3897 804.359 Q49.8086 801.717 54.1691 801.717 Q59.1344 801.717 62.0308 805.664 Q64.9272 809.579 64.9272 816.454 Q64.9272 819.318 64.3543 822.437 Q63.8132 825.525 62.6992 828.962 L56.6518 828.962 Q58.3387 825.716 59.198 822.565 Q60.0256 819.414 60.0256 816.326 Q60.0256 812.189 58.6251 809.961 Q57.1929 807.733 54.6147 807.733 Q52.2276 807.733 50.9545 809.356 Q49.6813 810.947 48.5037 816.39 L48.0262 818.427 Q46.8804 823.87 44.5251 826.289 Q42.138 828.708 38.0002 828.708 Q32.9713 828.708 30.2341 825.143 Q27.4968 821.578 27.4968 815.021 Q27.4968 811.775 27.9743 808.91 Q28.4517 806.046 29.4065 803.627 Z" fill="#000000" fill-rule="nonzero" fill-opacity="1"></path><path clip-path="url(#clip310)" d="M29.4065 769.666 L34.9447 769.666 Q33.6716 772.148 33.035 774.822 Q32.3984 777.496 32.3984 780.36 Q32.3984 784.721 33.7352 786.917 Q35.072 789.081 37.7456 789.081 Q39.7826 789.081 40.9603 787.522 Q42.1061 785.962 43.1565 781.251 L43.6021 779.246 Q44.9389 773.008 47.3897 770.398 Q49.8086 767.756 54.1691 767.756 Q59.1344 767.756 62.0308 771.703 Q64.9272 775.618 64.9272 782.493 Q64.9272 785.357 64.3543 788.476 Q63.8132 791.564 62.6992 795.001 L56.6518 795.001 Q58.3387 791.755 59.198 788.604 Q60.0256 785.453 60.0256 782.365 Q60.0256 778.228 58.6251 776 Q57.1929 773.772 54.6147 773.772 Q52.2276 773.772 50.9545 775.395 Q49.6813 776.986 48.5037 782.429 L48.0262 784.466 Q46.8804 789.909 44.5251 792.328 Q42.138 794.747 38.0002 794.747 Q32.9713 794.747 30.2341 791.182 Q27.4968 787.617 27.4968 781.06 Q27.4968 777.814 27.9743 774.949 Q28.4517 772.085 29.4065 769.666 Z" fill="#000000" fill-rule="nonzero" fill-opacity="1"></path><path clip-path="url(#clip310)" d="M44.7161 707.218 L47.5806 707.218 L47.5806 734.145 Q53.6281 733.763 56.8109 730.517 Q59.9619 727.238 59.9619 721.414 Q59.9619 718.04 59.1344 714.889 Q58.3069 711.706 56.6518 708.587 L62.1899 708.587 Q63.5267 711.738 64.227 715.048 Q64.9272 718.358 64.9272 721.764 Q64.9272 730.294 59.9619 735.291 Q54.9967 740.256 46.5303 740.256 Q37.7774 740.256 32.6531 735.546 Q27.4968 730.803 27.4968 722.782 Q27.4968 715.589 32.1438 711.419 Q36.7589 707.218 44.7161 707.218 M42.9973 713.075 Q38.1912 713.138 35.3266 715.78 Q32.4621 718.39 32.4621 722.719 Q32.4621 727.62 35.2312 730.58 Q38.0002 733.508 43.0292 733.954 L42.9973 713.075 Z" fill="#000000" fill-rule="nonzero" fill-opacity="1"></path><path clip-path="url(#clip310)" d="M33.8307 676.949 Q33.2578 677.936 33.0032 679.114 Q32.7167 680.259 32.7167 681.66 Q32.7167 686.625 35.9632 689.299 Q39.1779 691.94 45.2253 691.94 L64.0042 691.94 L64.0042 697.829 L28.3562 697.829 L28.3562 691.94 L33.8944 691.94 Q30.6479 690.094 29.0883 687.134 Q27.4968 684.174 27.4968 679.941 Q27.4968 679.336 27.5923 678.604 Q27.656 677.872 27.8151 676.981 L33.8307 676.949 Z" fill="#000000" fill-rule="nonzero" fill-opacity="1"></path><path clip-path="url(#clip310)" d="M33.8307 651.295 Q33.2578 652.282 33.0032 653.46 Q32.7167 654.606 32.7167 656.006 Q32.7167 660.971 35.9632 663.645 Q39.1779 666.287 45.2253 666.287 L64.0042 666.287 L64.0042 672.175 L28.3562 672.175 L28.3562 666.287 L33.8944 666.287 Q30.6479 664.441 29.0883 661.481 Q27.4968 658.52 27.4968 654.287 Q27.4968 653.683 27.5923 652.95 Q27.656 652.218 27.8151 651.327 L33.8307 651.295 Z" fill="#000000" fill-rule="nonzero" fill-opacity="1"></path><path clip-path="url(#clip310)" d="M32.4621 632.771 Q32.4621 637.482 36.1542 640.219 Q39.8145 642.956 46.212 642.956 Q52.6095 642.956 56.3017 640.251 Q59.9619 637.514 59.9619 632.771 Q59.9619 628.092 56.2698 625.355 Q52.5777 622.618 46.212 622.618 Q39.8781 622.618 36.186 625.355 Q32.4621 628.092 32.4621 632.771 M27.4968 632.771 Q27.4968 625.132 32.4621 620.772 Q37.4273 616.411 46.212 616.411 Q54.9649 616.411 59.9619 620.772 Q64.9272 625.132 64.9272 632.771 Q64.9272 640.442 59.9619 644.802 Q54.9649 649.131 46.212 649.131 Q37.4273 649.131 32.4621 644.802 Q27.4968 640.442 27.4968 632.771 Z" fill="#000000" fill-rule="nonzero" fill-opacity="1"></path><path clip-path="url(#clip310)" d="M33.8307 586.047 Q33.2578 587.034 33.0032 588.211 Q32.7167 589.357 32.7167 590.758 Q32.7167 595.723 35.9632 598.396 Q39.1779 601.038 45.2253 601.038 L64.0042 601.038 L64.0042 606.926 L28.3562 606.926 L28.3562 601.038 L33.8944 601.038 Q30.6479 599.192 29.0883 596.232 Q27.4968 593.272 27.4968 589.039 Q27.4968 588.434 27.5923 587.702 Q27.656 586.97 27.8151 586.079 L33.8307 586.047 Z" fill="#000000" fill-rule="nonzero" fill-opacity="1"></path><path clip-path="url(#clip310)" d="M583.401 16.7545 L583.401 25.383 Q579.269 21.5346 574.57 19.6307 Q569.912 17.7268 564.645 17.7268 Q554.275 17.7268 548.766 24.0867 Q543.257 30.4061 543.257 42.3968 Q543.257 54.3469 548.766 60.7069 Q554.275 67.0263 564.645 67.0263 Q569.912 67.0263 574.57 65.1223 Q579.269 63.2184 583.401 59.3701 L583.401 67.9175 Q579.107 70.8341 574.287 72.2924 Q569.506 73.7508 564.159 73.7508 Q550.427 73.7508 542.527 65.3654 Q534.628 56.9395 534.628 42.3968 Q534.628 27.8135 542.527 19.4281 Q550.427 11.0023 564.159 11.0023 Q569.587 11.0023 574.368 12.4606 Q579.188 13.8784 583.401 16.7545 Z" fill="#000000" fill-rule="nonzero" fill-opacity="1"></path><path clip-path="url(#clip310)" d="M613.297 32.4315 Q607.301 32.4315 603.818 37.1306 Q600.334 41.7891 600.334 49.9314 Q600.334 58.0738 603.777 62.7728 Q607.261 67.4314 613.297 67.4314 Q619.252 67.4314 622.735 62.7323 Q626.219 58.0333 626.219 49.9314 Q626.219 41.8701 622.735 37.1711 Q619.252 32.4315 613.297 32.4315 M613.297 26.1121 Q623.019 26.1121 628.569 32.4315 Q634.118 38.7509 634.118 49.9314 Q634.118 61.0714 628.569 67.4314 Q623.019 73.7508 613.297 73.7508 Q603.534 73.7508 597.984 67.4314 Q592.475 61.0714 592.475 49.9314 Q592.475 38.7509 597.984 32.4315 Q603.534 26.1121 613.297 26.1121 Z" fill="#000000" fill-rule="nonzero" fill-opacity="1"></path><path clip-path="url(#clip310)" d="M684.188 45.1919 L684.188 72.576 L676.734 72.576 L676.734 45.4349 Q676.734 38.994 674.222 35.7938 Q671.711 32.5936 666.688 32.5936 Q660.652 32.5936 657.168 36.4419 Q653.684 40.2903 653.684 46.9338 L653.684 72.576 L646.19 72.576 L646.19 27.2059 L653.684 27.2059 L653.684 34.2544 Q656.358 30.163 659.963 28.1376 Q663.609 26.1121 668.349 26.1121 Q676.167 26.1121 680.177 30.9732 Q684.188 35.7938 684.188 45.1919 Z" fill="#000000" fill-rule="nonzero" fill-opacity="1"></path><path clip-path="url(#clip310)" d="M693.707 27.2059 L701.606 27.2059 L715.785 65.2844 L729.963 27.2059 L737.862 27.2059 L720.848 72.576 L710.721 72.576 L693.707 27.2059 Z" fill="#000000" fill-rule="nonzero" fill-opacity="1"></path><path clip-path="url(#clip310)" d="M786.959 48.0275 L786.959 51.6733 L752.688 51.6733 Q753.174 59.3701 757.306 63.421 Q761.479 67.4314 768.892 67.4314 Q773.186 67.4314 777.196 66.3781 Q781.247 65.3249 785.217 63.2184 L785.217 70.267 Q781.207 71.9684 776.994 72.8596 Q772.781 73.7508 768.446 73.7508 Q757.59 73.7508 751.23 67.4314 Q744.911 61.1119 744.911 50.3365 Q744.911 39.1965 750.906 32.6746 Q756.942 26.1121 767.15 26.1121 Q776.305 26.1121 781.612 32.0264 Q786.959 37.9003 786.959 48.0275 M779.505 45.84 Q779.424 39.7232 776.062 36.0774 Q772.74 32.4315 767.231 32.4315 Q760.993 32.4315 757.225 35.9558 Q753.499 39.4801 752.931 45.8805 L779.505 45.84 Z" fill="#000000" fill-rule="nonzero" fill-opacity="1"></path><path clip-path="url(#clip310)" d="M825.483 34.1734 Q824.227 33.4443 822.729 33.1202 Q821.27 32.7556 819.488 32.7556 Q813.168 32.7556 809.766 36.8875 Q806.403 40.9789 806.403 48.6757 L806.403 72.576 L798.909 72.576 L798.909 27.2059 L806.403 27.2059 L806.403 34.2544 Q808.753 30.1225 812.52 28.1376 Q816.288 26.1121 821.675 26.1121 Q822.445 26.1121 823.377 26.2337 Q824.308 26.3147 825.443 26.5172 L825.483 34.1734 Z" fill="#000000" fill-rule="nonzero" fill-opacity="1"></path><path clip-path="url(#clip310)" d="M861.698 49.3643 Q861.698 41.2625 858.336 36.8065 Q855.014 32.3505 848.978 32.3505 Q842.983 32.3505 839.621 36.8065 Q836.299 41.2625 836.299 49.3643 Q836.299 57.4256 839.621 61.8816 Q842.983 66.3376 848.978 66.3376 Q855.014 66.3376 858.336 61.8816 Q861.698 57.4256 861.698 49.3643 M869.152 66.9452 Q869.152 78.5308 864.007 84.1616 Q858.863 89.8329 848.249 89.8329 Q844.32 89.8329 840.836 89.2252 Q837.352 88.6581 834.071 87.4428 L834.071 80.1917 Q837.352 81.9741 840.552 82.8248 Q843.753 83.6755 847.074 83.6755 Q854.407 83.6755 858.052 79.8271 Q861.698 76.0193 861.698 68.282 L861.698 64.5957 Q859.389 68.6061 855.784 70.5911 Q852.179 72.576 847.155 72.576 Q838.811 72.576 833.706 66.2161 Q828.602 59.8562 828.602 49.3643 Q828.602 38.832 833.706 32.472 Q838.811 26.1121 847.155 26.1121 Q852.179 26.1121 855.784 28.0971 Q859.389 30.082 861.698 34.0924 L861.698 27.2059 L869.152 27.2059 L869.152 66.9452 Z" fill="#000000" fill-rule="nonzero" fill-opacity="1"></path><path clip-path="url(#clip310)" d="M923.312 48.0275 L923.312 51.6733 L889.042 51.6733 Q889.528 59.3701 893.66 63.421 Q897.832 67.4314 905.245 67.4314 Q909.539 67.4314 913.55 66.3781 Q917.601 65.3249 921.571 63.2184 L921.571 70.267 Q917.56 71.9684 913.347 72.8596 Q909.134 73.7508 904.8 73.7508 Q893.943 73.7508 887.583 67.4314 Q881.264 61.1119 881.264 50.3365 Q881.264 39.1965 887.259 32.6746 Q893.295 26.1121 903.504 26.1121 Q912.659 26.1121 917.965 32.0264 Q923.312 37.9003 923.312 48.0275 M915.859 45.84 Q915.778 39.7232 912.416 36.0774 Q909.094 32.4315 903.585 32.4315 Q897.346 32.4315 893.579 35.9558 Q889.852 39.4801 889.285 45.8805 L915.859 45.84 Z" fill="#000000" fill-rule="nonzero" fill-opacity="1"></path><path clip-path="url(#clip310)" d="M973.26 45.1919 L973.26 72.576 L965.806 72.576 L965.806 45.4349 Q965.806 38.994 963.295 35.7938 Q960.783 32.5936 955.76 32.5936 Q949.724 32.5936 946.241 36.4419 Q942.757 40.2903 942.757 46.9338 L942.757 72.576 L935.263 72.576 L935.263 27.2059 L942.757 27.2059 L942.757 34.2544 Q945.43 30.163 949.036 28.1376 Q952.682 26.1121 957.421 26.1121 Q965.239 26.1121 969.25 30.9732 Q973.26 35.7938 973.26 45.1919 Z" fill="#000000" fill-rule="nonzero" fill-opacity="1"></path><path clip-path="url(#clip310)" d="M1020.78 28.9478 L1020.78 35.9153 Q1017.62 34.1734 1014.42 33.3227 Q1011.26 32.4315 1008.02 32.4315 Q1000.77 32.4315 996.755 37.0496 Q992.745 41.6271 992.745 49.9314 Q992.745 58.2358 996.755 62.8538 Q1000.77 67.4314 1008.02 67.4314 Q1011.26 67.4314 1014.42 66.5807 Q1017.62 65.6895 1020.78 63.9476 L1020.78 70.8341 Q1017.66 72.2924 1014.3 73.0216 Q1010.97 73.7508 1007.21 73.7508 Q996.958 73.7508 990.922 67.3098 Q984.886 60.8689 984.886 49.9314 Q984.886 38.832 990.963 32.472 Q997.079 26.1121 1007.69 26.1121 Q1011.14 26.1121 1014.42 26.8413 Q1017.7 27.5299 1020.78 28.9478 Z" fill="#000000" fill-rule="nonzero" fill-opacity="1"></path><path clip-path="url(#clip310)" d="M1072.55 48.0275 L1072.55 51.6733 L1038.28 51.6733 Q1038.76 59.3701 1042.9 63.421 Q1047.07 67.4314 1054.48 67.4314 Q1058.77 67.4314 1062.79 66.3781 Q1066.84 65.3249 1070.81 63.2184 L1070.81 70.267 Q1066.8 71.9684 1062.58 72.8596 Q1058.37 73.7508 1054.04 73.7508 Q1043.18 73.7508 1036.82 67.4314 Q1030.5 61.1119 1030.5 50.3365 Q1030.5 39.1965 1036.49 32.6746 Q1042.53 26.1121 1052.74 26.1121 Q1061.89 26.1121 1067.2 32.0264 Q1072.55 37.9003 1072.55 48.0275 M1065.09 45.84 Q1065.01 39.7232 1061.65 36.0774 Q1058.33 32.4315 1052.82 32.4315 Q1046.58 32.4315 1042.81 35.9558 Q1039.09 39.4801 1038.52 45.8805 L1065.09 45.84 Z" fill="#000000" fill-rule="nonzero" fill-opacity="1"></path><path clip-path="url(#clip310)" d="M1086.69 62.2867 L1095.23 62.2867 L1095.23 72.576 L1086.69 72.576 L1086.69 62.2867 M1086.69 29.6769 L1095.23 29.6769 L1095.23 39.9662 L1086.69 39.9662 L1086.69 29.6769 Z" fill="#000000" fill-rule="nonzero" fill-opacity="1"></path><path clip-path="url(#clip310)" d="M1133.76 27.2059 L1141.66 27.2059 L1155.83 65.2844 L1170.01 27.2059 L1177.91 27.2059 L1160.9 72.576 L1150.77 72.576 L1133.76 27.2059 Z" fill="#000000" fill-rule="nonzero" fill-opacity="1"></path><path clip-path="url(#clip310)" d="M1188.2 27.2059 L1195.65 27.2059 L1195.65 72.576 L1188.2 72.576 L1188.2 27.2059 M1188.2 9.54393 L1195.65 9.54393 L1195.65 18.9825 L1188.2 18.9825 L1188.2 9.54393 Z" fill="#000000" fill-rule="nonzero" fill-opacity="1"></path><path clip-path="url(#clip310)" d="M1240.17 28.5427 L1240.17 35.5912 Q1237.01 33.9709 1233.61 33.1607 Q1230.21 32.3505 1226.56 32.3505 Q1221.01 32.3505 1218.22 34.0519 Q1215.46 35.7533 1215.46 39.156 Q1215.46 41.7486 1217.45 43.2475 Q1219.43 44.7058 1225.43 46.0426 L1227.98 46.6097 Q1235.92 48.3111 1239.24 51.4303 Q1242.6 54.509 1242.6 60.0587 Q1242.6 66.3781 1237.58 70.0644 Q1232.6 73.7508 1223.85 73.7508 Q1220.2 73.7508 1216.23 73.0216 Q1212.3 72.3329 1207.93 70.9151 L1207.93 63.2184 Q1212.06 65.3654 1216.07 66.4591 Q1220.08 67.5124 1224.01 67.5124 Q1229.28 67.5124 1232.11 65.73 Q1234.95 63.9071 1234.95 60.6258 Q1234.95 57.5877 1232.88 55.9673 Q1230.86 54.3469 1223.93 52.8481 L1221.34 52.2405 Q1214.41 50.7821 1211.33 47.7845 Q1208.25 44.7463 1208.25 39.4801 Q1208.25 33.0797 1212.79 29.5959 Q1217.33 26.1121 1225.67 26.1121 Q1229.8 26.1121 1233.45 26.7198 Q1237.1 27.3274 1240.17 28.5427 Z" fill="#000000" fill-rule="nonzero" fill-opacity="1"></path><path clip-path="url(#clip310)" d="M1287.12 28.9478 L1287.12 35.9153 Q1283.96 34.1734 1280.76 33.3227 Q1277.6 32.4315 1274.36 32.4315 Q1267.11 32.4315 1263.1 37.0496 Q1259.09 41.6271 1259.09 49.9314 Q1259.09 58.2358 1263.1 62.8538 Q1267.11 67.4314 1274.36 67.4314 Q1277.6 67.4314 1280.76 66.5807 Q1283.96 65.6895 1287.12 63.9476 L1287.12 70.8341 Q1284 72.2924 1280.64 73.0216 Q1277.32 73.7508 1273.55 73.7508 Q1263.3 73.7508 1257.27 67.3098 Q1251.23 60.8689 1251.23 49.9314 Q1251.23 38.832 1257.31 32.472 Q1263.43 26.1121 1274.04 26.1121 Q1277.48 26.1121 1280.76 26.8413 Q1284.05 27.5299 1287.12 28.9478 Z" fill="#000000" fill-rule="nonzero" fill-opacity="1"></path><path clip-path="url(#clip310)" d="M1317.67 32.4315 Q1311.67 32.4315 1308.19 37.1306 Q1304.71 41.7891 1304.71 49.9314 Q1304.71 58.0738 1308.15 62.7728 Q1311.63 67.4314 1317.67 67.4314 Q1323.62 67.4314 1327.11 62.7323 Q1330.59 58.0333 1330.59 49.9314 Q1330.59 41.8701 1327.11 37.1711 Q1323.62 32.4315 1317.67 32.4315 M1317.67 26.1121 Q1327.39 26.1121 1332.94 32.4315 Q1338.49 38.7509 1338.49 49.9314 Q1338.49 61.0714 1332.94 67.4314 Q1327.39 73.7508 1317.67 73.7508 Q1307.91 73.7508 1302.36 67.4314 Q1296.85 61.0714 1296.85 49.9314 Q1296.85 38.7509 1302.36 32.4315 Q1307.91 26.1121 1317.67 26.1121 Z" fill="#000000" fill-rule="nonzero" fill-opacity="1"></path><path clip-path="url(#clip310)" d="M1348.62 46.5287 L1370.45 46.5287 L1370.45 53.1722 L1348.62 53.1722 L1348.62 46.5287 Z" fill="#000000" fill-rule="nonzero" fill-opacity="1"></path><path clip-path="url(#clip310)" d="M1421.13 48.0275 L1421.13 51.6733 L1386.86 51.6733 Q1387.34 59.3701 1391.48 63.421 Q1395.65 67.4314 1403.06 67.4314 Q1407.35 67.4314 1411.37 66.3781 Q1415.42 65.3249 1419.39 63.2184 L1419.39 70.267 Q1415.38 71.9684 1411.16 72.8596 Q1406.95 73.7508 1402.62 73.7508 Q1391.76 73.7508 1385.4 67.4314 Q1379.08 61.1119 1379.08 50.3365 Q1379.08 39.1965 1385.08 32.6746 Q1391.11 26.1121 1401.32 26.1121 Q1410.47 26.1121 1415.78 32.0264 Q1421.13 37.9003 1421.13 48.0275 M1413.67 45.84 Q1413.59 39.7232 1410.23 36.0774 Q1406.91 32.4315 1401.4 32.4315 Q1395.16 32.4315 1391.39 35.9558 Q1387.67 39.4801 1387.1 45.8805 L1413.67 45.84 Z" fill="#000000" fill-rule="nonzero" fill-opacity="1"></path><path clip-path="url(#clip310)" d="M1433.36 9.54393 L1440.82 9.54393 L1440.82 72.576 L1433.36 72.576 L1433.36 9.54393 Z" fill="#000000" fill-rule="nonzero" fill-opacity="1"></path><path clip-path="url(#clip310)" d="M1477.03 49.7694 Q1468 49.7694 1464.51 51.8354 Q1461.03 53.9013 1461.03 58.8839 Q1461.03 62.8538 1463.62 65.2034 Q1466.26 67.5124 1470.75 67.5124 Q1476.95 67.5124 1480.68 63.1374 Q1484.44 58.7219 1484.44 51.4303 L1484.44 49.7694 L1477.03 49.7694 M1491.9 46.6907 L1491.9 72.576 L1484.44 72.576 L1484.44 65.6895 Q1481.89 69.8214 1478.08 71.8063 Q1474.28 73.7508 1468.77 73.7508 Q1461.8 73.7508 1457.67 69.8619 Q1453.58 65.9325 1453.58 59.3701 Q1453.58 51.7138 1458.68 47.825 Q1463.82 43.9361 1473.99 43.9361 L1484.44 43.9361 L1484.44 43.2069 Q1484.44 38.0623 1481.04 35.2672 Q1477.68 32.4315 1471.56 32.4315 Q1467.67 32.4315 1463.99 33.3632 Q1460.3 34.295 1456.9 36.1584 L1456.9 29.2718 Q1460.99 27.692 1464.84 26.9223 Q1468.69 26.1121 1472.33 26.1121 Q1482.18 26.1121 1487.04 31.2163 Q1491.9 36.3204 1491.9 46.6907 Z" fill="#000000" fill-rule="nonzero" fill-opacity="1"></path><path clip-path="url(#clip310)" d="M1536.17 28.5427 L1536.17 35.5912 Q1533.01 33.9709 1529.61 33.1607 Q1526.21 32.3505 1522.56 32.3505 Q1517.01 32.3505 1514.22 34.0519 Q1511.46 35.7533 1511.46 39.156 Q1511.46 41.7486 1513.45 43.2475 Q1515.43 44.7058 1521.43 46.0426 L1523.98 46.6097 Q1531.92 48.3111 1535.24 51.4303 Q1538.6 54.509 1538.6 60.0587 Q1538.6 66.3781 1533.58 70.0644 Q1528.6 73.7508 1519.85 73.7508 Q1516.2 73.7508 1512.23 73.0216 Q1508.3 72.3329 1503.93 70.9151 L1503.93 63.2184 Q1508.06 65.3654 1512.07 66.4591 Q1516.08 67.5124 1520.01 67.5124 Q1525.28 67.5124 1528.11 65.73 Q1530.95 63.9071 1530.95 60.6258 Q1530.95 57.5877 1528.88 55.9673 Q1526.86 54.3469 1519.93 52.8481 L1517.34 52.2405 Q1510.41 50.7821 1507.33 47.7845 Q1504.25 44.7463 1504.25 39.4801 Q1504.25 33.0797 1508.79 29.5959 Q1513.33 26.1121 1521.67 26.1121 Q1525.8 26.1121 1529.45 26.7198 Q1533.1 27.3274 1536.17 28.5427 Z" fill="#000000" fill-rule="nonzero" fill-opacity="1"></path><path clip-path="url(#clip310)" d="M1557.85 14.324 L1557.85 27.2059 L1573.2 27.2059 L1573.2 32.9987 L1557.85 32.9987 L1557.85 57.6282 Q1557.85 63.1779 1559.34 64.7578 Q1560.88 66.3376 1565.54 66.3376 L1573.2 66.3376 L1573.2 72.576 L1565.54 72.576 Q1556.91 72.576 1553.63 69.3758 Q1550.35 66.1351 1550.35 57.6282 L1550.35 32.9987 L1544.88 32.9987 L1544.88 27.2059 L1550.35 27.2059 L1550.35 14.324 L1557.85 14.324 Z" fill="#000000" fill-rule="nonzero" fill-opacity="1"></path><path clip-path="url(#clip310)" d="M1600.58 32.4315 Q1594.59 32.4315 1591.1 37.1306 Q1587.62 41.7891 1587.62 49.9314 Q1587.62 58.0738 1591.06 62.7728 Q1594.55 67.4314 1600.58 67.4314 Q1606.54 67.4314 1610.02 62.7323 Q1613.51 58.0333 1613.51 49.9314 Q1613.51 41.8701 1610.02 37.1711 Q1606.54 32.4315 1600.58 32.4315 M1600.58 26.1121 Q1610.31 26.1121 1615.86 32.4315 Q1621.4 38.7509 1621.4 49.9314 Q1621.4 61.0714 1615.86 67.4314 Q1610.31 73.7508 1600.58 73.7508 Q1590.82 73.7508 1585.27 67.4314 Q1579.76 61.0714 1579.76 49.9314 Q1579.76 38.7509 1585.27 32.4315 Q1590.82 26.1121 1600.58 26.1121 Z" fill="#000000" fill-rule="nonzero" fill-opacity="1"></path><path clip-path="url(#clip310)" d="M1631.53 46.5287 L1653.37 46.5287 L1653.37 53.1722 L1631.53 53.1722 L1631.53 46.5287 Z" fill="#000000" fill-rule="nonzero" fill-opacity="1"></path><path clip-path="url(#clip310)" d="M1672.45 65.7705 L1672.45 89.8329 L1664.95 89.8329 L1664.95 27.2059 L1672.45 27.2059 L1672.45 34.0924 Q1674.8 30.0415 1678.36 28.0971 Q1681.97 26.1121 1686.95 26.1121 Q1695.21 26.1121 1700.36 32.6746 Q1705.54 39.2371 1705.54 49.9314 Q1705.54 60.6258 1700.36 67.1883 Q1695.21 73.7508 1686.95 73.7508 Q1681.97 73.7508 1678.36 71.8063 Q1674.8 69.8214 1672.45 65.7705 M1697.8 49.9314 Q1697.8 41.7081 1694.4 37.0496 Q1691.04 32.3505 1685.13 32.3505 Q1679.21 32.3505 1675.81 37.0496 Q1672.45 41.7081 1672.45 49.9314 Q1672.45 58.1548 1675.81 62.8538 Q1679.21 67.5124 1685.13 67.5124 Q1691.04 67.5124 1694.4 62.8538 Q1697.8 58.1548 1697.8 49.9314 Z" fill="#000000" fill-rule="nonzero" fill-opacity="1"></path><path clip-path="url(#clip310)" d="M1717.9 9.54393 L1725.35 9.54393 L1725.35 72.576 L1717.9 72.576 L1717.9 9.54393 Z" fill="#000000" fill-rule="nonzero" fill-opacity="1"></path><path clip-path="url(#clip310)" d="M1761.57 49.7694 Q1752.53 49.7694 1749.05 51.8354 Q1745.56 53.9013 1745.56 58.8839 Q1745.56 62.8538 1748.16 65.2034 Q1750.79 67.5124 1755.29 67.5124 Q1761.49 67.5124 1765.21 63.1374 Q1768.98 58.7219 1768.98 51.4303 L1768.98 49.7694 L1761.57 49.7694 M1776.43 46.6907 L1776.43 72.576 L1768.98 72.576 L1768.98 65.6895 Q1766.43 69.8214 1762.62 71.8063 Q1758.81 73.7508 1753.3 73.7508 Q1746.33 73.7508 1742.2 69.8619 Q1738.11 65.9325 1738.11 59.3701 Q1738.11 51.7138 1743.22 47.825 Q1748.36 43.9361 1758.53 43.9361 L1768.98 43.9361 L1768.98 43.2069 Q1768.98 38.0623 1765.58 35.2672 Q1762.21 32.4315 1756.1 32.4315 Q1752.21 32.4315 1748.52 33.3632 Q1744.84 34.295 1741.43 36.1584 L1741.43 29.2718 Q1745.52 27.692 1749.37 26.9223 Q1753.22 26.1121 1756.87 26.1121 Q1766.71 26.1121 1771.57 31.2163 Q1776.43 36.3204 1776.43 46.6907 Z" fill="#000000" fill-rule="nonzero" fill-opacity="1"></path><path clip-path="url(#clip310)" d="M1820.71 28.5427 L1820.71 35.5912 Q1817.55 33.9709 1814.15 33.1607 Q1810.74 32.3505 1807.1 32.3505 Q1801.55 32.3505 1798.75 34.0519 Q1796 35.7533 1796 39.156 Q1796 41.7486 1797.98 43.2475 Q1799.97 44.7058 1805.96 46.0426 L1808.52 46.6097 Q1816.46 48.3111 1819.78 51.4303 Q1823.14 54.509 1823.14 60.0587 Q1823.14 66.3781 1818.12 70.0644 Q1813.13 73.7508 1804.38 73.7508 Q1800.74 73.7508 1796.77 73.0216 Q1792.84 72.3329 1788.46 70.9151 L1788.46 63.2184 Q1792.6 65.3654 1796.61 66.4591 Q1800.62 67.5124 1804.55 67.5124 Q1809.81 67.5124 1812.65 65.73 Q1815.48 63.9071 1815.48 60.6258 Q1815.48 57.5877 1813.42 55.9673 Q1811.39 54.3469 1804.47 52.8481 L1801.87 52.2405 Q1794.95 50.7821 1791.87 47.7845 Q1788.79 44.7463 1788.79 39.4801 Q1788.79 33.0797 1793.33 29.5959 Q1797.86 26.1121 1806.21 26.1121 Q1810.34 26.1121 1813.98 26.7198 Q1817.63 27.3274 1820.71 28.5427 Z" fill="#000000" fill-rule="nonzero" fill-opacity="1"></path><path clip-path="url(#clip310)" d="M1842.38 14.324 L1842.38 27.2059 L1857.73 27.2059 L1857.73 32.9987 L1842.38 32.9987 L1842.38 57.6282 Q1842.38 63.1779 1843.88 64.7578 Q1845.42 66.3376 1850.08 66.3376 L1857.73 66.3376 L1857.73 72.576 L1850.08 72.576 Q1841.45 72.576 1838.17 69.3758 Q1834.89 66.1351 1834.89 57.6282 L1834.89 32.9987 L1829.42 32.9987 L1829.42 27.2059 L1834.89 27.2059 L1834.89 14.324 L1842.38 14.324 Z" fill="#000000" fill-rule="nonzero" fill-opacity="1"></path><path clip-path="url(#clip310)" d="M1867.54 27.2059 L1874.99 27.2059 L1874.99 72.576 L1867.54 72.576 L1867.54 27.2059 M1867.54 9.54393 L1874.99 9.54393 L1874.99 18.9825 L1867.54 18.9825 L1867.54 9.54393 Z" fill="#000000" fill-rule="nonzero" fill-opacity="1"></path><path clip-path="url(#clip310)" d="M1923.24 28.9478 L1923.24 35.9153 Q1920.08 34.1734 1916.88 33.3227 Q1913.72 32.4315 1910.48 32.4315 Q1903.23 32.4315 1899.22 37.0496 Q1895.21 41.6271 1895.21 49.9314 Q1895.21 58.2358 1899.22 62.8538 Q1903.23 67.4314 1910.48 67.4314 Q1913.72 67.4314 1916.88 66.5807 Q1920.08 65.6895 1923.24 63.9476 L1923.24 70.8341 Q1920.12 72.2924 1916.76 73.0216 Q1913.43 73.7508 1909.67 73.7508 Q1899.42 73.7508 1893.38 67.3098 Q1887.35 60.8689 1887.35 49.9314 Q1887.35 38.832 1893.42 32.472 Q1899.54 26.1121 1910.15 26.1121 Q1913.6 26.1121 1916.88 26.8413 Q1920.16 27.5299 1923.24 28.9478 Z" fill="#000000" fill-rule="nonzero" fill-opacity="1"></path><path clip-path="url(#clip310)" d="M1936.2 27.2059 L1943.65 27.2059 L1943.65 72.576 L1936.2 72.576 L1936.2 27.2059 M1936.2 9.54393 L1943.65 9.54393 L1943.65 18.9825 L1936.2 18.9825 L1936.2 9.54393 Z" fill="#000000" fill-rule="nonzero" fill-opacity="1"></path><path clip-path="url(#clip310)" d="M1966.62 14.324 L1966.62 27.2059 L1981.98 27.2059 L1981.98 32.9987 L1966.62 32.9987 L1966.62 57.6282 Q1966.62 63.1779 1968.12 64.7578 Q1969.66 66.3376 1974.32 66.3376 L1981.98 66.3376 L1981.98 72.576 L1974.32 72.576 Q1965.69 72.576 1962.41 69.3758 Q1959.13 66.1351 1959.13 57.6282 L1959.13 32.9987 L1953.66 32.9987 L1953.66 27.2059 L1959.13 27.2059 L1959.13 14.324 L1966.62 14.324 Z" fill="#000000" fill-rule="nonzero" fill-opacity="1"></path><path clip-path="url(#clip310)" d="M2010.66 76.7889 Q2007.5 84.8907 2004.5 87.3618 Q2001.5 89.8329 1996.48 89.8329 L1990.52 89.8329 L1990.52 83.5945 L1994.9 83.5945 Q1997.98 83.5945 1999.68 82.1361 Q2001.38 80.6778 2003.45 75.2496 L2004.78 71.8468 L1986.43 27.2059 L1994.33 27.2059 L2008.51 62.6918 L2022.69 27.2059 L2030.59 27.2059 L2010.66 76.7889 Z" fill="#000000" fill-rule="nonzero" fill-opacity="1"></path><polyline clip-path="url(#clip312)" style="stroke:#009af9; stroke-linecap:round; stroke-linejoin:round; stroke-width:4; stroke-opacity:1; fill:none" points="273.033,160.256 946.083,213.229 1619.13,265.426 2292.18,317.055 "></polyline>
<circle clip-path="url(#clip312)" cx="273.033" cy="160.256" r="14.4" fill="#009af9" fill-rule="evenodd" fill-opacity="1" stroke="#000000" stroke-opacity="1" stroke-width="3.2"></circle>
<circle clip-path="url(#clip312)" cx="946.083" cy="213.229" r="14.4" fill="#009af9" fill-rule="evenodd" fill-opacity="1" stroke="#000000" stroke-opacity="1" stroke-width="3.2"></circle>
<circle clip-path="url(#clip312)" cx="1619.13" cy="265.426" r="14.4" fill="#009af9" fill-rule="evenodd" fill-opacity="1" stroke="#000000" stroke-opacity="1" stroke-width="3.2"></circle>
<circle clip-path="url(#clip312)" cx="2292.18" cy="317.055" r="14.4" fill="#009af9" fill-rule="evenodd" fill-opacity="1" stroke="#000000" stroke-opacity="1" stroke-width="3.2"></circle>
<polyline clip-path="url(#clip312)" style="stroke:#e26f46; stroke-linecap:round; stroke-linejoin:round; stroke-width:4; stroke-opacity:1; fill:none" points="273.033,375.271 946.083,474.416 1619.13,577.156 2292.18,681.389 "></polyline>
<circle clip-path="url(#clip312)" cx="273.033" cy="375.271" r="14.4" fill="#e26f46" fill-rule="evenodd" fill-opacity="1" stroke="#000000" stroke-opacity="1" stroke-width="3.2"></circle>
<circle clip-path="url(#clip312)" cx="946.083" cy="474.416" r="14.4" fill="#e26f46" fill-rule="evenodd" fill-opacity="1" stroke="#000000" stroke-opacity="1" stroke-width="3.2"></circle>
<circle clip-path="url(#clip312)" cx="1619.13" cy="577.156" r="14.4" fill="#e26f46" fill-rule="evenodd" fill-opacity="1" stroke="#000000" stroke-opacity="1" stroke-width="3.2"></circle>
<circle clip-path="url(#clip312)" cx="2292.18" cy="681.389" r="14.4" fill="#e26f46" fill-rule="evenodd" fill-opacity="1" stroke="#000000" stroke-opacity="1" stroke-width="3.2"></circle>
<polyline clip-path="url(#clip312)" style="stroke:#3da44d; stroke-linecap:round; stroke-linejoin:round; stroke-width:4; stroke-opacity:1; fill:none" points="273.033,568.402 946.083,722.351 1619.13,878.881 2292.18,1036.35 "></polyline>
<circle clip-path="url(#clip312)" cx="273.033" cy="568.402" r="14.4" fill="#3da44d" fill-rule="evenodd" fill-opacity="1" stroke="#000000" stroke-opacity="1" stroke-width="3.2"></circle>
<circle clip-path="url(#clip312)" cx="946.083" cy="722.351" r="14.4" fill="#3da44d" fill-rule="evenodd" fill-opacity="1" stroke="#000000" stroke-opacity="1" stroke-width="3.2"></circle>
<circle clip-path="url(#clip312)" cx="1619.13" cy="878.881" r="14.4" fill="#3da44d" fill-rule="evenodd" fill-opacity="1" stroke="#000000" stroke-opacity="1" stroke-width="3.2"></circle>
<circle clip-path="url(#clip312)" cx="2292.18" cy="1036.35" r="14.4" fill="#3da44d" fill-rule="evenodd" fill-opacity="1" stroke="#000000" stroke-opacity="1" stroke-width="3.2"></circle>
<polyline clip-path="url(#clip312)" style="stroke:#c271d2; stroke-linecap:round; stroke-linejoin:round; stroke-width:4; stroke-opacity:1; fill:none" points="273.033,756.478 946.083,965.509 1619.13,1175.72 2292.18,1386.4 "></polyline>
<circle clip-path="url(#clip312)" cx="273.033" cy="756.478" r="14.4" fill="#c271d2" fill-rule="evenodd" fill-opacity="1" stroke="#000000" stroke-opacity="1" stroke-width="3.2"></circle>
<circle clip-path="url(#clip312)" cx="946.083" cy="965.509" r="14.4" fill="#c271d2" fill-rule="evenodd" fill-opacity="1" stroke="#000000" stroke-opacity="1" stroke-width="3.2"></circle>
<circle clip-path="url(#clip312)" cx="1619.13" cy="1175.72" r="14.4" fill="#c271d2" fill-rule="evenodd" fill-opacity="1" stroke="#000000" stroke-opacity="1" stroke-width="3.2"></circle>
<circle clip-path="url(#clip312)" cx="2292.18" cy="1386.4" r="14.4" fill="#c271d2" fill-rule="evenodd" fill-opacity="1" stroke="#000000" stroke-opacity="1" stroke-width="3.2"></circle>
<path clip-path="url(#clip310)" d="M283.802 1379.86 L616.975 1379.86 L616.975 1120.66 L283.802 1120.66  Z" fill="#ffffff" fill-rule="evenodd" fill-opacity="1"></path>
<polyline clip-path="url(#clip310)" style="stroke:#000000; stroke-linecap:round; stroke-linejoin:round; stroke-width:4; stroke-opacity:1; fill:none" points="283.802,1379.86 616.975,1379.86 616.975,1120.66 283.802,1120.66 283.802,1379.86 "></polyline>
<polyline clip-path="url(#clip310)" style="stroke:#009af9; stroke-linecap:round; stroke-linejoin:round; stroke-width:4; stroke-opacity:1; fill:none" points="307.583,1172.5 450.27,1172.5 "></polyline>
<circle clip-path="url(#clip310)" cx="378.926" cy="1172.5" r="19.8176" fill="#009af9" fill-rule="evenodd" fill-opacity="1" stroke="#000000" stroke-opacity="1" stroke-width="4.55111"></circle>
<path clip-path="url(#clip310)" d="M478.727 1173.27 L478.727 1185.93 L486.227 1185.93 Q490 1185.93 491.805 1184.38 Q493.634 1182.81 493.634 1179.59 Q493.634 1176.35 491.805 1174.82 Q490 1173.27 486.227 1173.27 L478.727 1173.27 M478.727 1159.06 L478.727 1169.48 L485.648 1169.48 Q489.074 1169.48 490.74 1168.2 Q492.43 1166.91 492.43 1164.27 Q492.43 1161.65 490.74 1160.36 Q489.074 1159.06 485.648 1159.06 L478.727 1159.06 M474.051 1155.22 L485.995 1155.22 Q491.342 1155.22 494.236 1157.44 Q497.129 1159.66 497.129 1163.76 Q497.129 1166.93 495.648 1168.8 Q494.166 1170.68 491.296 1171.14 Q494.745 1171.88 496.643 1174.24 Q498.565 1176.58 498.565 1180.1 Q498.565 1184.73 495.416 1187.25 Q492.268 1189.78 486.458 1189.78 L474.051 1189.78 L474.051 1155.22 Z" fill="#000000" fill-rule="nonzero" fill-opacity="1"></path><path clip-path="url(#clip310)" d="M511.25 1159.06 L511.25 1185.93 L516.898 1185.93 Q524.05 1185.93 527.361 1182.69 Q530.694 1179.45 530.694 1172.46 Q530.694 1165.52 527.361 1162.3 Q524.05 1159.06 516.898 1159.06 L511.25 1159.06 M506.574 1155.22 L516.18 1155.22 Q526.226 1155.22 530.925 1159.41 Q535.624 1163.57 535.624 1172.46 Q535.624 1181.4 530.902 1185.59 Q526.18 1189.78 516.18 1189.78 L506.574 1189.78 L506.574 1155.22 Z" fill="#000000" fill-rule="nonzero" fill-opacity="1"></path><path clip-path="url(#clip310)" d="M543.078 1155.22 L562.939 1155.22 L562.939 1159.15 L547.754 1159.15 L547.754 1169.34 L561.458 1169.34 L561.458 1173.27 L547.754 1173.27 L547.754 1189.78 L543.078 1189.78 L543.078 1155.22 Z" fill="#000000" fill-rule="nonzero" fill-opacity="1"></path><path clip-path="url(#clip310)" d="M571.573 1185.84 L579.212 1185.84 L579.212 1159.48 L570.902 1161.14 L570.902 1156.88 L579.166 1155.22 L583.842 1155.22 L583.842 1185.84 L591.481 1185.84 L591.481 1189.78 L571.573 1189.78 L571.573 1185.84 Z" fill="#000000" fill-rule="nonzero" fill-opacity="1"></path><polyline clip-path="url(#clip310)" style="stroke:#e26f46; stroke-linecap:round; stroke-linejoin:round; stroke-width:4; stroke-opacity:1; fill:none" points="307.583,1224.34 450.27,1224.34 "></polyline>
<circle clip-path="url(#clip310)" cx="378.926" cy="1224.34" r="19.8176" fill="#e26f46" fill-rule="evenodd" fill-opacity="1" stroke="#000000" stroke-opacity="1" stroke-width="4.55111"></circle>
<path clip-path="url(#clip310)" d="M478.727 1225.11 L478.727 1237.77 L486.227 1237.77 Q490 1237.77 491.805 1236.22 Q493.634 1234.65 493.634 1231.43 Q493.634 1228.19 491.805 1226.66 Q490 1225.11 486.227 1225.11 L478.727 1225.11 M478.727 1210.9 L478.727 1221.32 L485.648 1221.32 Q489.074 1221.32 490.74 1220.04 Q492.43 1218.75 492.43 1216.11 Q492.43 1213.49 490.74 1212.2 Q489.074 1210.9 485.648 1210.9 L478.727 1210.9 M474.051 1207.06 L485.995 1207.06 Q491.342 1207.06 494.236 1209.28 Q497.129 1211.5 497.129 1215.6 Q497.129 1218.77 495.648 1220.64 Q494.166 1222.52 491.296 1222.98 Q494.745 1223.72 496.643 1226.08 Q498.565 1228.42 498.565 1231.94 Q498.565 1236.57 495.416 1239.09 Q492.268 1241.62 486.458 1241.62 L474.051 1241.62 L474.051 1207.06 Z" fill="#000000" fill-rule="nonzero" fill-opacity="1"></path><path clip-path="url(#clip310)" d="M511.25 1210.9 L511.25 1237.77 L516.898 1237.77 Q524.05 1237.77 527.361 1234.53 Q530.694 1231.29 530.694 1224.3 Q530.694 1217.36 527.361 1214.14 Q524.05 1210.9 516.898 1210.9 L511.25 1210.9 M506.574 1207.06 L516.18 1207.06 Q526.226 1207.06 530.925 1211.25 Q535.624 1215.41 535.624 1224.3 Q535.624 1233.24 530.902 1237.43 Q526.18 1241.62 516.18 1241.62 L506.574 1241.62 L506.574 1207.06 Z" fill="#000000" fill-rule="nonzero" fill-opacity="1"></path><path clip-path="url(#clip310)" d="M543.078 1207.06 L562.939 1207.06 L562.939 1210.99 L547.754 1210.99 L547.754 1221.18 L561.458 1221.18 L561.458 1225.11 L547.754 1225.11 L547.754 1241.62 L543.078 1241.62 L543.078 1207.06 Z" fill="#000000" fill-rule="nonzero" fill-opacity="1"></path><path clip-path="url(#clip310)" d="M574.791 1237.68 L591.11 1237.68 L591.11 1241.62 L569.166 1241.62 L569.166 1237.68 Q571.828 1234.93 576.411 1230.3 Q581.018 1225.64 582.198 1224.3 Q584.444 1221.78 585.323 1220.04 Q586.226 1218.28 586.226 1216.59 Q586.226 1213.84 584.282 1212.1 Q582.36 1210.37 579.259 1210.37 Q577.059 1210.37 574.606 1211.13 Q572.175 1211.89 569.397 1213.45 L569.397 1208.72 Q572.222 1207.59 574.675 1207.01 Q577.129 1206.43 579.166 1206.43 Q584.536 1206.43 587.731 1209.12 Q590.925 1211.8 590.925 1216.29 Q590.925 1218.42 590.115 1220.34 Q589.328 1222.24 587.221 1224.83 Q586.643 1225.51 583.541 1228.72 Q580.439 1231.92 574.791 1237.68 Z" fill="#000000" fill-rule="nonzero" fill-opacity="1"></path><polyline clip-path="url(#clip310)" style="stroke:#3da44d; stroke-linecap:round; stroke-linejoin:round; stroke-width:4; stroke-opacity:1; fill:none" points="307.583,1276.18 450.27,1276.18 "></polyline>
<circle clip-path="url(#clip310)" cx="378.926" cy="1276.18" r="19.8176" fill="#3da44d" fill-rule="evenodd" fill-opacity="1" stroke="#000000" stroke-opacity="1" stroke-width="4.55111"></circle>
<path clip-path="url(#clip310)" d="M478.727 1276.95 L478.727 1289.61 L486.227 1289.61 Q490 1289.61 491.805 1288.06 Q493.634 1286.49 493.634 1283.27 Q493.634 1280.03 491.805 1278.5 Q490 1276.95 486.227 1276.95 L478.727 1276.95 M478.727 1262.74 L478.727 1273.16 L485.648 1273.16 Q489.074 1273.16 490.74 1271.88 Q492.43 1270.59 492.43 1267.95 Q492.43 1265.33 490.74 1264.04 Q489.074 1262.74 485.648 1262.74 L478.727 1262.74 M474.051 1258.9 L485.995 1258.9 Q491.342 1258.9 494.236 1261.12 Q497.129 1263.34 497.129 1267.44 Q497.129 1270.61 495.648 1272.48 Q494.166 1274.36 491.296 1274.82 Q494.745 1275.56 496.643 1277.92 Q498.565 1280.26 498.565 1283.78 Q498.565 1288.41 495.416 1290.93 Q492.268 1293.46 486.458 1293.46 L474.051 1293.46 L474.051 1258.9 Z" fill="#000000" fill-rule="nonzero" fill-opacity="1"></path><path clip-path="url(#clip310)" d="M511.25 1262.74 L511.25 1289.61 L516.898 1289.61 Q524.05 1289.61 527.361 1286.37 Q530.694 1283.13 530.694 1276.14 Q530.694 1269.2 527.361 1265.98 Q524.05 1262.74 516.898 1262.74 L511.25 1262.74 M506.574 1258.9 L516.18 1258.9 Q526.226 1258.9 530.925 1263.09 Q535.624 1267.25 535.624 1276.14 Q535.624 1285.08 530.902 1289.27 Q526.18 1293.46 516.18 1293.46 L506.574 1293.46 L506.574 1258.9 Z" fill="#000000" fill-rule="nonzero" fill-opacity="1"></path><path clip-path="url(#clip310)" d="M543.078 1258.9 L562.939 1258.9 L562.939 1262.83 L547.754 1262.83 L547.754 1273.02 L561.458 1273.02 L561.458 1276.95 L547.754 1276.95 L547.754 1293.46 L543.078 1293.46 L543.078 1258.9 Z" fill="#000000" fill-rule="nonzero" fill-opacity="1"></path><path clip-path="url(#clip310)" d="M584.93 1274.82 Q588.286 1275.54 590.161 1277.81 Q592.059 1280.08 592.059 1283.41 Q592.059 1288.53 588.541 1291.33 Q585.022 1294.13 578.541 1294.13 Q576.365 1294.13 574.05 1293.69 Q571.759 1293.27 569.305 1292.41 L569.305 1287.9 Q571.249 1289.03 573.564 1289.61 Q575.879 1290.19 578.402 1290.19 Q582.8 1290.19 585.092 1288.46 Q587.407 1286.72 587.407 1283.41 Q587.407 1280.35 585.254 1278.64 Q583.124 1276.91 579.305 1276.91 L575.277 1276.91 L575.277 1273.06 L579.49 1273.06 Q582.939 1273.06 584.768 1271.7 Q586.596 1270.31 586.596 1267.72 Q586.596 1265.05 584.698 1263.64 Q582.823 1262.21 579.305 1262.21 Q577.384 1262.21 575.184 1262.62 Q572.985 1263.04 570.347 1263.92 L570.347 1259.75 Q573.009 1259.01 575.323 1258.64 Q577.661 1258.27 579.721 1258.27 Q585.046 1258.27 588.147 1260.7 Q591.249 1263.11 591.249 1267.23 Q591.249 1270.1 589.606 1272.09 Q587.962 1274.06 584.93 1274.82 Z" fill="#000000" fill-rule="nonzero" fill-opacity="1"></path><polyline clip-path="url(#clip310)" style="stroke:#c271d2; stroke-linecap:round; stroke-linejoin:round; stroke-width:4; stroke-opacity:1; fill:none" points="307.583,1328.02 450.27,1328.02 "></polyline>
<circle clip-path="url(#clip310)" cx="378.926" cy="1328.02" r="19.8176" fill="#c271d2" fill-rule="evenodd" fill-opacity="1" stroke="#000000" stroke-opacity="1" stroke-width="4.55111"></circle>
<path clip-path="url(#clip310)" d="M478.727 1328.79 L478.727 1341.45 L486.227 1341.45 Q490 1341.45 491.805 1339.9 Q493.634 1338.33 493.634 1335.11 Q493.634 1331.87 491.805 1330.34 Q490 1328.79 486.227 1328.79 L478.727 1328.79 M478.727 1314.58 L478.727 1325 L485.648 1325 Q489.074 1325 490.74 1323.72 Q492.43 1322.43 492.43 1319.79 Q492.43 1317.17 490.74 1315.88 Q489.074 1314.58 485.648 1314.58 L478.727 1314.58 M474.051 1310.74 L485.995 1310.74 Q491.342 1310.74 494.236 1312.96 Q497.129 1315.18 497.129 1319.28 Q497.129 1322.45 495.648 1324.32 Q494.166 1326.2 491.296 1326.66 Q494.745 1327.4 496.643 1329.76 Q498.565 1332.1 498.565 1335.62 Q498.565 1340.25 495.416 1342.77 Q492.268 1345.3 486.458 1345.3 L474.051 1345.3 L474.051 1310.74 Z" fill="#000000" fill-rule="nonzero" fill-opacity="1"></path><path clip-path="url(#clip310)" d="M511.25 1314.58 L511.25 1341.45 L516.898 1341.45 Q524.05 1341.45 527.361 1338.21 Q530.694 1334.97 530.694 1327.98 Q530.694 1321.04 527.361 1317.82 Q524.05 1314.58 516.898 1314.58 L511.25 1314.58 M506.574 1310.74 L516.18 1310.74 Q526.226 1310.74 530.925 1314.93 Q535.624 1319.09 535.624 1327.98 Q535.624 1336.92 530.902 1341.11 Q526.18 1345.3 516.18 1345.3 L506.574 1345.3 L506.574 1310.74 Z" fill="#000000" fill-rule="nonzero" fill-opacity="1"></path><path clip-path="url(#clip310)" d="M543.078 1310.74 L562.939 1310.74 L562.939 1314.67 L547.754 1314.67 L547.754 1324.86 L561.458 1324.86 L561.458 1328.79 L547.754 1328.79 L547.754 1345.3 L543.078 1345.3 L543.078 1310.74 Z" fill="#000000" fill-rule="nonzero" fill-opacity="1"></path><path clip-path="url(#clip310)" d="M583.61 1314.81 L571.805 1333.26 L583.61 1333.26 L583.61 1314.81 M582.384 1310.74 L588.263 1310.74 L588.263 1333.26 L593.194 1333.26 L593.194 1337.15 L588.263 1337.15 L588.263 1345.3 L583.61 1345.3 L583.61 1337.15 L568.009 1337.15 L568.009 1332.63 L582.384 1310.74 Z" fill="#000000" fill-rule="nonzero" fill-opacity="1"></path></svg>