<svg xmlns="http://www.w3.org/2000/svg" xmlns:xlink="http://www.w3.org/1999/xlink" width="600" height="400" viewBox="0 0 2400 1600">
<defs>
  <clipPath id="clip710">
    <rect x="0" y="0" width="2400" height="1600"></rect>
  </clipPath>
</defs>
<path clip-path="url(#clip710)" d="M0 1600 L2400 1600 L2400 8.88178e-14 L0 8.88178e-14  Z" fill="#ffffff" fill-rule="evenodd" fill-opacity="1"></path>
<defs>
  <clipPath id="clip711">
    <rect x="480" y="0" width="1681" height="1600"></rect>
  </clipPath>
</defs>
<path clip-path="url(#clip710)" d="M205.121 1423.18 L2352.76 1423.18 L2352.76 123.472 L205.121 123.472  Z" fill="#ffffff" fill-rule="evenodd" fill-opacity="1"></path>
<defs>
  <clipPath id="clip712">
    <rect x="205" y="123" width="2149" height="1301"></rect>
  </clipPath>
</defs>
<polyline clip-path="url(#clip712)" style="stroke:#000000; stroke-linecap:round; stroke-linejoin:round; stroke-width:2; stroke-opacity:0.1; fill:none" points="263.367,1423.18 263.367,123.472 "></polyline>
<polyline clip-path="url(#clip712)" style="stroke:#000000; stroke-linecap:round; stroke-linejoin:round; stroke-width:2; stroke-opacity:0.1; fill:none" points="770.519,1423.18 770.519,123.472 "></polyline>
<polyline clip-path="url(#clip712)" style="stroke:#000000; stroke-linecap:round; stroke-linejoin:round; stroke-width:2; stroke-opacity:0.1; fill:none" points="1277.67,1423.18 1277.67,123.472 "></polyline>
<polyline clip-path="url(#clip712)" style="stroke:#000000; stroke-linecap:round; stroke-linejoin:round; stroke-width:2; stroke-opacity:0.1; fill:none" points="1784.82,1423.18 1784.82,123.472 "></polyline>
<polyline clip-path="url(#clip712)" style="stroke:#000000; stroke-linecap:round; stroke-linejoin:round; stroke-width:2; stroke-opacity:0.1; fill:none" points="2291.97,1423.18 2291.97,123.472 "></polyline>
<polyline clip-path="url(#clip712)" style="stroke:#000000; stroke-linecap:round; stroke-linejoin:round; stroke-width:2; stroke-opacity:0.1; fill:none" points="205.121,1392.55 2352.76,1392.55 "></polyline>
<polyline clip-path="url(#clip712)" style="stroke:#000000; stroke-linecap:round; stroke-linejoin:round; stroke-width:2; stroke-opacity:0.1; fill:none" points="205.121,1146.09 2352.76,1146.09 "></polyline>
<polyline clip-path="url(#clip712)" style="stroke:#000000; stroke-linecap:round; stroke-linejoin:round; stroke-width:2; stroke-opacity:0.1; fill:none" points="205.121,899.632 2352.76,899.632 "></polyline>
<polyline clip-path="url(#clip712)" style="stroke:#000000; stroke-linecap:round; stroke-linejoin:round; stroke-width:2; stroke-opacity:0.1; fill:none" points="205.121,653.174 2352.76,653.174 "></polyline>
<polyline clip-path="url(#clip712)" style="stroke:#000000; stroke-linecap:round; stroke-linejoin:round; stroke-width:2; stroke-opacity:0.1; fill:none" points="205.121,406.715 2352.76,406.715 "></polyline>
<polyline clip-path="url(#clip712)" style="stroke:#000000; stroke-linecap:round; stroke-linejoin:round; stroke-width:2; stroke-opacity:0.1; fill:none" points="205.121,160.256 2352.76,160.256 "></polyline>
<polyline clip-path="url(#clip710)" style="stroke:#000000; stroke-linecap:round; stroke-linejoin:round; stroke-width:4; stroke-opacity:1; fill:none" points="205.121,1423.18 2352.76,1423.18 "></polyline>
<polyline clip-path="url(#clip710)" style="stroke:#000000; stroke-linecap:round; stroke-linejoin:round; stroke-width:4; stroke-opacity:1; fill:none" points="263.367,1423.18 263.367,1404.28 "></polyline>
<polyline clip-path="url(#clip710)" style="stroke:#000000; stroke-linecap:round; stroke-linejoin:round; stroke-width:4; stroke-opacity:1; fill:none" points="770.519,1423.18 770.519,1404.28 "></polyline>
<polyline clip-path="url(#clip710)" style="stroke:#000000; stroke-linecap:round; stroke-linejoin:round; stroke-width:4; stroke-opacity:1; fill:none" points="1277.67,1423.18 1277.67,1404.28 "></polyline>
<polyline clip-path="url(#clip710)" style="stroke:#000000; stroke-linecap:round; stroke-linejoin:round; stroke-width:4; stroke-opacity:1; fill:none" points="1784.82,1423.18 1784.82,1404.28 "></polyline>
<polyline clip-path="url(#clip710)" style="stroke:#000000; stroke-linecap:round; stroke-linejoin:round; stroke-width:4; stroke-opacity:1; fill:none" points="2291.97,1423.18 2291.97,1404.28 "></polyline>
<path clip-path="url(#clip710)" d="M263.367 1454.1 Q259.756 1454.1 257.928 1457.66 Q256.122 1461.2 256.122 1468.33 Q256.122 1475.44 257.928 1479.01 Q259.756 1482.55 263.367 1482.55 Q267.002 1482.55 268.807 1479.01 Q270.636 1475.44 270.636 1468.33 Q270.636 1461.2 268.807 1457.66 Q267.002 1454.1 263.367 1454.1 M263.367 1450.39 Q269.177 1450.39 272.233 1455 Q275.312 1459.58 275.312 1468.33 Q275.312 1477.06 272.233 1481.67 Q269.177 1486.25 263.367 1486.25 Q257.557 1486.25 254.478 1481.67 Q251.423 1477.06 251.423 1468.33 Q251.423 1459.58 254.478 1455 Q257.557 1450.39 263.367 1450.39 Z" fill="#000000" fill-rule="nonzero" fill-opacity="1"></path><path clip-path="url(#clip710)" d="M749.79 1481.64 L766.109 1481.64 L766.109 1485.58 L744.165 1485.58 L744.165 1481.64 Q746.827 1478.89 751.41 1474.26 Q756.017 1469.61 757.197 1468.27 Q759.443 1465.74 760.322 1464.01 Q761.225 1462.25 761.225 1460.56 Q761.225 1457.8 759.281 1456.07 Q757.359 1454.33 754.257 1454.33 Q752.058 1454.33 749.605 1455.09 Q747.174 1455.86 744.396 1457.41 L744.396 1452.69 Q747.22 1451.55 749.674 1450.97 Q752.128 1450.39 754.165 1450.39 Q759.535 1450.39 762.73 1453.08 Q765.924 1455.77 765.924 1460.26 Q765.924 1462.39 765.114 1464.31 Q764.327 1466.2 762.22 1468.8 Q761.642 1469.47 758.54 1472.69 Q755.438 1475.88 749.79 1481.64 Z" fill="#000000" fill-rule="nonzero" fill-opacity="1"></path><path clip-path="url(#clip710)" d="M775.97 1451.02 L794.327 1451.02 L794.327 1454.96 L780.253 1454.96 L780.253 1463.43 Q781.271 1463.08 782.29 1462.92 Q783.308 1462.73 784.327 1462.73 Q790.114 1462.73 793.493 1465.9 Q796.873 1469.08 796.873 1474.49 Q796.873 1480.07 793.401 1483.17 Q789.929 1486.25 783.609 1486.25 Q781.433 1486.25 779.165 1485.88 Q776.919 1485.51 774.512 1484.77 L774.512 1480.07 Q776.595 1481.2 778.818 1481.76 Q781.04 1482.32 783.517 1482.32 Q787.521 1482.32 789.859 1480.21 Q792.197 1478.1 792.197 1474.49 Q792.197 1470.88 789.859 1468.77 Q787.521 1466.67 783.517 1466.67 Q781.642 1466.67 779.767 1467.08 Q777.915 1467.5 775.97 1468.38 L775.97 1451.02 Z" fill="#000000" fill-rule="nonzero" fill-opacity="1"></path><path clip-path="url(#clip710)" d="M1252.37 1451.02 L1270.73 1451.02 L1270.73 1454.96 L1256.65 1454.96 L1256.65 1463.43 Q1257.67 1463.08 1258.69 1462.92 Q1259.71 1462.73 1260.73 1462.73 Q1266.51 1462.73 1269.89 1465.9 Q1273.27 1469.08 1273.27 1474.49 Q1273.27 1480.07 1269.8 1483.17 Q1266.33 1486.25 1260.01 1486.25 Q1257.83 1486.25 1255.56 1485.88 Q1253.32 1485.51 1250.91 1484.77 L1250.91 1480.07 Q1252.99 1481.2 1255.22 1481.76 Q1257.44 1482.32 1259.92 1482.32 Q1263.92 1482.32 1266.26 1480.21 Q1268.6 1478.1 1268.6 1474.49 Q1268.6 1470.88 1266.26 1468.77 Q1263.92 1466.67 1259.92 1466.67 Q1258.04 1466.67 1256.17 1467.08 Q1254.31 1467.5 1252.37 1468.38 L1252.37 1451.02 Z" fill="#000000" fill-rule="nonzero" fill-opacity="1"></path><path clip-path="url(#clip710)" d="M1292.49 1454.1 Q1288.87 1454.1 1287.05 1457.66 Q1285.24 1461.2 1285.24 1468.33 Q1285.24 1475.44 1287.05 1479.01 Q1288.87 1482.55 1292.49 1482.55 Q1296.12 1482.55 1297.93 1479.01 Q1299.75 1475.44 1299.75 1468.33 Q1299.75 1461.2 1297.93 1457.66 Q1296.12 1454.1 1292.49 1454.1 M1292.49 1450.39 Q1298.3 1450.39 1301.35 1455 Q1304.43 1459.58 1304.43 1468.33 Q1304.43 1477.06 1301.35 1481.67 Q1298.3 1486.25 1292.49 1486.25 Q1286.68 1486.25 1283.6 1481.67 Q1280.54 1477.06 1280.54 1468.33 Q1280.54 1459.58 1283.6 1455 Q1286.68 1450.39 1292.49 1450.39 Z" fill="#000000" fill-rule="nonzero" fill-opacity="1"></path><path clip-path="url(#clip710)" d="M1758.68 1451.02 L1780.9 1451.02 L1780.9 1453.01 L1768.35 1485.58 L1763.47 1485.58 L1775.27 1454.96 L1758.68 1454.96 L1758.68 1451.02 Z" fill="#000000" fill-rule="nonzero" fill-opacity="1"></path><path clip-path="url(#clip710)" d="M1790.07 1451.02 L1808.42 1451.02 L1808.42 1454.96 L1794.35 1454.96 L1794.35 1463.43 Q1795.37 1463.08 1796.38 1462.92 Q1797.4 1462.73 1798.42 1462.73 Q1804.21 1462.73 1807.59 1465.9 Q1810.97 1469.08 1810.97 1474.49 Q1810.97 1480.07 1807.5 1483.17 Q1804.02 1486.25 1797.7 1486.25 Q1795.53 1486.25 1793.26 1485.88 Q1791.01 1485.51 1788.61 1484.77 L1788.61 1480.07 Q1790.69 1481.2 1792.91 1481.76 Q1795.13 1482.32 1797.61 1482.32 Q1801.62 1482.32 1803.95 1480.21 Q1806.29 1478.1 1806.29 1474.49 Q1806.29 1470.88 1803.95 1468.77 Q1801.62 1466.67 1797.61 1466.67 Q1795.74 1466.67 1793.86 1467.08 Q1792.01 1467.5 1790.07 1468.38 L1790.07 1451.02 Z" fill="#000000" fill-rule="nonzero" fill-opacity="1"></path><path clip-path="url(#clip710)" d="M2251.58 1481.64 L2259.22 1481.64 L2259.22 1455.28 L2250.91 1456.95 L2250.91 1452.69 L2259.17 1451.02 L2263.85 1451.02 L2263.85 1481.64 L2271.49 1481.64 L2271.49 1485.58 L2251.58 1485.58 L2251.58 1481.64 Z" fill="#000000" fill-rule="nonzero" fill-opacity="1"></path><path clip-path="url(#clip710)" d="M2290.93 1454.1 Q2287.32 1454.1 2285.49 1457.66 Q2283.69 1461.2 2283.69 1468.33 Q2283.69 1475.44 2285.49 1479.01 Q2287.32 1482.55 2290.93 1482.55 Q2294.57 1482.55 2296.37 1479.01 Q2298.2 1475.44 2298.2 1468.33 Q2298.2 1461.2 2296.37 1457.66 Q2294.57 1454.1 2290.93 1454.1 M2290.93 1450.39 Q2296.74 1450.39 2299.8 1455 Q2302.88 1459.58 2302.88 1468.33 Q2302.88 1477.06 2299.8 1481.67 Q2296.74 1486.25 2290.93 1486.25 Q2285.12 1486.25 2282.04 1481.67 Q2278.99 1477.06 2278.99 1468.33 Q2278.99 1459.58 2282.04 1455 Q2285.12 1450.39 2290.93 1450.39 Z" fill="#000000" fill-rule="nonzero" fill-opacity="1"></path><path clip-path="url(#clip710)" d="M2321.09 1454.1 Q2317.48 1454.1 2315.65 1457.66 Q2313.85 1461.2 2313.85 1468.33 Q2313.85 1475.44 2315.65 1479.01 Q2317.48 1482.55 2321.09 1482.55 Q2324.73 1482.55 2326.53 1479.01 Q2328.36 1475.44 2328.36 1468.33 Q2328.36 1461.2 2326.53 1457.66 Q2324.73 1454.1 2321.09 1454.1 M2321.09 1450.39 Q2326.9 1450.39 2329.96 1455 Q2333.04 1459.58 2333.04 1468.33 Q2333.04 1477.06 2329.96 1481.67 Q2326.9 1486.25 2321.09 1486.25 Q2315.28 1486.25 2312.21 1481.67 Q2309.15 1477.06 2309.15 1468.33 Q2309.15 1459.58 2312.21 1455 Q2315.28 1450.39 2321.09 1450.39 Z" fill="#000000" fill-rule="nonzero" fill-opacity="1"></path><path clip-path="url(#clip710)" d="M1200.82 1520.52 L1241.01 1520.52 L1241.01 1525.93 L1224.15 1525.93 L1224.15 1568.04 L1217.68 1568.04 L1217.68 1525.93 L1200.82 1525.93 L1200.82 1520.52 Z" fill="#000000" fill-rule="nonzero" fill-opacity="1"></path><path clip-path="url(#clip710)" d="M1244.96 1532.4 L1250.82 1532.4 L1250.82 1568.04 L1244.96 1568.04 L1244.96 1532.4 M1244.96 1518.52 L1250.82 1518.52 L1250.82 1525.93 L1244.96 1525.93 L1244.96 1518.52 Z" fill="#000000" fill-rule="nonzero" fill-opacity="1"></path><path clip-path="url(#clip710)" d="M1290.83 1539.24 Q1293.02 1535.29 1296.08 1533.41 Q1299.13 1531.54 1303.27 1531.54 Q1308.84 1531.54 1311.87 1535.45 Q1314.89 1539.33 1314.89 1546.53 L1314.89 1568.04 L1309 1568.04 L1309 1546.72 Q1309 1541.59 1307.19 1539.11 Q1305.37 1536.63 1301.65 1536.63 Q1297.1 1536.63 1294.45 1539.65 Q1291.81 1542.68 1291.81 1547.9 L1291.81 1568.04 L1285.92 1568.04 L1285.92 1546.72 Q1285.92 1541.56 1284.11 1539.11 Q1282.3 1536.63 1278.51 1536.63 Q1274.02 1536.63 1271.38 1539.68 Q1268.74 1542.71 1268.74 1547.9 L1268.74 1568.04 L1262.85 1568.04 L1262.85 1532.4 L1268.74 1532.4 L1268.74 1537.93 Q1270.74 1534.66 1273.54 1533.1 Q1276.34 1531.54 1280.2 1531.54 Q1284.08 1531.54 1286.78 1533.51 Q1289.52 1535.48 1290.83 1539.24 Z" fill="#000000" fill-rule="nonzero" fill-opacity="1"></path><path clip-path="url(#clip710)" d="M1357.06 1548.76 L1357.06 1551.62 L1330.13 1551.62 Q1330.52 1557.67 1333.76 1560.85 Q1337.04 1564 1342.87 1564 Q1346.24 1564 1349.39 1563.17 Q1352.57 1562.35 1355.69 1560.69 L1355.69 1566.23 Q1352.54 1567.57 1349.23 1568.27 Q1345.92 1568.97 1342.52 1568.97 Q1333.99 1568.97 1328.99 1564 Q1324.02 1559.04 1324.02 1550.57 Q1324.02 1541.82 1328.73 1536.69 Q1333.48 1531.54 1341.5 1531.54 Q1348.69 1531.54 1352.86 1536.18 Q1357.06 1540.8 1357.06 1548.76 M1351.21 1547.04 Q1351.14 1542.23 1348.5 1539.37 Q1345.89 1536.5 1341.56 1536.5 Q1336.66 1536.5 1333.7 1539.27 Q1330.77 1542.04 1330.33 1547.07 L1351.21 1547.04 Z" fill="#000000" fill-rule="nonzero" fill-opacity="1"></path><polyline clip-path="url(#clip710)" style="stroke:#000000; stroke-linecap:round; stroke-linejoin:round; stroke-width:4; stroke-opacity:1; fill:none" points="205.121,1423.18 205.121,123.472 "></polyline>
<polyline clip-path="url(#clip710)" style="stroke:#000000; stroke-linecap:round; stroke-linejoin:round; stroke-width:4; stroke-opacity:1; fill:none" points="205.121,1392.55 224.019,1392.55 "></polyline>
<polyline clip-path="url(#clip710)" style="stroke:#000000; stroke-linecap:round; stroke-linejoin:round; stroke-width:4; stroke-opacity:1; fill:none" points="205.121,1146.09 224.019,1146.09 "></polyline>
<polyline clip-path="url(#clip710)" style="stroke:#000000; stroke-linecap:round; stroke-linejoin:round; stroke-width:4; stroke-opacity:1; fill:none" points="205.121,899.632 224.019,899.632 "></polyline>
<polyline clip-path="url(#clip710)" style="stroke:#000000; stroke-linecap:round; stroke-linejoin:round; stroke-width:4; stroke-opacity:1; fill:none" points="205.121,653.174 224.019,653.174 "></polyline>
<polyline clip-path="url(#clip710)" style="stroke:#000000; stroke-linecap:round; stroke-linejoin:round; stroke-width:4; stroke-opacity:1; fill:none" points="205.121,406.715 224.019,406.715 "></polyline>
<polyline clip-path="url(#clip710)" style="stroke:#000000; stroke-linecap:round; stroke-linejoin:round; stroke-width:4; stroke-opacity:1; fill:none" points="205.121,160.256 224.019,160.256 "></polyline>
<path clip-path="url(#clip710)" d="M157.177 1378.35 Q153.566 1378.35 151.737 1381.91 Q149.931 1385.45 149.931 1392.58 Q149.931 1399.69 151.737 1403.26 Q153.566 1406.8 157.177 1406.8 Q160.811 1406.8 162.616 1403.26 Q164.445 1399.69 164.445 1392.58 Q164.445 1385.45 162.616 1381.91 Q160.811 1378.35 157.177 1378.35 M157.177 1374.64 Q162.987 1374.64 166.042 1379.25 Q169.121 1383.83 169.121 1392.58 Q169.121 1401.31 166.042 1405.92 Q162.987 1410.5 157.177 1410.5 Q151.366 1410.5 148.288 1405.92 Q145.232 1401.31 145.232 1392.58 Q145.232 1383.83 148.288 1379.25 Q151.366 1374.64 157.177 1374.64 Z" fill="#000000" fill-rule="nonzero" fill-opacity="1"></path><path clip-path="url(#clip710)" d="M117.825 1159.44 L125.464 1159.44 L125.464 1133.07 L117.154 1134.74 L117.154 1130.48 L125.418 1128.81 L130.093 1128.81 L130.093 1159.44 L137.732 1159.44 L137.732 1163.37 L117.825 1163.37 L117.825 1159.44 Z" fill="#000000" fill-rule="nonzero" fill-opacity="1"></path><path clip-path="url(#clip710)" d="M157.177 1131.89 Q153.566 1131.89 151.737 1135.45 Q149.931 1139 149.931 1146.13 Q149.931 1153.23 151.737 1156.8 Q153.566 1160.34 157.177 1160.34 Q160.811 1160.34 162.616 1156.8 Q164.445 1153.23 164.445 1146.13 Q164.445 1139 162.616 1135.45 Q160.811 1131.89 157.177 1131.89 M157.177 1128.19 Q162.987 1128.19 166.042 1132.79 Q169.121 1137.38 169.121 1146.13 Q169.121 1154.85 166.042 1159.46 Q162.987 1164.04 157.177 1164.04 Q151.366 1164.04 148.288 1159.46 Q145.232 1154.85 145.232 1146.13 Q145.232 1137.38 148.288 1132.79 Q151.366 1128.19 157.177 1128.19 Z" fill="#000000" fill-rule="nonzero" fill-opacity="1"></path><path clip-path="url(#clip710)" d="M121.043 912.977 L137.362 912.977 L137.362 916.912 L115.418 916.912 L115.418 912.977 Q118.08 910.222 122.663 905.593 Q127.269 900.94 128.45 899.597 Q130.695 897.074 131.575 895.338 Q132.478 893.579 132.478 891.889 Q132.478 889.135 130.533 887.398 Q128.612 885.662 125.51 885.662 Q123.311 885.662 120.857 886.426 Q118.427 887.19 115.649 888.741 L115.649 884.019 Q118.473 882.885 120.927 882.306 Q123.38 881.727 125.418 881.727 Q130.788 881.727 133.982 884.412 Q137.177 887.098 137.177 891.588 Q137.177 893.718 136.367 895.639 Q135.579 897.537 133.473 900.13 Q132.894 900.801 129.792 904.019 Q126.691 907.213 121.043 912.977 Z" fill="#000000" fill-rule="nonzero" fill-opacity="1"></path><path clip-path="url(#clip710)" d="M157.177 885.431 Q153.566 885.431 151.737 888.996 Q149.931 892.537 149.931 899.667 Q149.931 906.773 151.737 910.338 Q153.566 913.88 157.177 913.88 Q160.811 913.88 162.616 910.338 Q164.445 906.773 164.445 899.667 Q164.445 892.537 162.616 888.996 Q160.811 885.431 157.177 885.431 M157.177 881.727 Q162.987 881.727 166.042 886.334 Q169.121 890.917 169.121 899.667 Q169.121 908.394 166.042 913 Q162.987 917.583 157.177 917.583 Q151.366 917.583 148.288 913 Q145.232 908.394 145.232 899.667 Q145.232 890.917 148.288 886.334 Q151.366 881.727 157.177 881.727 Z" fill="#000000" fill-rule="nonzero" fill-opacity="1"></path><path clip-path="url(#clip710)" d="M131.181 651.819 Q134.538 652.537 136.413 654.805 Q138.311 657.074 138.311 660.407 Q138.311 665.523 134.792 668.324 Q131.274 671.125 124.793 671.125 Q122.617 671.125 120.302 670.685 Q118.01 670.268 115.556 669.412 L115.556 664.898 Q117.501 666.032 119.816 666.611 Q122.13 667.19 124.654 667.19 Q129.052 667.19 131.343 665.454 Q133.658 663.717 133.658 660.407 Q133.658 657.352 131.505 655.639 Q129.376 653.903 125.556 653.903 L121.529 653.903 L121.529 650.06 L125.742 650.06 Q129.191 650.06 131.019 648.694 Q132.848 647.306 132.848 644.713 Q132.848 642.051 130.95 640.639 Q129.075 639.204 125.556 639.204 Q123.635 639.204 121.436 639.62 Q119.237 640.037 116.598 640.917 L116.598 636.75 Q119.26 636.009 121.575 635.639 Q123.913 635.269 125.973 635.269 Q131.297 635.269 134.399 637.699 Q137.501 640.106 137.501 644.227 Q137.501 647.097 135.857 649.088 Q134.214 651.056 131.181 651.819 Z" fill="#000000" fill-rule="nonzero" fill-opacity="1"></path><path clip-path="url(#clip710)" d="M157.177 638.972 Q153.566 638.972 151.737 642.537 Q149.931 646.079 149.931 653.208 Q149.931 660.315 151.737 663.88 Q153.566 667.421 157.177 667.421 Q160.811 667.421 162.616 663.88 Q164.445 660.315 164.445 653.208 Q164.445 646.079 162.616 642.537 Q160.811 638.972 157.177 638.972 M157.177 635.269 Q162.987 635.269 166.042 639.875 Q169.121 644.458 169.121 653.208 Q169.121 661.935 166.042 666.542 Q162.987 671.125 157.177 671.125 Q151.366 671.125 148.288 666.542 Q145.232 661.935 145.232 653.208 Q145.232 644.458 148.288 639.875 Q151.366 635.269 157.177 635.269 Z" fill="#000000" fill-rule="nonzero" fill-opacity="1"></path><path clip-path="url(#clip710)" d="M129.862 393.509 L118.056 411.958 L129.862 411.958 L129.862 393.509 M128.635 389.435 L134.515 389.435 L134.515 411.958 L139.445 411.958 L139.445 415.847 L134.515 415.847 L134.515 423.995 L129.862 423.995 L129.862 415.847 L114.26 415.847 L114.26 411.333 L128.635 389.435 Z" fill="#000000" fill-rule="nonzero" fill-opacity="1"></path><path clip-path="url(#clip710)" d="M157.177 392.514 Q153.566 392.514 151.737 396.078 Q149.931 399.62 149.931 406.75 Q149.931 413.856 151.737 417.421 Q153.566 420.963 157.177 420.963 Q160.811 420.963 162.616 417.421 Q164.445 413.856 164.445 406.75 Q164.445 399.62 162.616 396.078 Q160.811 392.514 157.177 392.514 M157.177 388.81 Q162.987 388.81 166.042 393.416 Q169.121 398 169.121 406.75 Q169.121 415.476 166.042 420.083 Q162.987 424.666 157.177 424.666 Q151.366 424.666 148.288 420.083 Q145.232 415.476 145.232 406.75 Q145.232 398 148.288 393.416 Q151.366 388.81 157.177 388.81 Z" fill="#000000" fill-rule="nonzero" fill-opacity="1"></path><path clip-path="url(#clip710)" d="M117.061 142.976 L135.417 142.976 L135.417 146.911 L121.343 146.911 L121.343 155.384 Q122.362 155.036 123.38 154.874 Q124.399 154.689 125.418 154.689 Q131.205 154.689 134.584 157.86 Q137.964 161.032 137.964 166.448 Q137.964 172.027 134.492 175.129 Q131.019 178.208 124.7 178.208 Q122.524 178.208 120.255 177.837 Q118.01 177.467 115.603 176.726 L115.603 172.027 Q117.686 173.161 119.908 173.717 Q122.13 174.272 124.607 174.272 Q128.612 174.272 130.95 172.166 Q133.288 170.059 133.288 166.448 Q133.288 162.837 130.95 160.731 Q128.612 158.624 124.607 158.624 Q122.732 158.624 120.857 159.041 Q119.006 159.458 117.061 160.337 L117.061 142.976 Z" fill="#000000" fill-rule="nonzero" fill-opacity="1"></path><path clip-path="url(#clip710)" d="M157.177 146.055 Q153.566 146.055 151.737 149.62 Q149.931 153.161 149.931 160.291 Q149.931 167.397 151.737 170.962 Q153.566 174.504 157.177 174.504 Q160.811 174.504 162.616 170.962 Q164.445 167.397 164.445 160.291 Q164.445 153.161 162.616 149.62 Q160.811 146.055 157.177 146.055 M157.177 142.351 Q162.987 142.351 166.042 146.958 Q169.121 151.541 169.121 160.291 Q169.121 169.018 166.042 173.624 Q162.987 178.208 157.177 178.208 Q151.366 178.208 148.288 173.624 Q145.232 169.018 145.232 160.291 Q145.232 151.541 148.288 146.958 Q151.366 142.351 157.177 142.351 Z" fill="#000000" fill-rule="nonzero" fill-opacity="1"></path><path clip-path="url(#clip710)" d="M18.0438 839.163 L24.314 839.163 Q22.5634 842.824 21.704 846.07 Q20.8447 849.317 20.8447 852.34 Q20.8447 857.592 22.8817 860.457 Q24.9187 863.289 28.6745 863.289 Q31.8255 863.289 33.4488 861.411 Q35.0402 859.502 36.0269 854.218 L36.8226 850.335 Q38.1912 843.142 41.6605 839.736 Q45.098 836.299 50.8908 836.299 Q57.7976 836.299 61.3624 840.946 Q64.9272 845.561 64.9272 854.505 Q64.9272 857.878 64.1633 861.698 Q63.3994 865.486 61.9035 869.56 L55.2831 869.56 Q57.4793 865.645 58.5933 861.889 Q59.7073 858.133 59.7073 854.505 Q59.7073 848.998 57.543 846.006 Q55.3786 843.015 51.3682 843.015 Q47.8671 843.015 45.8937 845.179 Q43.9204 847.311 42.9337 852.213 L42.1698 856.128 Q40.7375 863.321 37.682 866.536 Q34.6264 869.751 29.1837 869.751 Q22.8817 869.751 19.2532 865.326 Q15.6248 860.87 15.6248 853.072 Q15.6248 849.73 16.2295 846.261 Q16.8343 842.792 18.0438 839.163 Z" fill="#000000" fill-rule="nonzero" fill-opacity="1"></path><path clip-path="url(#clip710)" d="M18.2347 820.735 L28.3562 820.735 L28.3562 808.672 L32.9077 808.672 L32.9077 820.735 L52.2594 820.735 Q56.6199 820.735 57.8613 819.557 Q59.1026 818.347 59.1026 814.687 L59.1026 808.672 L64.0042 808.672 L64.0042 814.687 Q64.0042 821.467 61.4897 824.045 Q58.9434 826.623 52.2594 826.623 L32.9077 826.623 L32.9077 830.92 L28.3562 830.92 L28.3562 826.623 L18.2347 826.623 L18.2347 820.735 Z" fill="#000000" fill-rule="nonzero" fill-opacity="1"></path><path clip-path="url(#clip710)" d="M33.8307 780.312 Q33.2578 781.299 33.0032 782.477 Q32.7167 783.623 32.7167 785.023 Q32.7167 789.988 35.9632 792.662 Q39.1779 795.304 45.2253 795.304 L64.0042 795.304 L64.0042 801.192 L28.3562 801.192 L28.3562 795.304 L33.8944 795.304 Q30.6479 793.458 29.0883 790.497 Q27.4968 787.537 27.4968 783.304 Q27.4968 782.699 27.5923 781.967 Q27.656 781.235 27.8151 780.344 L33.8307 780.312 Z" fill="#000000" fill-rule="nonzero" fill-opacity="1"></path><path clip-path="url(#clip710)" d="M44.7161 745.11 L47.5806 745.11 L47.5806 772.037 Q53.6281 771.655 56.8109 768.408 Q59.9619 765.13 59.9619 759.306 Q59.9619 755.932 59.1344 752.781 Q58.3069 749.598 56.6518 746.479 L62.1899 746.479 Q63.5267 749.63 64.227 752.94 Q64.9272 756.25 64.9272 759.656 Q64.9272 768.186 59.9619 773.183 Q54.9967 778.148 46.5303 778.148 Q37.7774 778.148 32.6531 773.437 Q27.4968 768.695 27.4968 760.674 Q27.4968 753.481 32.1438 749.311 Q36.7589 745.11 44.7161 745.11 M42.9973 750.966 Q38.1912 751.03 35.3266 753.672 Q32.4621 756.282 32.4621 760.61 Q32.4621 765.512 35.2312 768.472 Q38.0002 771.4 43.0292 771.846 L42.9973 750.966 Z" fill="#000000" fill-rule="nonzero" fill-opacity="1"></path><path clip-path="url(#clip710)" d="M29.4065 712.772 L34.9447 712.772 Q33.6716 715.255 33.035 717.928 Q32.3984 720.602 32.3984 723.467 Q32.3984 727.827 33.7352 730.023 Q35.072 732.188 37.7456 732.188 Q39.7826 732.188 40.9603 730.628 Q42.1061 729.068 43.1565 724.358 L43.6021 722.353 Q44.9389 716.114 47.3897 713.504 Q49.8086 710.862 54.1691 710.862 Q59.1344 710.862 62.0308 714.809 Q64.9272 718.724 64.9272 725.599 Q64.9272 728.464 64.3543 731.583 Q63.8132 734.67 62.6992 738.108 L56.6518 738.108 Q58.3387 734.861 59.198 731.71 Q60.0256 728.559 60.0256 725.472 Q60.0256 721.334 58.6251 719.106 Q57.1929 716.878 54.6147 716.878 Q52.2276 716.878 50.9545 718.501 Q49.6813 720.093 48.5037 725.535 L48.0262 727.572 Q46.8804 733.015 44.5251 735.434 Q42.138 737.853 38.0002 737.853 Q32.9713 737.853 30.2341 734.288 Q27.4968 730.723 27.4968 724.167 Q27.4968 720.92 27.9743 718.056 Q28.4517 715.191 29.4065 712.772 Z" fill="#000000" fill-rule="nonzero" fill-opacity="1"></path><path clip-path="url(#clip710)" d="M29.4065 678.811 L34.9447 678.811 Q33.6716 681.294 33.035 683.967 Q32.3984 686.641 32.3984 689.506 Q32.3984 693.866 33.7352 696.062 Q35.072 698.227 37.7456 698.227 Q39.7826 698.227 40.9603 696.667 Q42.1061 695.107 43.1565 690.397 L43.6021 688.392 Q44.9389 682.153 47.3897 679.543 Q49.8086 676.901 54.1691 676.901 Q59.1344 676.901 62.0308 680.848 Q64.9272 684.763 64.9272 691.638 Q64.9272 694.503 64.3543 697.622 Q63.8132 700.709 62.6992 704.147 L56.6518 704.147 Q58.3387 700.9 59.198 697.749 Q60.0256 694.598 60.0256 691.511 Q60.0256 687.373 58.6251 685.145 Q57.1929 682.917 54.6147 682.917 Q52.2276 682.917 50.9545 684.54 Q49.6813 686.132 48.5037 691.574 L48.0262 693.611 Q46.8804 699.054 44.5251 701.473 Q42.138 703.892 38.0002 703.892 Q32.9713 703.892 30.2341 700.327 Q27.4968 696.762 27.4968 690.206 Q27.4968 686.959 27.9743 684.095 Q28.4517 681.23 29.4065 678.811 Z" fill="#000000" fill-rule="nonzero" fill-opacity="1"></path><path clip-path="url(#clip710)" d="M607.623 14.0809 L607.623 22.0612 Q602.964 19.8332 598.832 18.7395 Q594.7 17.6457 590.852 17.6457 Q584.168 17.6457 580.522 20.2383 Q576.917 22.8309 576.917 27.611 Q576.917 31.6214 579.307 33.6873 Q581.737 35.7128 588.462 36.9686 L593.404 37.9813 Q602.559 39.7232 606.893 44.1387 Q611.268 48.5136 611.268 55.8863 Q611.268 64.6767 605.354 69.2137 Q599.48 73.7508 588.097 73.7508 Q583.803 73.7508 578.942 72.7785 Q574.122 71.8063 568.936 69.9024 L568.936 61.4765 Q573.919 64.2716 578.699 65.6895 Q583.479 67.1073 588.097 67.1073 Q595.105 67.1073 598.913 64.3527 Q602.721 61.598 602.721 56.4939 Q602.721 52.0379 599.966 49.5264 Q597.252 47.0148 591.014 45.759 L586.031 44.7868 Q576.876 42.9639 572.785 39.075 Q568.693 35.1862 568.693 28.2591 Q568.693 20.2383 574.324 15.6203 Q579.995 11.0023 589.92 11.0023 Q594.174 11.0023 598.589 11.7719 Q603.005 12.5416 607.623 14.0809 Z" fill="#000000" fill-rule="nonzero" fill-opacity="1"></path><path clip-path="url(#clip710)" d="M631.077 14.324 L631.077 27.2059 L646.43 27.2059 L646.43 32.9987 L631.077 32.9987 L631.077 57.6282 Q631.077 63.1779 632.576 64.7578 Q634.116 66.3376 638.774 66.3376 L646.43 66.3376 L646.43 72.576 L638.774 72.576 Q630.146 72.576 626.864 69.3758 Q623.583 66.1351 623.583 57.6282 L623.583 32.9987 L618.114 32.9987 L618.114 27.2059 L623.583 27.2059 L623.583 14.324 L631.077 14.324 Z" fill="#000000" fill-rule="nonzero" fill-opacity="1"></path><path clip-path="url(#clip710)" d="M682.524 34.1734 Q681.268 33.4443 679.769 33.1202 Q678.311 32.7556 676.528 32.7556 Q670.209 32.7556 666.806 36.8875 Q663.444 40.9789 663.444 48.6757 L663.444 72.576 L655.95 72.576 L655.95 27.2059 L663.444 27.2059 L663.444 34.2544 Q665.794 30.1225 669.561 28.1376 Q673.328 26.1121 678.716 26.1121 Q679.486 26.1121 680.417 26.2337 Q681.349 26.3147 682.483 26.5172 L682.524 34.1734 Z" fill="#000000" fill-rule="nonzero" fill-opacity="1"></path><path clip-path="url(#clip710)" d="M727.327 48.0275 L727.327 51.6733 L693.056 51.6733 Q693.542 59.3701 697.674 63.421 Q701.847 67.4314 709.26 67.4314 Q713.554 67.4314 717.564 66.3781 Q721.615 65.3249 725.585 63.2184 L725.585 70.267 Q721.575 71.9684 717.362 72.8596 Q713.149 73.7508 708.814 73.7508 Q697.958 73.7508 691.598 67.4314 Q685.278 61.1119 685.278 50.3365 Q685.278 39.1965 691.274 32.6746 Q697.31 26.1121 707.518 26.1121 Q716.673 26.1121 721.98 32.0264 Q727.327 37.9003 727.327 48.0275 M719.873 45.84 Q719.792 39.7232 716.43 36.0774 Q713.108 32.4315 707.599 32.4315 Q701.361 32.4315 697.593 35.9558 Q693.866 39.4801 693.299 45.8805 L719.873 45.84 Z" fill="#000000" fill-rule="nonzero" fill-opacity="1"></path><path clip-path="url(#clip710)" d="M768.484 28.5427 L768.484 35.5912 Q765.324 33.9709 761.922 33.1607 Q758.519 32.3505 754.873 32.3505 Q749.323 32.3505 746.528 34.0519 Q743.773 35.7533 743.773 39.156 Q743.773 41.7486 745.758 43.2475 Q747.743 44.7058 753.739 46.0426 L756.291 46.6097 Q764.231 48.3111 767.552 51.4303 Q770.915 54.509 770.915 60.0587 Q770.915 66.3781 765.891 70.0644 Q760.909 73.7508 752.159 73.7508 Q748.513 73.7508 744.543 73.0216 Q740.614 72.3329 736.239 70.9151 L736.239 63.2184 Q740.371 65.3654 744.381 66.4591 Q748.392 67.5124 752.321 67.5124 Q757.587 67.5124 760.423 65.73 Q763.258 63.9071 763.258 60.6258 Q763.258 57.5877 761.192 55.9673 Q759.167 54.3469 752.24 52.8481 L749.647 52.2405 Q742.72 50.7821 739.642 47.7845 Q736.563 44.7463 736.563 39.4801 Q736.563 33.0797 741.1 29.5959 Q745.637 26.1121 753.982 26.1121 Q758.114 26.1121 761.759 26.7198 Q765.405 27.3274 768.484 28.5427 Z" fill="#000000" fill-rule="nonzero" fill-opacity="1"></path><path clip-path="url(#clip710)" d="M811.707 28.5427 L811.707 35.5912 Q808.547 33.9709 805.145 33.1607 Q801.742 32.3505 798.096 32.3505 Q792.546 32.3505 789.751 34.0519 Q786.997 35.7533 786.997 39.156 Q786.997 41.7486 788.982 43.2475 Q790.967 44.7058 796.962 46.0426 L799.514 46.6097 Q807.454 48.3111 810.775 51.4303 Q814.138 54.509 814.138 60.0587 Q814.138 66.3781 809.115 70.0644 Q804.132 73.7508 795.382 73.7508 Q791.736 73.7508 787.766 73.0216 Q783.837 72.3329 779.462 70.9151 L779.462 63.2184 Q783.594 65.3654 787.604 66.4591 Q791.615 67.5124 795.544 67.5124 Q800.81 67.5124 803.646 65.73 Q806.481 63.9071 806.481 60.6258 Q806.481 57.5877 804.416 55.9673 Q802.39 54.3469 795.463 52.8481 L792.87 52.2405 Q785.943 50.7821 782.865 47.7845 Q779.786 44.7463 779.786 39.4801 Q779.786 33.0797 784.323 29.5959 Q788.86 26.1121 797.205 26.1121 Q801.337 26.1121 804.983 26.7198 Q808.628 27.3274 811.707 28.5427 Z" fill="#000000" fill-rule="nonzero" fill-opacity="1"></path><path clip-path="url(#clip710)" d="M822.239 46.5287 L844.074 46.5287 L844.074 53.1722 L822.239 53.1722 L822.239 46.5287 Z" fill="#000000" fill-rule="nonzero" fill-opacity="1"></path><path clip-path="url(#clip710)" d="M863.316 14.324 L863.316 27.2059 L878.669 27.2059 L878.669 32.9987 L863.316 32.9987 L863.316 57.6282 Q863.316 63.1779 864.815 64.7578 Q866.354 66.3376 871.012 66.3376 L878.669 66.3376 L878.669 72.576 L871.012 72.576 Q862.384 72.576 859.103 69.3758 Q855.821 66.1351 855.821 57.6282 L855.821 32.9987 L850.353 32.9987 L850.353 27.2059 L855.821 27.2059 L855.821 14.324 L863.316 14.324 Z" fill="#000000" fill-rule="nonzero" fill-opacity="1"></path><path clip-path="url(#clip710)" d="M888.472 27.2059 L895.925 27.2059 L895.925 72.576 L888.472 72.576 L888.472 27.2059 M888.472 9.54393 L895.925 9.54393 L895.925 18.9825 L888.472 18.9825 L888.472 9.54393 Z" fill="#000000" fill-rule="nonzero" fill-opacity="1"></path><path clip-path="url(#clip710)" d="M946.845 35.9153 Q949.64 30.8922 953.529 28.5022 Q957.418 26.1121 962.684 26.1121 Q969.773 26.1121 973.622 31.0947 Q977.47 36.0368 977.47 45.1919 L977.47 72.576 L969.976 72.576 L969.976 45.4349 Q969.976 38.913 967.667 35.7533 Q965.358 32.5936 960.618 32.5936 Q954.826 32.5936 951.463 36.4419 Q948.101 40.2903 948.101 46.9338 L948.101 72.576 L940.607 72.576 L940.607 45.4349 Q940.607 38.8725 938.298 35.7533 Q935.989 32.5936 931.168 32.5936 Q925.457 32.5936 922.094 36.4824 Q918.732 40.3308 918.732 46.9338 L918.732 72.576 L911.238 72.576 L911.238 27.2059 L918.732 27.2059 L918.732 34.2544 Q921.284 30.082 924.849 28.0971 Q928.414 26.1121 933.315 26.1121 Q938.257 26.1121 941.701 28.6237 Q945.184 31.1352 946.845 35.9153 Z" fill="#000000" fill-rule="nonzero" fill-opacity="1"></path><path clip-path="url(#clip710)" d="M1031.14 48.0275 L1031.14 51.6733 L996.874 51.6733 Q997.36 59.3701 1001.49 63.421 Q1005.66 67.4314 1013.08 67.4314 Q1017.37 67.4314 1021.38 66.3781 Q1025.43 65.3249 1029.4 63.2184 L1029.4 70.267 Q1025.39 71.9684 1021.18 72.8596 Q1016.97 73.7508 1012.63 73.7508 Q1001.78 73.7508 995.416 67.4314 Q989.096 61.1119 989.096 50.3365 Q989.096 39.1965 995.092 32.6746 Q1001.13 26.1121 1011.34 26.1121 Q1020.49 26.1121 1025.8 32.0264 Q1031.14 37.9003 1031.14 48.0275 M1023.69 45.84 Q1023.61 39.7232 1020.25 36.0774 Q1016.93 32.4315 1011.42 32.4315 Q1005.18 32.4315 1001.41 35.9558 Q997.684 39.4801 997.117 45.8805 L1023.69 45.84 Z" fill="#000000" fill-rule="nonzero" fill-opacity="1"></path><path clip-path="url(#clip710)" d="M1045.28 62.2867 L1053.83 62.2867 L1053.83 72.576 L1045.28 72.576 L1045.28 62.2867 M1045.28 29.6769 L1053.83 29.6769 L1053.83 39.9662 L1045.28 39.9662 L1045.28 29.6769 Z" fill="#000000" fill-rule="nonzero" fill-opacity="1"></path><path clip-path="url(#clip710)" d="M1092.35 27.2059 L1100.25 27.2059 L1114.43 65.2844 L1128.61 27.2059 L1136.51 27.2059 L1119.49 72.576 L1109.37 72.576 L1092.35 27.2059 Z" fill="#000000" fill-rule="nonzero" fill-opacity="1"></path><path clip-path="url(#clip710)" d="M1146.8 27.2059 L1154.25 27.2059 L1154.25 72.576 L1146.8 72.576 L1146.8 27.2059 M1146.8 9.54393 L1154.25 9.54393 L1154.25 18.9825 L1146.8 18.9825 L1146.8 9.54393 Z" fill="#000000" fill-rule="nonzero" fill-opacity="1"></path><path clip-path="url(#clip710)" d="M1198.77 28.5427 L1198.77 35.5912 Q1195.61 33.9709 1192.21 33.1607 Q1188.81 32.3505 1185.16 32.3505 Q1179.61 32.3505 1176.82 34.0519 Q1174.06 35.7533 1174.06 39.156 Q1174.06 41.7486 1176.05 43.2475 Q1178.03 44.7058 1184.03 46.0426 L1186.58 46.6097 Q1194.52 48.3111 1197.84 51.4303 Q1201.2 54.509 1201.2 60.0587 Q1201.2 66.3781 1196.18 70.0644 Q1191.2 73.7508 1182.45 73.7508 Q1178.8 73.7508 1174.83 73.0216 Q1170.9 72.3329 1166.53 70.9151 L1166.53 63.2184 Q1170.66 65.3654 1174.67 66.4591 Q1178.68 67.5124 1182.61 67.5124 Q1187.87 67.5124 1190.71 65.73 Q1193.55 63.9071 1193.55 60.6258 Q1193.55 57.5877 1191.48 55.9673 Q1189.45 54.3469 1182.53 52.8481 L1179.93 52.2405 Q1173.01 50.7821 1169.93 47.7845 Q1166.85 44.7463 1166.85 39.4801 Q1166.85 33.0797 1171.39 29.5959 Q1175.92 26.1121 1184.27 26.1121 Q1188.4 26.1121 1192.05 26.7198 Q1195.69 27.3274 1198.77 28.5427 Z" fill="#000000" fill-rule="nonzero" fill-opacity="1"></path><path clip-path="url(#clip710)" d="M1245.72 28.9478 L1245.72 35.9153 Q1242.56 34.1734 1239.36 33.3227 Q1236.2 32.4315 1232.96 32.4315 Q1225.71 32.4315 1221.7 37.0496 Q1217.69 41.6271 1217.69 49.9314 Q1217.69 58.2358 1221.7 62.8538 Q1225.71 67.4314 1232.96 67.4314 Q1236.2 67.4314 1239.36 66.5807 Q1242.56 65.6895 1245.72 63.9476 L1245.72 70.8341 Q1242.6 72.2924 1239.24 73.0216 Q1235.92 73.7508 1232.15 73.7508 Q1221.9 73.7508 1215.87 67.3098 Q1209.83 60.8689 1209.83 49.9314 Q1209.83 38.832 1215.91 32.472 Q1222.02 26.1121 1232.64 26.1121 Q1236.08 26.1121 1239.36 26.8413 Q1242.64 27.5299 1245.72 28.9478 Z" fill="#000000" fill-rule="nonzero" fill-opacity="1"></path><path clip-path="url(#clip710)" d="M1276.26 32.4315 Q1270.27 32.4315 1266.79 37.1306 Q1263.3 41.7891 1263.3 49.9314 Q1263.3 58.0738 1266.75 62.7728 Q1270.23 67.4314 1276.26 67.4314 Q1282.22 67.4314 1285.7 62.7323 Q1289.19 58.0333 1289.19 49.9314 Q1289.19 41.8701 1285.7 37.1711 Q1282.22 32.4315 1276.26 32.4315 M1276.26 26.1121 Q1285.99 26.1121 1291.54 32.4315 Q1297.09 38.7509 1297.09 49.9314 Q1297.09 61.0714 1291.54 67.4314 Q1285.99 73.7508 1276.26 73.7508 Q1266.5 73.7508 1260.95 67.4314 Q1255.44 61.0714 1255.44 49.9314 Q1255.44 38.7509 1260.95 32.4315 Q1266.5 26.1121 1276.26 26.1121 Z" fill="#000000" fill-rule="nonzero" fill-opacity="1"></path><path clip-path="url(#clip710)" d="M1307.21 46.5287 L1329.05 46.5287 L1329.05 53.1722 L1307.21 53.1722 L1307.21 46.5287 Z" fill="#000000" fill-rule="nonzero" fill-opacity="1"></path><path clip-path="url(#clip710)" d="M1379.72 48.0275 L1379.72 51.6733 L1345.45 51.6733 Q1345.94 59.3701 1350.07 63.421 Q1354.24 67.4314 1361.66 67.4314 Q1365.95 67.4314 1369.96 66.3781 Q1374.01 65.3249 1377.98 63.2184 L1377.98 70.267 Q1373.97 71.9684 1369.76 72.8596 Q1365.55 73.7508 1361.21 73.7508 Q1350.36 73.7508 1344 67.4314 Q1337.68 61.1119 1337.68 50.3365 Q1337.68 39.1965 1343.67 32.6746 Q1349.71 26.1121 1359.92 26.1121 Q1369.07 26.1121 1374.38 32.0264 Q1379.72 37.9003 1379.72 48.0275 M1372.27 45.84 Q1372.19 39.7232 1368.83 36.0774 Q1365.51 32.4315 1360 32.4315 Q1353.76 32.4315 1349.99 35.9558 Q1346.26 39.4801 1345.7 45.8805 L1372.27 45.84 Z" fill="#000000" fill-rule="nonzero" fill-opacity="1"></path><path clip-path="url(#clip710)" d="M1391.96 9.54393 L1399.41 9.54393 L1399.41 72.576 L1391.96 72.576 L1391.96 9.54393 Z" fill="#000000" fill-rule="nonzero" fill-opacity="1"></path><path clip-path="url(#clip710)" d="M1435.63 49.7694 Q1426.59 49.7694 1423.11 51.8354 Q1419.63 53.9013 1419.63 58.8839 Q1419.63 62.8538 1422.22 65.2034 Q1424.85 67.5124 1429.35 67.5124 Q1435.55 67.5124 1439.27 63.1374 Q1443.04 58.7219 1443.04 51.4303 L1443.04 49.7694 L1435.63 49.7694 M1450.49 46.6907 L1450.49 72.576 L1443.04 72.576 L1443.04 65.6895 Q1440.49 69.8214 1436.68 71.8063 Q1432.87 73.7508 1427.36 73.7508 Q1420.4 73.7508 1416.26 69.8619 Q1412.17 65.9325 1412.17 59.3701 Q1412.17 51.7138 1417.28 47.825 Q1422.42 43.9361 1432.59 43.9361 L1443.04 43.9361 L1443.04 43.2069 Q1443.04 38.0623 1439.64 35.2672 Q1436.28 32.4315 1430.16 32.4315 Q1426.27 32.4315 1422.58 33.3632 Q1418.9 34.295 1415.49 36.1584 L1415.49 29.2718 Q1419.59 27.692 1423.43 26.9223 Q1427.28 26.1121 1430.93 26.1121 Q1440.77 26.1121 1445.63 31.2163 Q1450.49 36.3204 1450.49 46.6907 Z" fill="#000000" fill-rule="nonzero" fill-opacity="1"></path><path clip-path="url(#clip710)" d="M1494.77 28.5427 L1494.77 35.5912 Q1491.61 33.9709 1488.21 33.1607 Q1484.81 32.3505 1481.16 32.3505 Q1475.61 32.3505 1472.81 34.0519 Q1470.06 35.7533 1470.06 39.156 Q1470.06 41.7486 1472.05 43.2475 Q1474.03 44.7058 1480.03 46.0426 L1482.58 46.6097 Q1490.52 48.3111 1493.84 51.4303 Q1497.2 54.509 1497.2 60.0587 Q1497.2 66.3781 1492.18 70.0644 Q1487.2 73.7508 1478.45 73.7508 Q1474.8 73.7508 1470.83 73.0216 Q1466.9 72.3329 1462.53 70.9151 L1462.53 63.2184 Q1466.66 65.3654 1470.67 66.4591 Q1474.68 67.5124 1478.61 67.5124 Q1483.87 67.5124 1486.71 65.73 Q1489.54 63.9071 1489.54 60.6258 Q1489.54 57.5877 1487.48 55.9673 Q1485.45 54.3469 1478.53 52.8481 L1475.93 52.2405 Q1469.01 50.7821 1465.93 47.7845 Q1462.85 44.7463 1462.85 39.4801 Q1462.85 33.0797 1467.39 29.5959 Q1471.92 26.1121 1480.27 26.1121 Q1484.4 26.1121 1488.05 26.7198 Q1491.69 27.3274 1494.77 28.5427 Z" fill="#000000" fill-rule="nonzero" fill-opacity="1"></path><path clip-path="url(#clip710)" d="M1516.44 14.324 L1516.44 27.2059 L1531.8 27.2059 L1531.8 32.9987 L1516.44 32.9987 L1516.44 57.6282 Q1516.44 63.1779 1517.94 64.7578 Q1519.48 66.3376 1524.14 66.3376 L1531.8 66.3376 L1531.8 72.576 L1524.14 72.576 Q1515.51 72.576 1512.23 69.3758 Q1508.95 66.1351 1508.95 57.6282 L1508.95 32.9987 L1503.48 32.9987 L1503.48 27.2059 L1508.95 27.2059 L1508.95 14.324 L1516.44 14.324 Z" fill="#000000" fill-rule="nonzero" fill-opacity="1"></path><path clip-path="url(#clip710)" d="M1559.18 32.4315 Q1553.18 32.4315 1549.7 37.1306 Q1546.22 41.7891 1546.22 49.9314 Q1546.22 58.0738 1549.66 62.7728 Q1553.14 67.4314 1559.18 67.4314 Q1565.13 67.4314 1568.62 62.7323 Q1572.1 58.0333 1572.1 49.9314 Q1572.1 41.8701 1568.62 37.1711 Q1565.13 32.4315 1559.18 32.4315 M1559.18 26.1121 Q1568.9 26.1121 1574.45 32.4315 Q1580 38.7509 1580 49.9314 Q1580 61.0714 1574.45 67.4314 Q1568.9 73.7508 1559.18 73.7508 Q1549.42 73.7508 1543.87 67.4314 Q1538.36 61.0714 1538.36 49.9314 Q1538.36 38.7509 1543.87 32.4315 Q1549.42 26.1121 1559.18 26.1121 Z" fill="#000000" fill-rule="nonzero" fill-opacity="1"></path><path clip-path="url(#clip710)" d="M1590.13 46.5287 L1611.96 46.5287 L1611.96 53.1722 L1590.13 53.1722 L1590.13 46.5287 Z" fill="#000000" fill-rule="nonzero" fill-opacity="1"></path><path clip-path="url(#clip710)" d="M1631.04 65.7705 L1631.04 89.8329 L1623.55 89.8329 L1623.55 27.2059 L1631.04 27.2059 L1631.04 34.0924 Q1633.39 30.0415 1636.96 28.0971 Q1640.56 26.1121 1645.55 26.1121 Q1653.81 26.1121 1658.95 32.6746 Q1664.14 39.2371 1664.14 49.9314 Q1664.14 60.6258 1658.95 67.1883 Q1653.81 73.7508 1645.55 73.7508 Q1640.56 73.7508 1636.96 71.8063 Q1633.39 69.8214 1631.04 65.7705 M1656.4 49.9314 Q1656.4 41.7081 1653 37.0496 Q1649.64 32.3505 1643.72 32.3505 Q1637.81 32.3505 1634.41 37.0496 Q1631.04 41.7081 1631.04 49.9314 Q1631.04 58.1548 1634.41 62.8538 Q1637.81 67.5124 1643.72 67.5124 Q1649.64 67.5124 1653 62.8538 Q1656.4 58.1548 1656.4 49.9314 Z" fill="#000000" fill-rule="nonzero" fill-opacity="1"></path><path clip-path="url(#clip710)" d="M1676.49 9.54393 L1683.95 9.54393 L1683.95 72.576 L1676.49 72.576 L1676.49 9.54393 Z" fill="#000000" fill-rule="nonzero" fill-opacity="1"></path><path clip-path="url(#clip710)" d="M1720.16 49.7694 Q1711.13 49.7694 1707.65 51.8354 Q1704.16 53.9013 1704.16 58.8839 Q1704.16 62.8538 1706.75 65.2034 Q1709.39 67.5124 1713.88 67.5124 Q1720.08 67.5124 1723.81 63.1374 Q1727.58 58.7219 1727.58 51.4303 L1727.58 49.7694 L1720.16 49.7694 M1735.03 46.6907 L1735.03 72.576 L1727.58 72.576 L1727.58 65.6895 Q1725.02 69.8214 1721.22 71.8063 Q1717.41 73.7508 1711.9 73.7508 Q1704.93 73.7508 1700.8 69.8619 Q1696.71 65.9325 1696.71 59.3701 Q1696.71 51.7138 1701.81 47.825 Q1706.96 43.9361 1717.12 43.9361 L1727.58 43.9361 L1727.58 43.2069 Q1727.58 38.0623 1724.17 35.2672 Q1720.81 32.4315 1714.69 32.4315 Q1710.81 32.4315 1707.12 33.3632 Q1703.43 34.295 1700.03 36.1584 L1700.03 29.2718 Q1704.12 27.692 1707.97 26.9223 Q1711.82 26.1121 1715.46 26.1121 Q1725.31 26.1121 1730.17 31.2163 Q1735.03 36.3204 1735.03 46.6907 Z" fill="#000000" fill-rule="nonzero" fill-opacity="1"></path><path clip-path="url(#clip710)" d="M1779.31 28.5427 L1779.31 35.5912 Q1776.15 33.9709 1772.74 33.1607 Q1769.34 32.3505 1765.7 32.3505 Q1760.15 32.3505 1757.35 34.0519 Q1754.6 35.7533 1754.6 39.156 Q1754.6 41.7486 1756.58 43.2475 Q1758.57 44.7058 1764.56 46.0426 L1767.11 46.6097 Q1775.05 48.3111 1778.37 51.4303 Q1781.74 54.509 1781.74 60.0587 Q1781.74 66.3781 1776.71 70.0644 Q1771.73 73.7508 1762.98 73.7508 Q1759.34 73.7508 1755.37 73.0216 Q1751.44 72.3329 1747.06 70.9151 L1747.06 63.2184 Q1751.19 65.3654 1755.2 66.4591 Q1759.21 67.5124 1763.14 67.5124 Q1768.41 67.5124 1771.24 65.73 Q1774.08 63.9071 1774.08 60.6258 Q1774.08 57.5877 1772.01 55.9673 Q1769.99 54.3469 1763.06 52.8481 L1760.47 52.2405 Q1753.54 50.7821 1750.46 47.7845 Q1747.39 44.7463 1747.39 39.4801 Q1747.39 33.0797 1751.92 29.5959 Q1756.46 26.1121 1764.8 26.1121 Q1768.94 26.1121 1772.58 26.7198 Q1776.23 27.3274 1779.31 28.5427 Z" fill="#000000" fill-rule="nonzero" fill-opacity="1"></path><path clip-path="url(#clip710)" d="M1800.98 14.324 L1800.98 27.2059 L1816.33 27.2059 L1816.33 32.9987 L1800.98 32.9987 L1800.98 57.6282 Q1800.98 63.1779 1802.48 64.7578 Q1804.02 66.3376 1808.68 66.3376 L1816.33 66.3376 L1816.33 72.576 L1808.68 72.576 Q1800.05 72.576 1796.77 69.3758 Q1793.48 66.1351 1793.48 57.6282 L1793.48 32.9987 L1788.02 32.9987 L1788.02 27.2059 L1793.48 27.2059 L1793.48 14.324 L1800.98 14.324 Z" fill="#000000" fill-rule="nonzero" fill-opacity="1"></path><path clip-path="url(#clip710)" d="M1826.13 27.2059 L1833.59 27.2059 L1833.59 72.576 L1826.13 72.576 L1826.13 27.2059 M1826.13 9.54393 L1833.59 9.54393 L1833.59 18.9825 L1826.13 18.9825 L1826.13 9.54393 Z" fill="#000000" fill-rule="nonzero" fill-opacity="1"></path><path clip-path="url(#clip710)" d="M1881.83 28.9478 L1881.83 35.9153 Q1878.67 34.1734 1875.47 33.3227 Q1872.31 32.4315 1869.07 32.4315 Q1861.82 32.4315 1857.81 37.0496 Q1853.8 41.6271 1853.8 49.9314 Q1853.8 58.2358 1857.81 62.8538 Q1861.82 67.4314 1869.07 67.4314 Q1872.31 67.4314 1875.47 66.5807 Q1878.67 65.6895 1881.83 63.9476 L1881.83 70.8341 Q1878.72 72.2924 1875.35 73.0216 Q1872.03 73.7508 1868.26 73.7508 Q1858.02 73.7508 1851.98 67.3098 Q1845.94 60.8689 1845.94 49.9314 Q1845.94 38.832 1852.02 32.472 Q1858.14 26.1121 1868.75 26.1121 Q1872.19 26.1121 1875.47 26.8413 Q1878.76 27.5299 1881.83 28.9478 Z" fill="#000000" fill-rule="nonzero" fill-opacity="1"></path><path clip-path="url(#clip710)" d="M1894.8 27.2059 L1902.25 27.2059 L1902.25 72.576 L1894.8 72.576 L1894.8 27.2059 M1894.8 9.54393 L1902.25 9.54393 L1902.25 18.9825 L1894.8 18.9825 L1894.8 9.54393 Z" fill="#000000" fill-rule="nonzero" fill-opacity="1"></path><path clip-path="url(#clip710)" d="M1925.22 14.324 L1925.22 27.2059 L1940.57 27.2059 L1940.57 32.9987 L1925.22 32.9987 L1925.22 57.6282 Q1925.22 63.1779 1926.72 64.7578 Q1928.26 66.3376 1932.92 66.3376 L1940.57 66.3376 L1940.57 72.576 L1932.92 72.576 Q1924.29 72.576 1921.01 69.3758 Q1917.73 66.1351 1917.73 57.6282 L1917.73 32.9987 L1912.26 32.9987 L1912.26 27.2059 L1917.73 27.2059 L1917.73 14.324 L1925.22 14.324 Z" fill="#000000" fill-rule="nonzero" fill-opacity="1"></path><path clip-path="url(#clip710)" d="M1969.25 76.7889 Q1966.09 84.8907 1963.1 87.3618 Q1960.1 89.8329 1955.07 89.8329 L1949.12 89.8329 L1949.12 83.5945 L1953.5 83.5945 Q1956.57 83.5945 1958.28 82.1361 Q1959.98 80.6778 1962.04 75.2496 L1963.38 71.8468 L1945.03 27.2059 L1952.93 27.2059 L1967.11 62.6918 L1981.28 27.2059 L1989.18 27.2059 L1969.25 76.7889 Z" fill="#000000" fill-rule="nonzero" fill-opacity="1"></path><polyline clip-path="url(#clip712)" style="stroke:#009af9; stroke-linecap:round; stroke-linejoin:round; stroke-width:4; stroke-opacity:1; fill:none" points="265.903,1386.4 268.439,1380.26 270.975,1374.13 273.51,1368.03 276.046,1361.93 278.582,1355.86 281.118,1349.79 283.653,1343.75 286.189,1337.72 288.725,1331.7 291.261,1325.7 293.796,1319.71 296.332,1313.74 298.868,1307.78 301.404,1301.84 303.939,1295.91 306.475,1290 309.011,1284.1 311.547,1278.22 314.082,1272.35 316.618,1266.5 319.154,1260.66 321.69,1254.83 324.226,1249.02 326.761,1243.23 329.297,1237.45 331.833,1231.68 334.369,1225.93 336.904,1220.19 339.44,1214.47 341.976,1208.76 344.512,1203.06 347.047,1197.38 349.583,1191.72 352.119,1186.06 354.655,1180.43 357.19,1174.8 359.726,1169.19 362.262,1163.6 364.798,1158.01 367.333,1152.44 369.869,1146.89 372.405,1141.35 374.941,1135.82 377.476,1130.31 380.012,1124.81 382.548,1119.33 385.084,1113.86 387.619,1108.4 390.155,1102.95 392.691,1097.52 395.227,1092.11 397.763,1086.7 400.298,1081.31 402.834,1075.93 405.37,1070.57 407.906,1065.22 410.441,1059.89 412.977,1054.56 415.513,1049.25 418.049,1043.96 420.584,1038.67 423.12,1033.4 425.656,1028.15 428.192,1022.9 430.727,1017.67 433.263,1012.45 435.799,1007.25 438.335,1002.06 440.87,996.877 443.406,991.712 445.942,986.559 448.478,981.419 451.013,976.291 453.549,971.177 456.085,966.075 458.621,960.986 461.156,955.91 463.692,950.847 466.228,945.796 468.764,940.757 471.299,935.732 473.835,930.719 476.371,925.718 478.907,920.73 481.443,915.754 483.978,910.791 486.514,905.84 489.05,900.901 491.586,895.975 494.121,891.061 496.657,886.16 499.193,881.27 501.729,876.393 504.264,871.528 506.8,866.675 509.336,861.835 511.872,857.006 514.407,852.189 516.943,847.385 519.479,842.592 522.015,837.812 524.55,833.043 527.086,828.286 529.622,823.541 532.158,818.808 534.693,814.087 537.229,809.378 539.765,804.68 542.301,799.994 544.836,795.32 547.372,790.657 549.908,786.006 552.444,781.367 554.98,776.739 557.515,772.123 560.051,767.519 562.587,762.925 565.123,758.344 567.658,753.774 570.194,749.215 572.73,744.667 575.266,740.131 577.801,735.606 580.337,731.093 582.873,726.591 585.409,722.1 587.944,717.62 590.48,713.152 593.016,708.694 595.552,704.248 598.087,699.813 600.623,695.389 603.159,690.976 605.695,686.574 608.23,682.183 610.766,677.802 613.302,673.433 615.838,669.075 618.373,664.728 620.909,660.391 623.445,656.066 625.981,651.751 628.516,647.447 631.052,643.153 633.588,638.871 636.124,634.599 638.66,630.338 641.195,626.087 643.731,621.847 646.267,617.617 648.803,613.399 651.338,609.19 653.874,604.992 656.41,600.805 658.946,596.628 661.481,592.462 664.017,588.306 666.553,584.16 669.089,580.025 671.624,575.9 674.16,571.785 676.696,567.681 679.232,563.586 681.767,559.503 684.303,555.429 686.839,551.365 689.375,547.312 691.91,543.268 694.446,539.235 696.982,535.212 699.518,531.199 702.053,527.196 704.589,523.203 707.125,519.22 709.661,515.246 712.197,511.283 714.732,507.33 717.268,503.386 719.804,499.453 722.34,495.529 724.875,491.615 727.411,487.711 729.947,483.816 732.483,479.931 735.018,476.056 737.554,472.191 740.09,468.335 742.626,464.489 745.161,460.653 747.697,456.826 750.233,453.008 752.769,449.2 755.304,445.402 757.84,441.613 760.376,437.834 762.912,434.064 765.447,430.303 767.983,426.552 770.519,422.81 773.055,419.078 775.59,415.355 778.126,411.641 780.662,407.936 783.198,404.241 785.733,400.555 788.269,396.878 790.805,393.21 793.341,389.552 795.877,385.902 798.412,382.262 800.948,378.631 803.484,375.009 806.02,371.396 808.555,367.792 811.091,364.197 813.627,360.61 816.163,357.033 818.698,353.465 821.234,349.906 823.77,346.355 826.306,342.814 828.841,339.281 831.377,335.757 833.913,332.242 836.449,328.736 838.984,325.238 841.52,321.749 844.056,318.269 846.592,314.798 849.127,311.335 851.663,307.881 854.199,304.436 856.735,300.999 859.27,297.57 861.806,294.151 864.342,290.739 866.878,287.337 869.414,283.943 871.949,280.557 874.485,277.18 877.021,273.811 879.557,270.45 882.092,267.098 884.628,263.755 887.164,260.419 889.7,257.092 892.235,253.774 894.771,250.463 897.307,247.161 899.843,243.867 902.378,240.582 904.914,237.304 907.45,234.035 909.986,230.774 912.521,227.521 915.057,224.276 917.593,221.039 920.129,217.811 922.664,214.59 925.2,211.377 927.736,208.173 930.272,204.976 932.807,201.788 935.343,198.607 937.879,195.435 940.415,192.27 942.95,189.113 945.486,185.964 948.022,182.823 950.558,179.69 953.094,176.564 955.629,173.447 958.165,170.337 960.701,167.235 963.237,164.141 965.772,161.054 968.308,160.256 970.844,160.256 973.38,160.256 975.915,160.256 978.451,160.256 980.987,160.256 983.523,160.256 986.058,160.256 988.594,160.256 991.13,160.256 993.666,160.256 996.201,160.256 998.737,160.256 1001.27,160.256 1003.81,160.256 1006.34,160.256 1008.88,160.256 1011.42,160.256 1013.95,160.256 1016.49,160.256 1019.02,160.256 1021.56,160.256 1024.09,160.256 1026.63,160.256 1029.17,160.256 1031.7,160.256 1034.24,160.256 1036.77,160.256 1039.31,160.256 1041.85,160.256 1044.38,160.256 1046.92,160.256 1049.45,160.256 1051.99,160.256 1054.52,160.256 1057.06,160.256 1059.6,160.256 1062.13,160.256 1064.67,160.256 1067.2,160.256 1069.74,160.256 1072.27,160.256 1074.81,160.256 1077.35,160.256 1079.88,160.256 1082.42,160.256 1084.95,160.256 1087.49,160.256 1090.02,160.256 1092.56,160.256 1095.1,160.256 1097.63,160.256 1100.17,160.256 1102.7,160.256 1105.24,160.256 1107.77,160.256 1110.31,160.256 1112.85,160.256 1115.38,160.256 1117.92,160.256 1120.45,160.256 1122.99,160.256 1125.53,160.256 1128.06,160.256 1130.6,160.256 1133.13,160.256 1135.67,160.256 1138.2,160.256 1140.74,160.256 1143.28,160.256 1145.81,160.256 1148.35,160.256 1150.88,160.256 1153.42,160.256 1155.95,160.256 1158.49,160.256 1161.03,160.256 1163.56,160.256 1166.1,160.256 1168.63,160.256 1171.17,160.256 1173.7,160.256 1176.24,160.256 1178.78,160.256 1181.31,160.256 1183.85,160.256 1186.38,160.256 1188.92,160.256 1191.45,160.256 1193.99,160.256 1196.53,160.256 1199.06,160.256 1201.6,160.256 1204.13,160.256 1206.67,160.256 1209.21,160.256 1211.74,160.256 1214.28,160.256 1216.81,160.256 1219.35,160.256 1221.88,160.256 1224.42,160.256 1226.96,160.256 1229.49,160.256 1232.03,160.256 1234.56,160.256 1237.1,160.256 1239.63,160.256 1242.17,160.256 1244.71,160.256 1247.24,160.256 1249.78,160.256 1252.31,160.256 1254.85,160.256 1257.38,160.256 1259.92,160.256 1262.46,160.256 1264.99,160.256 1267.53,160.256 1270.06,160.256 1272.6,160.256 1275.13,160.256 1277.67,160.256 1280.21,160.256 1282.74,160.256 1285.28,160.256 1287.81,160.256 1290.35,160.256 1292.89,160.256 1295.42,160.256 1297.96,160.256 1300.49,160.256 1303.03,160.256 1305.56,160.256 1308.1,160.256 1310.64,160.256 1313.17,160.256 1315.71,160.256 1318.24,160.256 1320.78,160.256 1323.31,160.256 1325.85,160.256 1328.39,160.256 1330.92,160.256 1333.46,160.256 1335.99,160.256 1338.53,160.256 1341.06,160.256 1343.6,160.256 1346.14,160.256 1348.67,160.256 1351.21,160.256 1353.74,160.256 1356.28,160.256 1358.81,160.256 1361.35,160.256 1363.89,160.256 1366.42,160.256 1368.96,160.256 1371.49,160.256 1374.03,160.256 1376.57,160.256 1379.1,160.256 1381.64,160.256 1384.17,160.256 1386.71,160.256 1389.24,160.256 1391.78,160.256 1394.32,160.256 1396.85,160.256 1399.39,160.256 1401.92,160.256 1404.46,160.256 1406.99,160.256 1409.53,160.256 1412.07,160.256 1414.6,160.256 1417.14,160.256 1419.67,160.256 1422.21,160.256 1424.74,160.256 1427.28,160.256 1429.82,160.256 1432.35,160.256 1434.89,160.256 1437.42,160.256 1439.96,160.256 1442.49,160.256 1445.03,160.256 1447.57,160.256 1450.1,160.256 1452.64,160.256 1455.17,160.256 1457.71,160.256 1460.25,160.256 1462.78,160.256 1465.32,160.256 1467.85,160.256 1470.39,160.256 1472.92,160.256 1475.46,160.256 1478,160.256 1480.53,160.256 1483.07,160.256 1485.6,160.256 1488.14,160.256 1490.67,160.256 1493.21,160.256 1495.75,160.256 1498.28,160.256 1500.82,160.256 1503.35,160.256 1505.89,160.256 1508.42,160.256 1510.96,160.256 1513.5,160.256 1516.03,160.256 1518.57,160.256 1521.1,160.256 1523.64,160.256 1526.17,160.256 1528.71,160.256 1531.25,160.256 1533.78,160.256 1536.32,160.256 1538.85,160.256 1541.39,160.256 1543.93,160.256 1546.46,160.256 1549,160.256 1551.53,160.256 1554.07,160.256 1556.6,160.256 1559.14,160.256 1561.68,160.256 1564.21,160.256 1566.75,160.256 1569.28,160.256 1571.82,160.256 1574.35,160.256 1576.89,160.256 1579.43,160.256 1581.96,160.256 1584.5,160.256 1587.03,160.256 1589.57,160.256 1592.1,160.256 1594.64,160.256 1597.18,160.256 1599.71,160.256 1602.25,160.256 1604.78,160.256 1607.32,160.256 1609.85,160.256 1612.39,160.256 1614.93,160.256 1617.46,160.256 1620,160.256 1622.53,160.256 1625.07,160.256 1627.61,160.256 1630.14,160.256 1632.68,160.256 1635.21,160.256 1637.75,160.256 1640.28,160.256 1642.82,160.256 1645.36,160.256 1647.89,160.256 1650.43,160.256 1652.96,160.256 1655.5,160.256 1658.03,160.256 1660.57,160.256 1663.11,160.256 1665.64,160.256 1668.18,160.256 1670.71,160.256 1673.25,160.256 1675.78,160.256 1678.32,160.256 1680.86,160.256 1683.39,160.256 1685.93,160.256 1688.46,160.256 1691,160.256 1693.53,160.256 1696.07,160.256 1698.61,160.256 1701.14,160.256 1703.68,160.256 1706.21,160.256 1708.75,160.256 1711.29,160.256 1713.82,160.256 1716.36,160.256 1718.89,160.256 1721.43,160.256 1723.96,160.256 1726.5,160.256 1729.04,160.256 1731.57,160.256 1734.11,160.256 1736.64,160.256 1739.18,160.256 1741.71,160.256 1744.25,160.256 1746.79,160.256 1749.32,160.256 1751.86,160.256 1754.39,160.256 1756.93,160.256 1759.46,160.256 1762,160.256 1764.54,160.256 1767.07,160.256 1769.61,160.256 1772.14,160.256 1774.68,160.256 1777.21,160.256 1779.75,160.256 1782.29,160.256 1784.82,160.256 1787.36,160.256 1789.89,160.256 1792.43,160.256 1794.97,160.256 1797.5,160.256 1800.04,160.256 1802.57,160.256 1805.11,160.256 1807.64,160.256 1810.18,160.256 1812.72,160.256 1815.25,160.256 1817.79,160.256 1820.32,160.256 1822.86,160.256 1825.39,160.256 1827.93,160.256 1830.47,160.256 1833,160.256 1835.54,160.256 1838.07,160.256 1840.61,160.256 1843.14,160.256 1845.68,160.256 1848.22,160.256 1850.75,160.256 1853.29,160.256 1855.82,160.256 1858.36,160.256 1860.89,160.256 1863.43,160.256 1865.97,160.256 1868.5,160.256 1871.04,160.256 1873.57,160.256 1876.11,160.256 1878.65,160.256 1881.18,160.256 1883.72,160.256 1886.25,160.256 1888.79,160.256 1891.32,160.256 1893.86,160.256 1896.4,160.256 1898.93,160.256 1901.47,160.256 1904,160.256 1906.54,160.256 1909.07,160.256 1911.61,160.256 1914.15,160.256 1916.68,160.256 1919.22,160.256 1921.75,160.256 1924.29,160.256 1926.82,160.256 1929.36,160.256 1931.9,160.256 1934.43,160.256 1936.97,160.256 1939.5,160.256 1942.04,160.256 1944.57,160.256 1947.11,160.256 1949.65,160.256 1952.18,160.256 1954.72,160.256 1957.25,160.256 1959.79,160.256 1962.33,160.256 1964.86,160.256 1967.4,160.256 1969.93,160.256 1972.47,160.256 1975,160.256 1977.54,160.256 1980.08,160.256 1982.61,160.256 1985.15,160.256 1987.68,160.256 1990.22,160.256 1992.75,160.256 1995.29,160.256 1997.83,160.256 2000.36,160.256 2002.9,160.256 2005.43,160.256 2007.97,160.256 2010.5,160.256 2013.04,160.256 2015.58,160.256 2018.11,160.256 2020.65,160.256 2023.18,160.256 2025.72,160.256 2028.25,160.256 2030.79,160.256 2033.33,160.256 2035.86,160.256 2038.4,160.256 2040.93,160.256 2043.47,160.256 2046.01,160.256 2048.54,160.256 2051.08,160.256 2053.61,160.256 2056.15,160.256 2058.68,160.256 2061.22,160.256 2063.76,160.256 2066.29,160.256 2068.83,160.256 2071.36,160.256 2073.9,160.256 2076.43,160.256 2078.97,160.256 2081.51,160.256 2084.04,160.256 2086.58,160.256 2089.11,160.256 2091.65,160.256 2094.18,160.256 2096.72,160.256 2099.26,160.256 2101.79,160.256 2104.33,160.256 2106.86,160.256 2109.4,160.256 2111.93,160.256 2114.47,160.256 2117.01,160.256 2119.54,160.256 2122.08,160.256 2124.61,160.256 2127.15,160.256 2129.69,160.256 2132.22,160.256 2134.76,160.256 2137.29,160.256 2139.83,160.256 2142.36,160.256 2144.9,160.256 2147.44,160.256 2149.97,160.256 2152.51,160.256 2155.04,160.256 2157.58,160.256 2160.11,160.256 2162.65,160.256 2165.19,160.256 2167.72,160.256 2170.26,160.256 2172.79,160.256 2175.33,160.256 2177.86,160.256 2180.4,160.256 2182.94,160.256 2185.47,160.256 2188.01,160.256 2190.54,160.256 2193.08,160.256 2195.61,160.256 2198.15,160.256 2200.69,160.256 2203.22,160.256 2205.76,160.256 2208.29,160.256 2210.83,160.256 2213.37,160.256 2215.9,160.256 2218.44,160.256 2220.97,160.256 2223.51,160.256 2226.04,160.256 2228.58,160.256 2231.12,160.256 2233.65,160.256 2236.19,160.256 2238.72,160.256 2241.26,160.256 2243.79,160.256 2246.33,160.256 2248.87,160.256 2251.4,160.256 2253.94,160.256 2256.47,160.256 2259.01,160.256 2261.54,160.256 2264.08,160.256 2266.62,160.256 2269.15,160.256 2271.69,160.256 2274.22,160.256 2276.76,160.256 2279.29,160.256 2281.83,160.256 2284.37,160.256 2286.9,160.256 2289.44,160.256 2291.97,160.256 "></polyline>
<polyline clip-path="url(#clip712)" style="stroke:#e26f46; stroke-linecap:round; stroke-linejoin:round; stroke-width:4; stroke-opacity:1; fill:none" points="265.903,1386.4 268.439,1380.26 270.975,1374.13 273.51,1368.03 276.046,1361.93 278.582,1355.86 281.118,1349.79 283.653,1343.75 286.189,1337.72 288.725,1331.7 291.261,1325.7 293.796,1319.71 296.332,1313.74 298.868,1307.78 301.404,1301.84 303.939,1295.91 306.475,1290 309.011,1284.1 311.547,1278.22 314.082,1272.35 316.618,1266.5 319.154,1260.66 321.69,1254.83 324.226,1249.02 326.761,1243.23 329.297,1237.45 331.833,1231.68 334.369,1225.93 336.904,1220.19 339.44,1214.47 341.976,1208.76 344.512,1203.06 347.047,1197.38 349.583,1191.72 352.119,1186.06 354.655,1180.43 357.19,1174.8 359.726,1169.19 362.262,1163.6 364.798,1158.01 367.333,1152.44 369.869,1146.89 372.405,1141.35 374.941,1135.82 377.476,1130.31 380.012,1124.81 382.548,1119.33 385.084,1113.86 387.619,1108.4 390.155,1102.95 392.691,1097.52 395.227,1092.11 397.763,1086.7 400.298,1081.31 402.834,1075.93 405.37,1070.57 407.906,1065.22 410.441,1059.89 412.977,1054.56 415.513,1049.25 418.049,1043.96 420.584,1038.67 423.12,1033.4 425.656,1028.15 428.192,1022.9 430.727,1017.67 433.263,1012.45 435.799,1007.25 438.335,1002.06 440.87,996.877 443.406,991.712 445.942,986.559 448.478,981.419 451.013,976.291 453.549,971.177 456.085,966.075 458.621,960.986 461.156,955.91 463.692,950.847 466.228,945.796 468.764,940.757 471.299,935.732 473.835,930.719 476.371,925.718 478.907,920.73 481.443,915.754 483.978,910.791 486.514,905.84 489.05,900.901 491.586,895.975 494.121,891.061 496.657,886.16 499.193,881.27 501.729,876.393 504.264,871.528 506.8,866.675 509.336,861.835 511.872,857.006 514.407,852.189 516.943,847.385 519.479,842.592 522.015,837.812 524.55,833.043 527.086,828.286 529.622,823.541 532.158,818.808 534.693,814.087 537.229,809.378 539.765,804.68 542.301,799.994 544.836,795.32 547.372,790.657 549.908,786.006 552.444,781.367 554.98,776.739 557.515,772.123 560.051,767.519 562.587,762.925 565.123,758.344 567.658,753.774 570.194,749.215 572.73,744.667 575.266,740.131 577.801,735.606 580.337,731.093 582.873,726.591 585.409,722.1 587.944,717.62 590.48,713.152 593.016,708.694 595.552,704.248 598.087,699.813 600.623,695.389 603.159,690.976 605.695,686.574 608.23,682.183 610.766,677.802 613.302,673.433 615.838,669.075 618.373,664.728 620.909,660.391 623.445,656.066 625.981,651.751 628.516,647.447 631.052,643.153 633.588,638.871 636.124,634.599 638.66,630.338 641.195,626.087 643.731,621.847 646.267,617.617 648.803,613.399 651.338,609.19 653.874,604.992 656.41,600.805 658.946,596.628 661.481,592.462 664.017,588.306 666.553,584.16 669.089,580.025 671.624,575.9 674.16,571.785 676.696,567.681 679.232,563.586 681.767,559.503 684.303,555.429 686.839,551.365 689.375,547.312 691.91,543.268 694.446,539.235 696.982,535.212 699.518,531.199 702.053,527.196 704.589,523.203 707.125,519.22 709.661,515.246 712.197,511.283 714.732,507.33 717.268,503.386 719.804,499.453 722.34,495.529 724.875,491.615 727.411,487.711 729.947,483.816 732.483,479.931 735.018,476.056 737.554,472.191 740.09,468.335 742.626,464.489 745.161,460.653 747.697,456.826 750.233,453.008 752.769,449.2 755.304,445.402 757.84,441.613 760.376,437.834 762.912,434.064 765.447,430.303 767.983,426.552 770.519,422.81 773.055,419.078 775.59,415.355 778.126,411.641 780.662,407.936 783.198,404.241 785.733,400.555 788.269,396.878 790.805,393.21 793.341,389.552 795.877,385.902 798.412,382.262 800.948,378.631 803.484,375.009 806.02,371.396 808.555,367.792 811.091,364.197 813.627,360.61 816.163,357.033 818.698,353.465 821.234,349.906 823.77,346.355 826.306,342.814 828.841,339.281 831.377,335.757 833.913,332.242 836.449,328.736 838.984,325.238 841.52,321.749 844.056,318.269 846.592,314.798 849.127,311.335 851.663,307.881 854.199,304.436 856.735,300.999 859.27,297.57 861.806,294.151 864.342,290.739 866.878,287.337 869.414,283.943 871.949,280.557 874.485,277.18 877.021,273.811 879.557,270.45 882.092,267.098 884.628,263.755 887.164,260.419 889.7,257.092 892.235,253.774 894.771,250.463 897.307,247.161 899.843,243.867 902.378,240.582 904.914,237.304 907.45,234.035 909.986,230.774 912.521,227.521 915.057,224.276 917.593,221.039 920.129,217.811 922.664,214.59 925.2,211.377 927.736,208.173 930.272,204.976 932.807,201.788 935.343,198.607 937.879,195.435 940.415,192.27 942.95,189.113 945.486,185.964 948.022,182.823 950.558,179.69 953.094,176.564 955.629,173.447 958.165,170.337 960.701,167.235 963.237,164.141 965.772,161.054 968.308,160.256 970.844,160.256 973.38,160.256 975.915,160.256 978.451,160.256 980.987,160.256 983.523,160.256 986.058,160.256 988.594,160.256 991.13,160.256 993.666,160.256 996.201,160.256 998.737,160.256 1001.27,160.256 1003.81,160.256 1006.34,160.256 1008.88,160.256 1011.42,160.256 1013.95,160.256 1016.49,160.256 1019.02,160.256 1021.56,160.256 1024.09,160.256 1026.63,160.256 1029.17,160.256 1031.7,160.256 1034.24,160.256 1036.77,160.256 1039.31,160.256 1041.85,160.256 1044.38,160.256 1046.92,160.256 1049.45,160.256 1051.99,160.256 1054.52,160.256 1057.06,160.256 1059.6,160.256 1062.13,160.256 1064.67,160.256 1067.2,160.256 1069.74,160.256 1072.27,160.256 1074.81,160.256 1077.35,160.256 1079.88,160.256 1082.42,160.256 1084.95,160.256 1087.49,160.256 1090.02,160.256 1092.56,160.256 1095.1,160.256 1097.63,160.256 1100.17,160.256 1102.7,160.256 1105.24,160.256 1107.77,160.256 1110.31,160.256 1112.85,160.256 1115.38,160.256 1117.92,160.256 1120.45,160.256 1122.99,160.256 1125.53,160.256 1128.06,160.256 1130.6,160.256 1133.13,160.256 1135.67,160.256 1138.2,160.256 1140.74,160.256 1143.28,160.256 1145.81,160.256 1148.35,160.256 1150.88,160.256 1153.42,160.256 1155.95,160.256 1158.49,160.256 1161.03,160.256 1163.56,160.256 1166.1,160.256 1168.63,160.256 1171.17,160.256 1173.7,160.256 1176.24,160.256 1178.78,160.256 1181.31,160.256 1183.85,160.256 1186.38,160.256 1188.92,160.256 1191.45,160.256 1193.99,160.256 1196.53,160.256 1199.06,160.256 1201.6,160.256 1204.13,160.256 1206.67,160.256 1209.21,160.256 1211.74,160.256 1214.28,160.256 1216.81,160.256 1219.35,160.256 1221.88,160.256 1224.42,160.256 1226.96,160.256 1229.49,160.256 1232.03,160.256 1234.56,160.256 1237.1,160.256 1239.63,160.256 1242.17,160.256 1244.71,160.256 1247.24,160.256 1249.78,160.256 1252.31,160.256 1254.85,160.256 1257.38,160.256 1259.92,160.256 1262.46,160.256 1264.99,160.256 1267.53,160.256 1270.06,160.256 1272.6,160.256 1275.13,160.256 1277.67,160.256 1280.21,160.256 1282.74,160.256 1285.28,160.256 1287.81,160.256 1290.35,160.256 1292.89,160.256 1295.42,160.256 1297.96,160.256 1300.49,160.256 1303.03,160.256 1305.56,160.256 1308.1,160.256 1310.64,160.256 1313.17,160.256 1315.71,160.256 1318.24,160.256 1320.78,160.256 1323.31,160.256 1325.85,160.256 1328.39,160.256 1330.92,160.256 1333.46,160.256 1335.99,160.256 1338.53,160.256 1341.06,160.256 1343.6,160.256 1346.14,160.256 1348.67,160.256 1351.21,160.256 1353.74,160.256 1356.28,160.256 1358.81,160.256 1361.35,160.256 1363.89,160.256 1366.42,160.256 1368.96,160.256 1371.49,160.256 1374.03,160.256 1376.57,160.256 1379.1,160.256 1381.64,160.256 1384.17,160.256 1386.71,160.256 1389.24,160.256 1391.78,160.256 1394.32,160.256 1396.85,160.256 1399.39,160.256 1401.92,160.256 1404.46,160.256 1406.99,160.256 1409.53,160.256 1412.07,160.256 1414.6,160.256 1417.14,160.256 1419.67,160.256 1422.21,160.256 1424.74,160.256 1427.28,160.256 1429.82,160.256 1432.35,160.256 1434.89,160.256 1437.42,160.256 1439.96,160.256 1442.49,160.256 1445.03,160.256 1447.57,160.256 1450.1,160.256 1452.64,160.256 1455.17,160.256 1457.71,160.256 1460.25,160.256 1462.78,160.256 1465.32,160.256 1467.85,160.256 1470.39,160.256 1472.92,160.256 1475.46,160.256 1478,160.256 1480.53,160.256 1483.07,160.256 1485.6,160.256 1488.14,160.256 1490.67,160.256 1493.21,160.256 1495.75,160.256 1498.28,160.256 1500.82,160.256 1503.35,160.256 1505.89,160.256 1508.42,160.256 1510.96,160.256 1513.5,160.256 1516.03,160.256 1518.57,160.256 1521.1,160.256 1523.64,160.256 1526.17,160.256 1528.71,160.256 1531.25,160.256 1533.78,160.256 1536.32,160.256 1538.85,160.256 1541.39,160.256 1543.93,160.256 1546.46,160.256 1549,160.256 1551.53,160.256 1554.07,160.256 1556.6,160.256 1559.14,160.256 1561.68,160.256 1564.21,160.256 1566.75,160.256 1569.28,160.256 1571.82,160.256 1574.35,160.256 1576.89,160.256 1579.43,160.256 1581.96,160.256 1584.5,160.256 1587.03,160.256 1589.57,160.256 1592.1,160.256 1594.64,160.256 1597.18,160.256 1599.71,160.256 1602.25,160.256 1604.78,160.256 1607.32,160.256 1609.85,160.256 1612.39,160.256 1614.93,160.256 1617.46,160.256 1620,160.256 1622.53,160.256 1625.07,160.256 1627.61,160.256 1630.14,160.256 1632.68,160.256 1635.21,160.256 1637.75,160.256 1640.28,160.256 1642.82,160.256 1645.36,160.256 1647.89,160.256 1650.43,160.256 1652.96,160.256 1655.5,160.256 1658.03,160.256 1660.57,160.256 1663.11,160.256 1665.64,160.256 1668.18,160.256 1670.71,160.256 1673.25,160.256 1675.78,160.256 1678.32,160.256 1680.86,160.256 1683.39,160.256 1685.93,160.256 1688.46,160.256 1691,160.256 1693.53,160.256 1696.07,160.256 1698.61,160.256 1701.14,160.256 1703.68,160.256 1706.21,160.256 1708.75,160.256 1711.29,160.256 1713.82,160.256 1716.36,160.256 1718.89,160.256 1721.43,160.256 1723.96,160.256 1726.5,160.256 1729.04,160.256 1731.57,160.256 1734.11,160.256 1736.64,160.256 1739.18,160.256 1741.71,160.256 1744.25,160.256 1746.79,160.256 1749.32,160.256 1751.86,160.256 1754.39,160.256 1756.93,160.256 1759.46,160.256 1762,160.256 1764.54,160.256 1767.07,160.256 1769.61,160.256 1772.14,160.256 1774.68,160.256 1777.21,160.256 1779.75,160.256 1782.29,160.256 1784.82,160.256 1787.36,160.256 1789.89,160.256 1792.43,160.256 1794.97,160.256 1797.5,160.256 1800.04,160.256 1802.57,160.256 1805.11,160.256 1807.64,160.256 1810.18,160.256 1812.72,160.256 1815.25,160.256 1817.79,160.256 1820.32,160.256 1822.86,160.256 1825.39,160.256 1827.93,160.256 1830.47,160.256 1833,160.256 1835.54,160.256 1838.07,160.256 1840.61,160.256 1843.14,160.256 1845.68,160.256 1848.22,160.256 1850.75,160.256 1853.29,160.256 1855.82,160.256 1858.36,160.256 1860.89,160.256 1863.43,160.256 1865.97,160.256 1868.5,160.256 1871.04,160.256 1873.57,160.256 1876.11,160.256 1878.65,160.256 1881.18,160.256 1883.72,160.256 1886.25,160.256 1888.79,160.256 1891.32,160.256 1893.86,160.256 1896.4,160.256 1898.93,160.256 1901.47,160.256 1904,160.256 1906.54,160.256 1909.07,160.256 1911.61,160.256 1914.15,160.256 1916.68,160.256 1919.22,160.256 1921.75,160.256 1924.29,160.256 1926.82,160.256 1929.36,160.256 1931.9,160.256 1934.43,160.256 1936.97,160.256 1939.5,160.256 1942.04,160.256 1944.57,160.256 1947.11,160.256 1949.65,160.256 1952.18,160.256 1954.72,160.256 1957.25,160.256 1959.79,160.256 1962.33,160.256 1964.86,160.256 1967.4,160.256 1969.93,160.256 1972.47,160.256 1975,160.256 1977.54,160.256 1980.08,160.256 1982.61,160.256 1985.15,160.256 1987.68,160.256 1990.22,160.256 1992.75,160.256 1995.29,160.256 1997.83,160.256 2000.36,160.256 2002.9,160.256 2005.43,160.256 2007.97,160.256 2010.5,160.256 2013.04,160.256 2015.58,160.256 2018.11,160.256 2020.65,160.256 2023.18,160.256 2025.72,160.256 2028.25,160.256 2030.79,160.256 2033.33,160.256 2035.86,160.256 2038.4,160.256 2040.93,160.256 2043.47,160.256 2046.01,160.256 2048.54,160.256 2051.08,160.256 2053.61,160.256 2056.15,160.256 2058.68,160.256 2061.22,160.256 2063.76,160.256 2066.29,160.256 2068.83,160.256 2071.36,160.256 2073.9,160.256 2076.43,160.256 2078.97,160.256 2081.51,160.256 2084.04,160.256 2086.58,160.256 2089.11,160.256 2091.65,160.256 2094.18,160.256 2096.72,160.256 2099.26,160.256 2101.79,160.256 2104.33,160.256 2106.86,160.256 2109.4,160.256 2111.93,160.256 2114.47,160.256 2117.01,160.256 2119.54,160.256 2122.08,160.256 2124.61,160.256 2127.15,160.256 2129.69,160.256 2132.22,160.256 2134.76,160.256 2137.29,160.256 2139.83,160.256 2142.36,160.256 2144.9,160.256 2147.44,160.256 2149.97,160.256 2152.51,160.256 2155.04,160.256 2157.58,160.256 2160.11,160.256 2162.65,160.256 2165.19,160.256 2167.72,160.256 2170.26,160.256 2172.79,160.256 2175.33,160.256 2177.86,160.256 2180.4,160.256 2182.94,160.256 2185.47,160.256 2188.01,160.256 2190.54,160.256 2193.08,160.256 2195.61,160.256 2198.15,160.256 2200.69,160.256 2203.22,160.256 2205.76,160.256 2208.29,160.256 2210.83,160.256 2213.37,160.256 2215.9,160.256 2218.44,160.256 2220.97,160.256 2223.51,160.256 2226.04,160.256 2228.58,160.256 2231.12,160.256 2233.65,160.256 2236.19,160.256 2238.72,160.256 2241.26,160.256 2243.79,160.256 2246.33,160.256 2248.87,160.256 2251.4,160.256 2253.94,160.256 2256.47,160.256 2259.01,160.256 2261.54,160.256 2264.08,160.256 2266.62,160.256 2269.15,160.256 2271.69,160.256 2274.22,160.256 2276.76,160.256 2279.29,160.256 2281.83,160.256 2284.37,160.256 2286.9,160.256 2289.44,160.256 2291.97,160.256 "></polyline>
<path clip-path="url(#clip710)" d="M276.709 322.316 L708.786 322.316 L708.786 166.796 L276.709 166.796  Z" fill="#ffffff" fill-rule="evenodd" fill-opacity="1"></path>
<polyline clip-path="url(#clip710)" style="stroke:#000000; stroke-linecap:round; stroke-linejoin:round; stroke-width:4; stroke-opacity:1; fill:none" points="276.709,322.316 708.786,322.316 708.786,166.796 276.709,166.796 276.709,322.316 "></polyline>
<polyline clip-path="url(#clip710)" style="stroke:#009af9; stroke-linecap:round; stroke-linejoin:round; stroke-width:4; stroke-opacity:1; fill:none" points="300.571,218.636 443.747,218.636 "></polyline>
<path clip-path="url(#clip710)" d="M467.61 201.356 L473.906 201.356 L489.23 230.268 L489.23 201.356 L493.767 201.356 L493.767 235.916 L487.471 235.916 L472.147 207.004 L472.147 235.916 L467.61 235.916 L467.61 201.356 Z" fill="#000000" fill-rule="nonzero" fill-opacity="1"></path><path clip-path="url(#clip710)" d="M502.447 225.684 L502.447 209.99 L506.707 209.99 L506.707 225.522 Q506.707 229.203 508.142 231.055 Q509.577 232.883 512.447 232.883 Q515.896 232.883 517.887 230.684 Q519.901 228.485 519.901 224.689 L519.901 209.99 L524.16 209.99 L524.16 235.916 L519.901 235.916 L519.901 231.934 Q518.35 234.295 516.29 235.453 Q514.253 236.587 511.545 236.587 Q507.077 236.587 504.762 233.809 Q502.447 231.031 502.447 225.684 M513.165 209.365 L513.165 209.365 Z" fill="#000000" fill-rule="nonzero" fill-opacity="1"></path><path clip-path="url(#clip710)" d="M553.118 214.967 Q554.716 212.096 556.938 210.731 Q559.16 209.365 562.169 209.365 Q566.22 209.365 568.419 212.212 Q570.618 215.036 570.618 220.268 L570.618 235.916 L566.336 235.916 L566.336 220.407 Q566.336 216.68 565.017 214.874 Q563.697 213.069 560.989 213.069 Q557.679 213.069 555.757 215.268 Q553.836 217.467 553.836 221.263 L553.836 235.916 L549.554 235.916 L549.554 220.407 Q549.554 216.657 548.234 214.874 Q546.915 213.069 544.16 213.069 Q540.896 213.069 538.975 215.291 Q537.054 217.49 537.054 221.263 L537.054 235.916 L532.771 235.916 L532.771 209.99 L537.054 209.99 L537.054 214.018 Q538.512 211.633 540.549 210.499 Q542.586 209.365 545.387 209.365 Q548.211 209.365 550.179 210.8 Q552.169 212.235 553.118 214.967 Z" fill="#000000" fill-rule="nonzero" fill-opacity="1"></path><path clip-path="url(#clip710)" d="M601.29 221.888 L601.29 223.971 L581.706 223.971 Q581.984 228.369 584.345 230.684 Q586.729 232.976 590.966 232.976 Q593.419 232.976 595.711 232.374 Q598.026 231.772 600.294 230.569 L600.294 234.596 Q598.003 235.568 595.595 236.078 Q593.188 236.587 590.711 236.587 Q584.507 236.587 580.873 232.976 Q577.262 229.365 577.262 223.207 Q577.262 216.842 580.688 213.115 Q584.137 209.365 589.97 209.365 Q595.202 209.365 598.234 212.745 Q601.29 216.101 601.29 221.888 M597.03 220.638 Q596.984 217.143 595.063 215.059 Q593.165 212.976 590.016 212.976 Q586.452 212.976 584.299 214.99 Q582.169 217.004 581.845 220.661 L597.03 220.638 Z" fill="#000000" fill-rule="nonzero" fill-opacity="1"></path><path clip-path="url(#clip710)" d="M623.303 213.971 Q622.586 213.555 621.729 213.37 Q620.896 213.161 619.877 213.161 Q616.266 213.161 614.322 215.522 Q612.401 217.86 612.401 222.258 L612.401 235.916 L608.118 235.916 L608.118 209.99 L612.401 209.99 L612.401 214.018 Q613.743 211.657 615.896 210.522 Q618.049 209.365 621.127 209.365 Q621.567 209.365 622.1 209.434 Q622.632 209.481 623.28 209.596 L623.303 213.971 Z" fill="#000000" fill-rule="nonzero" fill-opacity="1"></path><path clip-path="url(#clip710)" d="M627.771 209.99 L632.03 209.99 L632.03 235.916 L627.771 235.916 L627.771 209.99 M627.771 199.897 L632.03 199.897 L632.03 205.291 L627.771 205.291 L627.771 199.897 Z" fill="#000000" fill-rule="nonzero" fill-opacity="1"></path><path clip-path="url(#clip710)" d="M659.599 210.985 L659.599 214.967 Q657.794 213.971 655.965 213.485 Q654.16 212.976 652.308 212.976 Q648.164 212.976 645.873 215.615 Q643.581 218.231 643.581 222.976 Q643.581 227.721 645.873 230.36 Q648.164 232.976 652.308 232.976 Q654.16 232.976 655.965 232.49 Q657.794 231.981 659.599 230.985 L659.599 234.92 Q657.817 235.754 655.896 236.17 Q653.998 236.587 651.845 236.587 Q645.988 236.587 642.539 232.906 Q639.09 229.226 639.09 222.976 Q639.09 216.633 642.562 212.999 Q646.058 209.365 652.123 209.365 Q654.09 209.365 655.965 209.782 Q657.84 210.175 659.599 210.985 Z" fill="#000000" fill-rule="nonzero" fill-opacity="1"></path><path clip-path="url(#clip710)" d="M683.534 210.754 L683.534 214.782 Q681.729 213.856 679.784 213.393 Q677.84 212.93 675.757 212.93 Q672.585 212.93 670.988 213.902 Q669.414 214.874 669.414 216.819 Q669.414 218.3 670.548 219.157 Q671.683 219.99 675.109 220.754 L676.567 221.078 Q681.104 222.05 683.002 223.832 Q684.923 225.592 684.923 228.763 Q684.923 232.374 682.053 234.481 Q679.206 236.587 674.206 236.587 Q672.122 236.587 669.854 236.17 Q667.609 235.777 665.109 234.967 L665.109 230.569 Q667.47 231.795 669.761 232.42 Q672.053 233.022 674.298 233.022 Q677.308 233.022 678.928 232.004 Q680.548 230.962 680.548 229.087 Q680.548 227.351 679.368 226.425 Q678.21 225.499 674.252 224.643 L672.771 224.295 Q668.812 223.462 667.053 221.749 Q665.294 220.013 665.294 217.004 Q665.294 213.346 667.886 211.356 Q670.479 209.365 675.247 209.365 Q677.609 209.365 679.692 209.712 Q681.775 210.059 683.534 210.754 Z" fill="#000000" fill-rule="nonzero" fill-opacity="1"></path><polyline clip-path="url(#clip710)" style="stroke:#e26f46; stroke-linecap:round; stroke-linejoin:round; stroke-width:4; stroke-opacity:1; fill:none" points="300.571,270.476 443.747,270.476 "></polyline>
<path clip-path="url(#clip710)" d="M467.61 253.196 L489.461 253.196 L489.461 257.131 L472.286 257.131 L472.286 267.362 L488.744 267.362 L488.744 271.297 L472.286 271.297 L472.286 283.821 L489.878 283.821 L489.878 287.756 L467.61 287.756 L467.61 253.196 Z" fill="#000000" fill-rule="nonzero" fill-opacity="1"></path><path clip-path="url(#clip710)" d="M518.929 261.83 L509.554 274.446 L519.415 287.756 L514.392 287.756 L506.846 277.571 L499.299 287.756 L494.276 287.756 L504.346 274.191 L495.133 261.83 L500.156 261.83 L507.031 271.066 L513.906 261.83 L518.929 261.83 Z" fill="#000000" fill-rule="nonzero" fill-opacity="1"></path><path clip-path="url(#clip710)" d="M537.216 274.723 Q532.054 274.723 530.063 275.904 Q528.072 277.084 528.072 279.932 Q528.072 282.2 529.554 283.543 Q531.058 284.862 533.628 284.862 Q537.17 284.862 539.299 282.362 Q541.452 279.839 541.452 275.672 L541.452 274.723 L537.216 274.723 M545.711 272.964 L545.711 287.756 L541.452 287.756 L541.452 283.821 Q539.994 286.182 537.818 287.316 Q535.642 288.427 532.494 288.427 Q528.512 288.427 526.151 286.205 Q523.813 283.959 523.813 280.209 Q523.813 275.834 526.73 273.612 Q529.67 271.39 535.48 271.39 L541.452 271.39 L541.452 270.973 Q541.452 268.034 539.507 266.436 Q537.586 264.816 534.091 264.816 Q531.869 264.816 529.762 265.348 Q527.656 265.881 525.711 266.946 L525.711 263.01 Q528.049 262.108 530.248 261.668 Q532.447 261.205 534.531 261.205 Q540.156 261.205 542.933 264.122 Q545.711 267.038 545.711 272.964 Z" fill="#000000" fill-rule="nonzero" fill-opacity="1"></path><path clip-path="url(#clip710)" d="M573.142 262.825 L573.142 266.807 Q571.336 265.811 569.507 265.325 Q567.702 264.816 565.85 264.816 Q561.706 264.816 559.415 267.455 Q557.123 270.071 557.123 274.816 Q557.123 279.561 559.415 282.2 Q561.706 284.816 565.85 284.816 Q567.702 284.816 569.507 284.33 Q571.336 283.821 573.142 282.825 L573.142 286.76 Q571.359 287.594 569.438 288.01 Q567.54 288.427 565.387 288.427 Q559.53 288.427 556.081 284.746 Q552.632 281.066 552.632 274.816 Q552.632 268.473 556.105 264.839 Q559.6 261.205 565.665 261.205 Q567.632 261.205 569.507 261.622 Q571.382 262.015 573.142 262.825 Z" fill="#000000" fill-rule="nonzero" fill-opacity="1"></path><path clip-path="url(#clip710)" d="M584.762 254.469 L584.762 261.83 L593.535 261.83 L593.535 265.14 L584.762 265.14 L584.762 279.214 Q584.762 282.385 585.618 283.288 Q586.498 284.191 589.16 284.191 L593.535 284.191 L593.535 287.756 L589.16 287.756 Q584.229 287.756 582.354 285.927 Q580.479 284.075 580.479 279.214 L580.479 265.14 L577.354 265.14 L577.354 261.83 L580.479 261.83 L580.479 254.469 L584.762 254.469 Z" fill="#000000" fill-rule="nonzero" fill-opacity="1"></path></svg>