<svg xmlns="http://www.w3.org/2000/svg" xmlns:xlink="http://www.w3.org/1999/xlink" width="600" height="400" viewBox="0 0 2400 1600">
<defs>
  <clipPath id="clip030">
    <rect x="0" y="0" width="2400" height="1600"></rect>
  </clipPath>
</defs>
<path clip-path="url(#clip030)" d="M0 1600 L2400 1600 L2400 8.88178e-14 L0 8.88178e-14  Z" fill="#ffffff" fill-rule="evenodd" fill-opacity="1"></path>
<defs>
  <clipPath id="clip031">
    <rect x="480" y="0" width="1681" height="1600"></rect>
  </clipPath>
</defs>
<path clip-path="url(#clip030)" d="M205.121 1423.18 L2352.76 1423.18 L2352.76 47.2441 L205.121 47.2441  Z" fill="#ffffff" fill-rule="evenodd" fill-opacity="1"></path>
<defs>
  <clipPath id="clip032">
    <rect x="205" y="47" width="2149" height="1377"></rect>
  </clipPath>
</defs>
<polyline clip-path="url(#clip032)" style="stroke:#000000; stroke-linecap:round; stroke-linejoin:round; stroke-width:2; stroke-opacity:0.1; fill:none" points="263.367,1423.18 263.367,47.2441 "></polyline>
<polyline clip-path="url(#clip032)" style="stroke:#000000; stroke-linecap:round; stroke-linejoin:round; stroke-width:2; stroke-opacity:0.1; fill:none" points="770.519,1423.18 770.519,47.2441 "></polyline>
<polyline clip-path="url(#clip032)" style="stroke:#000000; stroke-linecap:round; stroke-linejoin:round; stroke-width:2; stroke-opacity:0.1; fill:none" points="1277.67,1423.18 1277.67,47.2441 "></polyline>
<polyline clip-path="url(#clip032)" style="stroke:#000000; stroke-linecap:round; stroke-linejoin:round; stroke-width:2; stroke-opacity:0.1; fill:none" points="1784.82,1423.18 1784.82,47.2441 "></polyline>
<polyline clip-path="url(#clip032)" style="stroke:#000000; stroke-linecap:round; stroke-linejoin:round; stroke-width:2; stroke-opacity:0.1; fill:none" points="2291.97,1423.18 2291.97,47.2441 "></polyline>
<polyline clip-path="url(#clip032)" style="stroke:#000000; stroke-linecap:round; stroke-linejoin:round; stroke-width:2; stroke-opacity:0.1; fill:none" points="205.121,1390.75 2352.76,1390.75 "></polyline>
<polyline clip-path="url(#clip032)" style="stroke:#000000; stroke-linecap:round; stroke-linejoin:round; stroke-width:2; stroke-opacity:0.1; fill:none" points="205.121,1129.84 2352.76,1129.84 "></polyline>
<polyline clip-path="url(#clip032)" style="stroke:#000000; stroke-linecap:round; stroke-linejoin:round; stroke-width:2; stroke-opacity:0.1; fill:none" points="205.121,868.926 2352.76,868.926 "></polyline>
<polyline clip-path="url(#clip032)" style="stroke:#000000; stroke-linecap:round; stroke-linejoin:round; stroke-width:2; stroke-opacity:0.1; fill:none" points="205.121,608.013 2352.76,608.013 "></polyline>
<polyline clip-path="url(#clip032)" style="stroke:#000000; stroke-linecap:round; stroke-linejoin:round; stroke-width:2; stroke-opacity:0.1; fill:none" points="205.121,347.099 2352.76,347.099 "></polyline>
<polyline clip-path="url(#clip032)" style="stroke:#000000; stroke-linecap:round; stroke-linejoin:round; stroke-width:2; stroke-opacity:0.1; fill:none" points="205.121,86.1857 2352.76,86.1857 "></polyline>
<polyline clip-path="url(#clip030)" style="stroke:#000000; stroke-linecap:round; stroke-linejoin:round; stroke-width:4; stroke-opacity:1; fill:none" points="205.121,1423.18 2352.76,1423.18 "></polyline>
<polyline clip-path="url(#clip030)" style="stroke:#000000; stroke-linecap:round; stroke-linejoin:round; stroke-width:4; stroke-opacity:1; fill:none" points="263.367,1423.18 263.367,1404.28 "></polyline>
<polyline clip-path="url(#clip030)" style="stroke:#000000; stroke-linecap:round; stroke-linejoin:round; stroke-width:4; stroke-opacity:1; fill:none" points="770.519,1423.18 770.519,1404.28 "></polyline>
<polyline clip-path="url(#clip030)" style="stroke:#000000; stroke-linecap:round; stroke-linejoin:round; stroke-width:4; stroke-opacity:1; fill:none" points="1277.67,1423.18 1277.67,1404.28 "></polyline>
<polyline clip-path="url(#clip030)" style="stroke:#000000; stroke-linecap:round; stroke-linejoin:round; stroke-width:4; stroke-opacity:1; fill:none" points="1784.82,1423.18 1784.82,1404.28 "></polyline>
<polyline clip-path="url(#clip030)" style="stroke:#000000; stroke-linecap:round; stroke-linejoin:round; stroke-width:4; stroke-opacity:1; fill:none" points="2291.97,1423.18 2291.97,1404.28 "></polyline>
<path clip-path="url(#clip030)" d="M263.367 1454.1 Q259.756 1454.1 257.928 1457.66 Q256.122 1461.2 256.122 1468.33 Q256.122 1475.44 257.928 1479.01 Q259.756 1482.55 263.367 1482.55 Q267.002 1482.55 268.807 1479.01 Q270.636 1475.44 270.636 1468.33 Q270.636 1461.2 268.807 1457.66 Q267.002 1454.1 263.367 1454.1 M263.367 1450.39 Q269.177 1450.39 272.233 1455 Q275.312 1459.58 275.312 1468.33 Q275.312 1477.06 272.233 1481.67 Q269.177 1486.25 263.367 1486.25 Q257.557 1486.25 254.478 1481.67 Q251.423 1477.06 251.423 1468.33 Q251.423 1459.58 254.478 1455 Q257.557 1450.39 263.367 1450.39 Z" fill="#000000" fill-rule="nonzero" fill-opacity="1"></path><path clip-path="url(#clip030)" d="M749.79 1481.64 L766.109 1481.64 L766.109 1485.58 L744.165 1485.58 L744.165 1481.64 Q746.827 1478.89 751.41 1474.26 Q756.017 1469.61 757.197 1468.27 Q759.443 1465.74 760.322 1464.01 Q761.225 1462.25 761.225 1460.56 Q761.225 1457.8 759.281 1456.07 Q757.359 1454.33 754.257 1454.33 Q752.058 1454.33 749.605 1455.09 Q747.174 1455.86 744.396 1457.41 L744.396 1452.69 Q747.22 1451.55 749.674 1450.97 Q752.128 1450.39 754.165 1450.39 Q759.535 1450.39 762.73 1453.08 Q765.924 1455.77 765.924 1460.26 Q765.924 1462.39 765.114 1464.31 Q764.327 1466.2 762.22 1468.8 Q761.642 1469.47 758.54 1472.69 Q755.438 1475.88 749.79 1481.64 Z" fill="#000000" fill-rule="nonzero" fill-opacity="1"></path><path clip-path="url(#clip030)" d="M775.97 1451.02 L794.327 1451.02 L794.327 1454.96 L780.253 1454.96 L780.253 1463.43 Q781.271 1463.08 782.29 1462.92 Q783.308 1462.73 784.327 1462.73 Q790.114 1462.73 793.493 1465.9 Q796.873 1469.08 796.873 1474.49 Q796.873 1480.07 793.401 1483.17 Q789.929 1486.25 783.609 1486.25 Q781.433 1486.25 779.165 1485.88 Q776.919 1485.51 774.512 1484.77 L774.512 1480.07 Q776.595 1481.2 778.818 1481.76 Q781.04 1482.32 783.517 1482.32 Q787.521 1482.32 789.859 1480.21 Q792.197 1478.1 792.197 1474.49 Q792.197 1470.88 789.859 1468.77 Q787.521 1466.67 783.517 1466.67 Q781.642 1466.67 779.767 1467.08 Q777.915 1467.5 775.97 1468.38 L775.97 1451.02 Z" fill="#000000" fill-rule="nonzero" fill-opacity="1"></path><path clip-path="url(#clip030)" d="M1252.37 1451.02 L1270.73 1451.02 L1270.73 1454.96 L1256.65 1454.96 L1256.65 1463.43 Q1257.67 1463.08 1258.69 1462.92 Q1259.71 1462.73 1260.73 1462.73 Q1266.51 1462.73 1269.89 1465.9 Q1273.27 1469.08 1273.27 1474.49 Q1273.27 1480.07 1269.8 1483.17 Q1266.33 1486.25 1260.01 1486.25 Q1257.83 1486.25 1255.56 1485.88 Q1253.32 1485.51 1250.91 1484.77 L1250.91 1480.07 Q1252.99 1481.2 1255.22 1481.76 Q1257.44 1482.32 1259.92 1482.32 Q1263.92 1482.32 1266.26 1480.21 Q1268.6 1478.1 1268.6 1474.49 Q1268.6 1470.88 1266.26 1468.77 Q1263.92 1466.67 1259.92 1466.67 Q1258.04 1466.67 1256.17 1467.08 Q1254.31 1467.5 1252.37 1468.38 L1252.37 1451.02 Z" fill="#000000" fill-rule="nonzero" fill-opacity="1"></path><path clip-path="url(#clip030)" d="M1292.49 1454.1 Q1288.87 1454.1 1287.05 1457.66 Q1285.24 1461.2 1285.24 1468.33 Q1285.24 1475.44 1287.05 1479.01 Q1288.87 1482.55 1292.49 1482.55 Q1296.12 1482.55 1297.93 1479.01 Q1299.75 1475.44 1299.75 1468.33 Q1299.75 1461.2 1297.93 1457.66 Q1296.12 1454.1 1292.49 1454.1 M1292.49 1450.39 Q1298.3 1450.39 1301.35 1455 Q1304.43 1459.58 1304.43 1468.33 Q1304.43 1477.06 1301.35 1481.67 Q1298.3 1486.25 1292.49 1486.25 Q1286.68 1486.25 1283.6 1481.67 Q1280.54 1477.06 1280.54 1468.33 Q1280.54 1459.58 1283.6 1455 Q1286.68 1450.39 1292.49 1450.39 Z" fill="#000000" fill-rule="nonzero" fill-opacity="1"></path><path clip-path="url(#clip030)" d="M1758.68 1451.02 L1780.9 1451.02 L1780.9 1453.01 L1768.35 1485.58 L1763.47 1485.58 L1775.27 1454.96 L1758.68 1454.96 L1758.68 1451.02 Z" fill="#000000" fill-rule="nonzero" fill-opacity="1"></path><path clip-path="url(#clip030)" d="M1790.07 1451.02 L1808.42 1451.02 L1808.42 1454.96 L1794.35 1454.96 L1794.35 1463.43 Q1795.37 1463.08 1796.38 1462.92 Q1797.4 1462.73 1798.42 1462.73 Q1804.21 1462.73 1807.59 1465.9 Q1810.97 1469.08 1810.97 1474.49 Q1810.97 1480.07 1807.5 1483.17 Q1804.02 1486.25 1797.7 1486.25 Q1795.53 1486.25 1793.26 1485.88 Q1791.01 1485.51 1788.61 1484.77 L1788.61 1480.07 Q1790.69 1481.2 1792.91 1481.76 Q1795.13 1482.32 1797.61 1482.32 Q1801.62 1482.32 1803.95 1480.21 Q1806.29 1478.1 1806.29 1474.49 Q1806.29 1470.88 1803.95 1468.77 Q1801.62 1466.67 1797.61 1466.67 Q1795.74 1466.67 1793.86 1467.08 Q1792.01 1467.5 1790.07 1468.38 L1790.07 1451.02 Z" fill="#000000" fill-rule="nonzero" fill-opacity="1"></path><path clip-path="url(#clip030)" d="M2251.58 1481.64 L2259.22 1481.64 L2259.22 1455.28 L2250.91 1456.95 L2250.91 1452.69 L2259.17 1451.02 L2263.85 1451.02 L2263.85 1481.64 L2271.49 1481.64 L2271.49 1485.58 L2251.58 1485.58 L2251.58 1481.64 Z" fill="#000000" fill-rule="nonzero" fill-opacity="1"></path><path clip-path="url(#clip030)" d="M2290.93 1454.1 Q2287.32 1454.1 2285.49 1457.66 Q2283.69 1461.2 2283.69 1468.33 Q2283.69 1475.44 2285.49 1479.01 Q2287.32 1482.55 2290.93 1482.55 Q2294.57 1482.55 2296.37 1479.01 Q2298.2 1475.44 2298.2 1468.33 Q2298.2 1461.2 2296.37 1457.66 Q2294.57 1454.1 2290.93 1454.1 M2290.93 1450.39 Q2296.74 1450.39 2299.8 1455 Q2302.88 1459.58 2302.88 1468.33 Q2302.88 1477.06 2299.8 1481.67 Q2296.74 1486.25 2290.93 1486.25 Q2285.12 1486.25 2282.04 1481.67 Q2278.99 1477.06 2278.99 1468.33 Q2278.99 1459.58 2282.04 1455 Q2285.12 1450.39 2290.93 1450.39 Z" fill="#000000" fill-rule="nonzero" fill-opacity="1"></path><path clip-path="url(#clip030)" d="M2321.09 1454.1 Q2317.48 1454.1 2315.65 1457.66 Q2313.85 1461.2 2313.85 1468.33 Q2313.85 1475.44 2315.65 1479.01 Q2317.48 1482.55 2321.09 1482.55 Q2324.73 1482.55 2326.53 1479.01 Q2328.36 1475.44 2328.36 1468.33 Q2328.36 1461.2 2326.53 1457.66 Q2324.73 1454.1 2321.09 1454.1 M2321.09 1450.39 Q2326.9 1450.39 2329.96 1455 Q2333.04 1459.58 2333.04 1468.33 Q2333.04 1477.06 2329.96 1481.67 Q2326.9 1486.25 2321.09 1486.25 Q2315.28 1486.25 2312.21 1481.67 Q2309.15 1477.06 2309.15 1468.33 Q2309.15 1459.58 2312.21 1455 Q2315.28 1450.39 2321.09 1450.39 Z" fill="#000000" fill-rule="nonzero" fill-opacity="1"></path><path clip-path="url(#clip030)" d="M1200.82 1520.52 L1241.01 1520.52 L1241.01 1525.93 L1224.15 1525.93 L1224.15 1568.04 L1217.68 1568.04 L1217.68 1525.93 L1200.82 1525.93 L1200.82 1520.52 Z" fill="#000000" fill-rule="nonzero" fill-opacity="1"></path><path clip-path="url(#clip030)" d="M1244.96 1532.4 L1250.82 1532.4 L1250.82 1568.04 L1244.96 1568.04 L1244.96 1532.4 M1244.96 1518.52 L1250.82 1518.52 L1250.82 1525.93 L1244.96 1525.93 L1244.96 1518.52 Z" fill="#000000" fill-rule="nonzero" fill-opacity="1"></path><path clip-path="url(#clip030)" d="M1290.83 1539.24 Q1293.02 1535.29 1296.08 1533.41 Q1299.13 1531.54 1303.27 1531.54 Q1308.84 1531.54 1311.87 1535.45 Q1314.89 1539.33 1314.89 1546.53 L1314.89 1568.04 L1309 1568.04 L1309 1546.72 Q1309 1541.59 1307.19 1539.11 Q1305.37 1536.63 1301.65 1536.63 Q1297.1 1536.63 1294.45 1539.65 Q1291.81 1542.68 1291.81 1547.9 L1291.81 1568.04 L1285.92 1568.04 L1285.92 1546.72 Q1285.92 1541.56 1284.11 1539.11 Q1282.3 1536.63 1278.51 1536.63 Q1274.02 1536.63 1271.38 1539.68 Q1268.74 1542.71 1268.74 1547.9 L1268.74 1568.04 L1262.85 1568.04 L1262.85 1532.4 L1268.74 1532.4 L1268.74 1537.93 Q1270.74 1534.66 1273.54 1533.1 Q1276.34 1531.54 1280.2 1531.54 Q1284.08 1531.54 1286.78 1533.51 Q1289.52 1535.48 1290.83 1539.24 Z" fill="#000000" fill-rule="nonzero" fill-opacity="1"></path><path clip-path="url(#clip030)" d="M1357.06 1548.76 L1357.06 1551.62 L1330.13 1551.62 Q1330.52 1557.67 1333.76 1560.85 Q1337.04 1564 1342.87 1564 Q1346.24 1564 1349.39 1563.17 Q1352.57 1562.35 1355.69 1560.69 L1355.69 1566.23 Q1352.54 1567.57 1349.23 1568.27 Q1345.92 1568.97 1342.52 1568.97 Q1333.99 1568.97 1328.99 1564 Q1324.02 1559.04 1324.02 1550.57 Q1324.02 1541.82 1328.73 1536.69 Q1333.48 1531.54 1341.5 1531.54 Q1348.69 1531.54 1352.86 1536.18 Q1357.06 1540.8 1357.06 1548.76 M1351.21 1547.04 Q1351.14 1542.23 1348.5 1539.37 Q1345.89 1536.5 1341.56 1536.5 Q1336.66 1536.5 1333.7 1539.27 Q1330.77 1542.04 1330.33 1547.07 L1351.21 1547.04 Z" fill="#000000" fill-rule="nonzero" fill-opacity="1"></path><polyline clip-path="url(#clip030)" style="stroke:#000000; stroke-linecap:round; stroke-linejoin:round; stroke-width:4; stroke-opacity:1; fill:none" points="205.121,1423.18 205.121,47.2441 "></polyline>
<polyline clip-path="url(#clip030)" style="stroke:#000000; stroke-linecap:round; stroke-linejoin:round; stroke-width:4; stroke-opacity:1; fill:none" points="205.121,1390.75 224.019,1390.75 "></polyline>
<polyline clip-path="url(#clip030)" style="stroke:#000000; stroke-linecap:round; stroke-linejoin:round; stroke-width:4; stroke-opacity:1; fill:none" points="205.121,1129.84 224.019,1129.84 "></polyline>
<polyline clip-path="url(#clip030)" style="stroke:#000000; stroke-linecap:round; stroke-linejoin:round; stroke-width:4; stroke-opacity:1; fill:none" points="205.121,868.926 224.019,868.926 "></polyline>
<polyline clip-path="url(#clip030)" style="stroke:#000000; stroke-linecap:round; stroke-linejoin:round; stroke-width:4; stroke-opacity:1; fill:none" points="205.121,608.013 224.019,608.013 "></polyline>
<polyline clip-path="url(#clip030)" style="stroke:#000000; stroke-linecap:round; stroke-linejoin:round; stroke-width:4; stroke-opacity:1; fill:none" points="205.121,347.099 224.019,347.099 "></polyline>
<polyline clip-path="url(#clip030)" style="stroke:#000000; stroke-linecap:round; stroke-linejoin:round; stroke-width:4; stroke-opacity:1; fill:none" points="205.121,86.1857 224.019,86.1857 "></polyline>
<path clip-path="url(#clip030)" d="M157.177 1376.55 Q153.566 1376.55 151.737 1380.12 Q149.931 1383.66 149.931 1390.79 Q149.931 1397.89 151.737 1401.46 Q153.566 1405 157.177 1405 Q160.811 1405 162.616 1401.46 Q164.445 1397.89 164.445 1390.79 Q164.445 1383.66 162.616 1380.12 Q160.811 1376.55 157.177 1376.55 M157.177 1372.85 Q162.987 1372.85 166.042 1377.45 Q169.121 1382.04 169.121 1390.79 Q169.121 1399.51 166.042 1404.12 Q162.987 1408.7 157.177 1408.7 Q151.366 1408.7 148.288 1404.12 Q145.232 1399.51 145.232 1390.79 Q145.232 1382.04 148.288 1377.45 Q151.366 1372.85 157.177 1372.85 Z" fill="#000000" fill-rule="nonzero" fill-opacity="1"></path><path clip-path="url(#clip030)" d="M117.825 1143.18 L125.464 1143.18 L125.464 1116.82 L117.154 1118.49 L117.154 1114.23 L125.418 1112.56 L130.093 1112.56 L130.093 1143.18 L137.732 1143.18 L137.732 1147.12 L117.825 1147.12 L117.825 1143.18 Z" fill="#000000" fill-rule="nonzero" fill-opacity="1"></path><path clip-path="url(#clip030)" d="M157.177 1115.64 Q153.566 1115.64 151.737 1119.2 Q149.931 1122.74 149.931 1129.87 Q149.931 1136.98 151.737 1140.55 Q153.566 1144.09 157.177 1144.09 Q160.811 1144.09 162.616 1140.55 Q164.445 1136.98 164.445 1129.87 Q164.445 1122.74 162.616 1119.2 Q160.811 1115.64 157.177 1115.64 M157.177 1111.93 Q162.987 1111.93 166.042 1116.54 Q169.121 1121.12 169.121 1129.87 Q169.121 1138.6 166.042 1143.21 Q162.987 1147.79 157.177 1147.79 Q151.366 1147.79 148.288 1143.21 Q145.232 1138.6 145.232 1129.87 Q145.232 1121.12 148.288 1116.54 Q151.366 1111.93 157.177 1111.93 Z" fill="#000000" fill-rule="nonzero" fill-opacity="1"></path><path clip-path="url(#clip030)" d="M121.043 882.271 L137.362 882.271 L137.362 886.206 L115.418 886.206 L115.418 882.271 Q118.08 879.516 122.663 874.887 Q127.269 870.234 128.45 868.891 Q130.695 866.368 131.575 864.632 Q132.478 862.873 132.478 861.183 Q132.478 858.428 130.533 856.692 Q128.612 854.956 125.51 854.956 Q123.311 854.956 120.857 855.72 Q118.427 856.484 115.649 858.035 L115.649 853.313 Q118.473 852.178 120.927 851.6 Q123.38 851.021 125.418 851.021 Q130.788 851.021 133.982 853.706 Q137.177 856.391 137.177 860.882 Q137.177 863.012 136.367 864.933 Q135.579 866.831 133.473 869.424 Q132.894 870.095 129.792 873.313 Q126.691 876.507 121.043 882.271 Z" fill="#000000" fill-rule="nonzero" fill-opacity="1"></path><path clip-path="url(#clip030)" d="M157.177 854.725 Q153.566 854.725 151.737 858.29 Q149.931 861.831 149.931 868.961 Q149.931 876.067 151.737 879.632 Q153.566 883.174 157.177 883.174 Q160.811 883.174 162.616 879.632 Q164.445 876.067 164.445 868.961 Q164.445 861.831 162.616 858.29 Q160.811 854.725 157.177 854.725 M157.177 851.021 Q162.987 851.021 166.042 855.628 Q169.121 860.211 169.121 868.961 Q169.121 877.688 166.042 882.294 Q162.987 886.877 157.177 886.877 Q151.366 886.877 148.288 882.294 Q145.232 877.688 145.232 868.961 Q145.232 860.211 148.288 855.628 Q151.366 851.021 157.177 851.021 Z" fill="#000000" fill-rule="nonzero" fill-opacity="1"></path><path clip-path="url(#clip030)" d="M131.181 606.658 Q134.538 607.376 136.413 609.645 Q138.311 611.913 138.311 615.246 Q138.311 620.362 134.792 623.163 Q131.274 625.964 124.793 625.964 Q122.617 625.964 120.302 625.524 Q118.01 625.107 115.556 624.251 L115.556 619.737 Q117.501 620.871 119.816 621.45 Q122.13 622.029 124.654 622.029 Q129.052 622.029 131.343 620.293 Q133.658 618.557 133.658 615.246 Q133.658 612.191 131.505 610.478 Q129.376 608.742 125.556 608.742 L121.529 608.742 L121.529 604.899 L125.742 604.899 Q129.191 604.899 131.019 603.533 Q132.848 602.145 132.848 599.552 Q132.848 596.89 130.95 595.478 Q129.075 594.043 125.556 594.043 Q123.635 594.043 121.436 594.459 Q119.237 594.876 116.598 595.756 L116.598 591.589 Q119.26 590.848 121.575 590.478 Q123.913 590.108 125.973 590.108 Q131.297 590.108 134.399 592.538 Q137.501 594.946 137.501 599.066 Q137.501 601.936 135.857 603.927 Q134.214 605.895 131.181 606.658 Z" fill="#000000" fill-rule="nonzero" fill-opacity="1"></path><path clip-path="url(#clip030)" d="M157.177 593.811 Q153.566 593.811 151.737 597.376 Q149.931 600.918 149.931 608.047 Q149.931 615.154 151.737 618.719 Q153.566 622.26 157.177 622.26 Q160.811 622.26 162.616 618.719 Q164.445 615.154 164.445 608.047 Q164.445 600.918 162.616 597.376 Q160.811 593.811 157.177 593.811 M157.177 590.108 Q162.987 590.108 166.042 594.714 Q169.121 599.297 169.121 608.047 Q169.121 616.774 166.042 621.381 Q162.987 625.964 157.177 625.964 Q151.366 625.964 148.288 621.381 Q145.232 616.774 145.232 608.047 Q145.232 599.297 148.288 594.714 Q151.366 590.108 157.177 590.108 Z" fill="#000000" fill-rule="nonzero" fill-opacity="1"></path><path clip-path="url(#clip030)" d="M129.862 333.893 L118.056 352.342 L129.862 352.342 L129.862 333.893 M128.635 329.819 L134.515 329.819 L134.515 352.342 L139.445 352.342 L139.445 356.231 L134.515 356.231 L134.515 364.379 L129.862 364.379 L129.862 356.231 L114.26 356.231 L114.26 351.717 L128.635 329.819 Z" fill="#000000" fill-rule="nonzero" fill-opacity="1"></path><path clip-path="url(#clip030)" d="M157.177 332.898 Q153.566 332.898 151.737 336.463 Q149.931 340.004 149.931 347.134 Q149.931 354.24 151.737 357.805 Q153.566 361.347 157.177 361.347 Q160.811 361.347 162.616 357.805 Q164.445 354.24 164.445 347.134 Q164.445 340.004 162.616 336.463 Q160.811 332.898 157.177 332.898 M157.177 329.194 Q162.987 329.194 166.042 333.801 Q169.121 338.384 169.121 347.134 Q169.121 355.861 166.042 360.467 Q162.987 365.05 157.177 365.05 Q151.366 365.05 148.288 360.467 Q145.232 355.861 145.232 347.134 Q145.232 338.384 148.288 333.801 Q151.366 329.194 157.177 329.194 Z" fill="#000000" fill-rule="nonzero" fill-opacity="1"></path><path clip-path="url(#clip030)" d="M117.061 68.9057 L135.417 68.9057 L135.417 72.8408 L121.343 72.8408 L121.343 81.313 Q122.362 80.9658 123.38 80.8038 Q124.399 80.6186 125.418 80.6186 Q131.205 80.6186 134.584 83.7899 Q137.964 86.9611 137.964 92.3778 Q137.964 97.9564 134.492 101.058 Q131.019 104.137 124.7 104.137 Q122.524 104.137 120.255 103.767 Q118.01 103.396 115.603 102.655 L115.603 97.9564 Q117.686 99.0907 119.908 99.6462 Q122.13 100.202 124.607 100.202 Q128.612 100.202 130.95 98.0953 Q133.288 95.9889 133.288 92.3778 Q133.288 88.7667 130.95 86.6602 Q128.612 84.5537 124.607 84.5537 Q122.732 84.5537 120.857 84.9704 Q119.006 85.3871 117.061 86.2667 L117.061 68.9057 Z" fill="#000000" fill-rule="nonzero" fill-opacity="1"></path><path clip-path="url(#clip030)" d="M157.177 71.9844 Q153.566 71.9844 151.737 75.5492 Q149.931 79.0908 149.931 86.2204 Q149.931 93.3268 151.737 96.8916 Q153.566 100.433 157.177 100.433 Q160.811 100.433 162.616 96.8916 Q164.445 93.3268 164.445 86.2204 Q164.445 79.0908 162.616 75.5492 Q160.811 71.9844 157.177 71.9844 M157.177 68.2807 Q162.987 68.2807 166.042 72.8871 Q169.121 77.4704 169.121 86.2204 Q169.121 94.9472 166.042 99.5537 Q162.987 104.137 157.177 104.137 Q151.366 104.137 148.288 99.5537 Q145.232 94.9472 145.232 86.2204 Q145.232 77.4704 148.288 72.8871 Q151.366 68.2807 157.177 68.2807 Z" fill="#000000" fill-rule="nonzero" fill-opacity="1"></path><path clip-path="url(#clip030)" d="M18.0438 801.049 L24.314 801.049 Q22.5634 804.71 21.704 807.956 Q20.8447 811.203 20.8447 814.226 Q20.8447 819.478 22.8817 822.343 Q24.9187 825.175 28.6745 825.175 Q31.8255 825.175 33.4488 823.297 Q35.0402 821.388 36.0269 816.104 L36.8226 812.221 Q38.1912 805.028 41.6605 801.622 Q45.098 798.185 50.8908 798.185 Q57.7976 798.185 61.3624 802.832 Q64.9272 807.447 64.9272 816.391 Q64.9272 819.764 64.1633 823.584 Q63.3994 827.371 61.9035 831.446 L55.2831 831.446 Q57.4793 827.531 58.5933 823.775 Q59.7073 820.019 59.7073 816.391 Q59.7073 810.884 57.543 807.892 Q55.3786 804.901 51.3682 804.901 Q47.8671 804.901 45.8937 807.065 Q43.9204 809.197 42.9337 814.099 L42.1698 818.014 Q40.7375 825.207 37.682 828.422 Q34.6264 831.637 29.1837 831.637 Q22.8817 831.637 19.2532 827.212 Q15.6248 822.756 15.6248 814.958 Q15.6248 811.616 16.2295 808.147 Q16.8343 804.678 18.0438 801.049 Z" fill="#000000" fill-rule="nonzero" fill-opacity="1"></path><path clip-path="url(#clip030)" d="M18.2347 782.621 L28.3562 782.621 L28.3562 770.558 L32.9077 770.558 L32.9077 782.621 L52.2594 782.621 Q56.6199 782.621 57.8613 781.443 Q59.1026 780.233 59.1026 776.573 L59.1026 770.558 L64.0042 770.558 L64.0042 776.573 Q64.0042 783.353 61.4897 785.931 Q58.9434 788.509 52.2594 788.509 L32.9077 788.509 L32.9077 792.806 L28.3562 792.806 L28.3562 788.509 L18.2347 788.509 L18.2347 782.621 Z" fill="#000000" fill-rule="nonzero" fill-opacity="1"></path><path clip-path="url(#clip030)" d="M33.8307 742.198 Q33.2578 743.185 33.0032 744.363 Q32.7167 745.508 32.7167 746.909 Q32.7167 751.874 35.9632 754.548 Q39.1779 757.19 45.2253 757.19 L64.0042 757.19 L64.0042 763.078 L28.3562 763.078 L28.3562 757.19 L33.8944 757.19 Q30.6479 755.344 29.0883 752.383 Q27.4968 749.423 27.4968 745.19 Q27.4968 744.585 27.5923 743.853 Q27.656 743.121 27.8151 742.23 L33.8307 742.198 Z" fill="#000000" fill-rule="nonzero" fill-opacity="1"></path><path clip-path="url(#clip030)" d="M44.7161 706.996 L47.5806 706.996 L47.5806 733.923 Q53.6281 733.541 56.8109 730.294 Q59.9619 727.016 59.9619 721.191 Q59.9619 717.818 59.1344 714.667 Q58.3069 711.484 56.6518 708.365 L62.1899 708.365 Q63.5267 711.516 64.227 714.826 Q64.9272 718.136 64.9272 721.542 Q64.9272 730.072 59.9619 735.069 Q54.9967 740.034 46.5303 740.034 Q37.7774 740.034 32.6531 735.323 Q27.4968 730.581 27.4968 722.56 Q27.4968 715.367 32.1438 711.197 Q36.7589 706.996 44.7161 706.996 M42.9973 712.852 Q38.1912 712.916 35.3266 715.558 Q32.4621 718.168 32.4621 722.496 Q32.4621 727.398 35.2312 730.358 Q38.0002 733.286 43.0292 733.732 L42.9973 712.852 Z" fill="#000000" fill-rule="nonzero" fill-opacity="1"></path><path clip-path="url(#clip030)" d="M29.4065 674.658 L34.9447 674.658 Q33.6716 677.141 33.035 679.814 Q32.3984 682.488 32.3984 685.353 Q32.3984 689.713 33.7352 691.909 Q35.072 694.074 37.7456 694.074 Q39.7826 694.074 40.9603 692.514 Q42.1061 690.954 43.1565 686.244 L43.6021 684.239 Q44.9389 678 47.3897 675.39 Q49.8086 672.748 54.1691 672.748 Q59.1344 672.748 62.0308 676.695 Q64.9272 680.61 64.9272 687.485 Q64.9272 690.35 64.3543 693.469 Q63.8132 696.556 62.6992 699.994 L56.6518 699.994 Q58.3387 696.747 59.198 693.596 Q60.0256 690.445 60.0256 687.358 Q60.0256 683.22 58.6251 680.992 Q57.1929 678.764 54.6147 678.764 Q52.2276 678.764 50.9545 680.387 Q49.6813 681.979 48.5037 687.421 L48.0262 689.458 Q46.8804 694.901 44.5251 697.32 Q42.138 699.739 38.0002 699.739 Q32.9713 699.739 30.2341 696.174 Q27.4968 692.609 27.4968 686.053 Q27.4968 682.806 27.9743 679.942 Q28.4517 677.077 29.4065 674.658 Z" fill="#000000" fill-rule="nonzero" fill-opacity="1"></path><path clip-path="url(#clip030)" d="M29.4065 640.697 L34.9447 640.697 Q33.6716 643.18 33.035 645.853 Q32.3984 648.527 32.3984 651.392 Q32.3984 655.752 33.7352 657.948 Q35.072 660.113 37.7456 660.113 Q39.7826 660.113 40.9603 658.553 Q42.1061 656.993 43.1565 652.283 L43.6021 650.278 Q44.9389 644.039 47.3897 641.429 Q49.8086 638.787 54.1691 638.787 Q59.1344 638.787 62.0308 642.734 Q64.9272 646.649 64.9272 653.524 Q64.9272 656.389 64.3543 659.508 Q63.8132 662.595 62.6992 666.033 L56.6518 666.033 Q58.3387 662.786 59.198 659.635 Q60.0256 656.484 60.0256 653.397 Q60.0256 649.259 58.6251 647.031 Q57.1929 644.803 54.6147 644.803 Q52.2276 644.803 50.9545 646.426 Q49.6813 648.018 48.5037 653.46 L48.0262 655.497 Q46.8804 660.94 44.5251 663.359 Q42.138 665.778 38.0002 665.778 Q32.9713 665.778 30.2341 662.213 Q27.4968 658.648 27.4968 652.092 Q27.4968 648.845 27.9743 645.981 Q28.4517 643.116 29.4065 640.697 Z" fill="#000000" fill-rule="nonzero" fill-opacity="1"></path><polyline clip-path="url(#clip032)" style="stroke:#009af9; stroke-linecap:round; stroke-linejoin:round; stroke-width:4; stroke-opacity:1; fill:none" points="265.903,1384.24 268.439,1377.74 270.975,1371.26 273.51,1364.79 276.046,1358.34 278.582,1351.91 281.118,1345.49 283.653,1339.09 286.189,1332.7 288.725,1326.33 291.261,1319.98 293.796,1313.64 296.332,1307.32 298.868,1301.01 301.404,1294.72 303.939,1288.45 306.475,1282.19 309.011,1275.94 311.547,1269.72 314.082,1263.5 316.618,1257.31 319.154,1251.13 321.69,1244.96 324.226,1238.81 326.761,1232.67 329.297,1226.55 331.833,1220.45 334.369,1214.36 336.904,1208.29 339.44,1202.23 341.976,1196.18 344.512,1190.15 347.047,1184.14 349.583,1178.14 352.119,1172.16 354.655,1166.19 357.19,1160.23 359.726,1154.29 362.262,1148.37 364.798,1142.46 367.333,1136.57 369.869,1130.69 372.405,1124.82 374.941,1118.97 377.476,1113.13 380.012,1107.31 382.548,1101.51 385.084,1095.71 387.619,1089.94 390.155,1084.17 392.691,1078.42 395.227,1072.69 397.763,1066.97 400.298,1061.26 402.834,1055.57 405.37,1049.89 407.906,1044.23 410.441,1038.58 412.977,1032.94 415.513,1027.32 418.049,1021.71 420.584,1016.12 423.12,1010.54 425.656,1004.98 428.192,999.425 430.727,993.887 433.263,988.363 435.799,982.853 438.335,977.357 440.87,971.875 443.406,966.406 445.942,960.951 448.478,955.509 451.013,950.081 453.549,944.667 456.085,939.266 458.621,933.879 461.156,928.505 463.692,923.144 466.228,917.797 468.764,912.463 471.299,907.143 473.835,901.836 476.371,896.542 478.907,891.261 481.443,885.994 483.978,880.739 486.514,875.498 489.05,870.27 491.586,865.055 494.121,859.853 496.657,854.663 499.193,849.487 501.729,844.324 504.264,839.174 506.8,834.036 509.336,828.912 511.872,823.8 514.407,818.701 516.943,813.614 519.479,808.541 522.015,803.48 524.55,798.431 527.086,793.396 529.622,788.373 532.158,783.362 534.693,778.364 537.229,773.378 539.765,768.405 542.301,763.444 544.836,758.496 547.372,753.56 549.908,748.636 552.444,743.725 554.98,738.826 557.515,733.939 560.051,729.064 562.587,724.201 565.123,719.351 567.658,714.513 570.194,709.687 572.73,704.872 575.266,700.07 577.801,695.28 580.337,690.502 582.873,685.736 585.409,680.981 587.944,676.239 590.48,671.508 593.016,666.789 595.552,662.082 598.087,657.387 600.623,652.704 603.159,648.032 605.695,643.372 608.23,638.723 610.766,634.086 613.302,629.461 615.838,624.847 618.373,620.244 620.909,615.654 623.445,611.074 625.981,606.506 628.516,601.95 631.052,597.405 633.588,592.871 636.124,588.348 638.66,583.837 641.195,579.337 643.731,574.849 646.267,570.371 648.803,565.905 651.338,561.45 653.874,557.006 656.41,552.573 658.946,548.151 661.481,543.74 664.017,539.34 666.553,534.951 669.089,530.574 671.624,526.207 674.16,521.851 676.696,517.505 679.232,513.171 681.767,508.848 684.303,504.535 686.839,500.233 689.375,495.942 691.91,491.662 694.446,487.392 696.982,483.133 699.518,478.884 702.053,474.646 704.589,470.419 707.125,466.202 709.661,461.996 712.197,457.8 714.732,453.615 717.268,449.44 719.804,445.276 722.34,441.122 724.875,436.979 727.411,432.845 729.947,428.722 732.483,424.61 735.018,420.507 737.554,416.415 740.09,412.333 742.626,408.262 745.161,404.2 747.697,400.149 750.233,396.108 752.769,392.076 755.304,388.055 757.84,384.044 760.376,380.043 762.912,376.052 765.447,372.071 767.983,368.1 770.519,364.138 773.055,360.187 775.59,356.246 778.126,352.314 780.662,348.392 783.198,344.48 785.733,340.578 788.269,336.685 790.805,332.803 793.341,328.929 795.877,325.066 798.412,321.212 800.948,317.368 803.484,313.533 806.02,309.708 808.555,305.893 811.091,302.087 813.627,298.291 816.163,294.504 818.698,290.726 821.234,286.958 823.77,283.199 826.306,279.45 828.841,275.71 831.377,271.98 833.913,268.258 836.449,264.546 838.984,260.844 841.52,257.15 844.056,253.466 846.592,249.791 849.127,246.125 851.663,242.469 854.199,238.821 856.735,235.183 859.27,231.553 861.806,227.933 864.342,224.322 866.878,220.719 869.414,217.126 871.949,213.542 874.485,209.966 877.021,206.4 879.557,202.843 882.092,199.294 884.628,195.754 887.164,192.223 889.7,188.701 892.235,185.188 894.771,181.683 897.307,178.187 899.843,174.7 902.378,171.222 904.914,167.752 907.45,164.291 909.986,160.839 912.521,157.395 915.057,153.96 917.593,150.534 920.129,147.116 922.664,143.706 925.2,140.305 927.736,136.913 930.272,133.529 932.807,130.153 935.343,126.786 937.879,123.427 940.415,120.077 942.95,116.735 945.486,113.401 948.022,110.076 950.558,106.759 953.094,103.45 955.629,100.15 958.165,96.8576 960.701,93.5736 963.237,90.2978 965.772,87.0302 968.308,86.1857 970.844,86.1857 973.38,86.1857 975.915,86.1857 978.451,86.1857 980.987,86.1857 983.523,86.1857 986.058,86.1857 988.594,86.1857 991.13,86.1857 993.666,86.1857 996.201,86.1857 998.737,86.1857 1001.27,86.1857 1003.81,86.1857 1006.34,86.1857 1008.88,86.1857 1011.42,86.1857 1013.95,86.1857 1016.49,86.1857 1019.02,86.1857 1021.56,86.1857 1024.09,86.1857 1026.63,86.1857 1029.17,86.1857 1031.7,86.1857 1034.24,86.1857 1036.77,86.1857 1039.31,86.1857 1041.85,86.1857 1044.38,86.1857 1046.92,86.1857 1049.45,86.1857 1051.99,86.1857 1054.52,86.1857 1057.06,86.1857 1059.6,86.1857 1062.13,86.1857 1064.67,86.1857 1067.2,86.1857 1069.74,86.1857 1072.27,86.1857 1074.81,86.1857 1077.35,86.1857 1079.88,86.1857 1082.42,86.1857 1084.95,86.1857 1087.49,86.1857 1090.02,86.1857 1092.56,86.1857 1095.1,86.1857 1097.63,86.1857 1100.17,86.1857 1102.7,86.1857 1105.24,86.1857 1107.77,86.1857 1110.31,86.1857 1112.85,86.1857 1115.38,86.1857 1117.92,86.1857 1120.45,86.1857 1122.99,86.1857 1125.53,86.1857 1128.06,86.1857 1130.6,86.1857 1133.13,86.1857 1135.67,86.1857 1138.2,86.1857 1140.74,86.1857 1143.28,86.1857 1145.81,86.1857 1148.35,86.1857 1150.88,86.1857 1153.42,86.1857 1155.95,86.1857 1158.49,86.1857 1161.03,86.1857 1163.56,86.1857 1166.1,86.1857 1168.63,86.1857 1171.17,86.1857 1173.7,86.1857 1176.24,86.1857 1178.78,86.1857 1181.31,86.1857 1183.85,86.1857 1186.38,86.1857 1188.92,86.1857 1191.45,86.1857 1193.99,86.1857 1196.53,86.1857 1199.06,86.1857 1201.6,86.1857 1204.13,86.1857 1206.67,86.1857 1209.21,86.1857 1211.74,86.1857 1214.28,86.1857 1216.81,86.1857 1219.35,86.1857 1221.88,86.1857 1224.42,86.1857 1226.96,86.1857 1229.49,86.1857 1232.03,86.1857 1234.56,86.1857 1237.1,86.1857 1239.63,86.1857 1242.17,86.1857 1244.71,86.1857 1247.24,86.1857 1249.78,86.1857 1252.31,86.1857 1254.85,86.1857 1257.38,86.1857 1259.92,86.1857 1262.46,86.1857 1264.99,86.1857 1267.53,86.1857 1270.06,86.1857 1272.6,86.1857 1275.13,86.1857 1277.67,86.1857 1280.21,86.1857 1282.74,86.1857 1285.28,86.1857 1287.81,86.1857 1290.35,86.1857 1292.89,86.1857 1295.42,86.1857 1297.96,86.1857 1300.49,86.1857 1303.03,86.1857 1305.56,86.1857 1308.1,86.1857 1310.64,86.1857 1313.17,86.1857 1315.71,86.1857 1318.24,86.1857 1320.78,86.1857 1323.31,86.1857 1325.85,86.1857 1328.39,86.1857 1330.92,86.1857 1333.46,86.1857 1335.99,86.1857 1338.53,86.1857 1341.06,86.1857 1343.6,86.1857 1346.14,86.1857 1348.67,86.1857 1351.21,86.1857 1353.74,86.1857 1356.28,86.1857 1358.81,86.1857 1361.35,86.1857 1363.89,86.1857 1366.42,86.1857 1368.96,86.1857 1371.49,86.1857 1374.03,86.1857 1376.57,86.1857 1379.1,86.1857 1381.64,86.1857 1384.17,86.1857 1386.71,86.1857 1389.24,86.1857 1391.78,86.1857 1394.32,86.1857 1396.85,86.1857 1399.39,86.1857 1401.92,86.1857 1404.46,86.1857 1406.99,86.1857 1409.53,86.1857 1412.07,86.1857 1414.6,86.1857 1417.14,86.1857 1419.67,86.1857 1422.21,86.1857 1424.74,86.1857 1427.28,86.1857 1429.82,86.1857 1432.35,86.1857 1434.89,86.1857 1437.42,86.1857 1439.96,86.1857 1442.49,86.1857 1445.03,86.1857 1447.57,86.1857 1450.1,86.1857 1452.64,86.1857 1455.17,86.1857 1457.71,86.1857 1460.25,86.1857 1462.78,86.1857 1465.32,86.1857 1467.85,86.1857 1470.39,86.1857 1472.92,86.1857 1475.46,86.1857 1478,86.1857 1480.53,86.1857 1483.07,86.1857 1485.6,86.1857 1488.14,86.1857 1490.67,86.1857 1493.21,86.1857 1495.75,86.1857 1498.28,86.1857 1500.82,86.1857 1503.35,86.1857 1505.89,86.1857 1508.42,86.1857 1510.96,86.1857 1513.5,86.1857 1516.03,86.1857 1518.57,86.1857 1521.1,86.1857 1523.64,86.1857 1526.17,86.1857 1528.71,86.1857 1531.25,86.1857 1533.78,86.1857 1536.32,86.1857 1538.85,86.1857 1541.39,86.1857 1543.93,86.1857 1546.46,86.1857 1549,86.1857 1551.53,86.1857 1554.07,86.1857 1556.6,86.1857 1559.14,86.1857 1561.68,86.1857 1564.21,86.1857 1566.75,86.1857 1569.28,86.1857 1571.82,86.1857 1574.35,86.1857 1576.89,86.1857 1579.43,86.1857 1581.96,86.1857 1584.5,86.1857 1587.03,86.1857 1589.57,86.1857 1592.1,86.1857 1594.64,86.1857 1597.18,86.1857 1599.71,86.1857 1602.25,86.1857 1604.78,86.1857 1607.32,86.1857 1609.85,86.1857 1612.39,86.1857 1614.93,86.1857 1617.46,86.1857 1620,86.1857 1622.53,86.1857 1625.07,86.1857 1627.61,86.1857 1630.14,86.1857 1632.68,86.1857 1635.21,86.1857 1637.75,86.1857 1640.28,86.1857 1642.82,86.1857 1645.36,86.1857 1647.89,86.1857 1650.43,86.1857 1652.96,86.1857 1655.5,86.1857 1658.03,86.1857 1660.57,86.1857 1663.11,86.1857 1665.64,86.1857 1668.18,86.1857 1670.71,86.1857 1673.25,86.1857 1675.78,86.1857 1678.32,86.1857 1680.86,86.1857 1683.39,86.1857 1685.93,86.1857 1688.46,86.1857 1691,86.1857 1693.53,86.1857 1696.07,86.1857 1698.61,86.1857 1701.14,86.1857 1703.68,86.1857 1706.21,86.1857 1708.75,86.1857 1711.29,86.1857 1713.82,86.1857 1716.36,86.1857 1718.89,86.1857 1721.43,86.1857 1723.96,86.1857 1726.5,86.1857 1729.04,86.1857 1731.57,86.1857 1734.11,86.1857 1736.64,86.1857 1739.18,86.1857 1741.71,86.1857 1744.25,86.1857 1746.79,86.1857 1749.32,86.1857 1751.86,86.1857 1754.39,86.1857 1756.93,86.1857 1759.46,86.1857 1762,86.1857 1764.54,86.1857 1767.07,86.1857 1769.61,86.1857 1772.14,86.1857 1774.68,86.1857 1777.21,86.1857 1779.75,86.1857 1782.29,86.1857 1784.82,86.1857 1787.36,86.1857 1789.89,86.1857 1792.43,86.1857 1794.97,86.1857 1797.5,86.1857 1800.04,86.1857 1802.57,86.1857 1805.11,86.1857 1807.64,86.1857 1810.18,86.1857 1812.72,86.1857 1815.25,86.1857 1817.79,86.1857 1820.32,86.1857 1822.86,86.1857 1825.39,86.1857 1827.93,86.1857 1830.47,86.1857 1833,86.1857 1835.54,86.1857 1838.07,86.1857 1840.61,86.1857 1843.14,86.1857 1845.68,86.1857 1848.22,86.1857 1850.75,86.1857 1853.29,86.1857 1855.82,86.1857 1858.36,86.1857 1860.89,86.1857 1863.43,86.1857 1865.97,86.1857 1868.5,86.1857 1871.04,86.1857 1873.57,86.1857 1876.11,86.1857 1878.65,86.1857 1881.18,86.1857 1883.72,86.1857 1886.25,86.1857 1888.79,86.1857 1891.32,86.1857 1893.86,86.1857 1896.4,86.1857 1898.93,86.1857 1901.47,86.1857 1904,86.1857 1906.54,86.1857 1909.07,86.1857 1911.61,86.1857 1914.15,86.1857 1916.68,86.1857 1919.22,86.1857 1921.75,86.1857 1924.29,86.1857 1926.82,86.1857 1929.36,86.1857 1931.9,86.1857 1934.43,86.1857 1936.97,86.1857 1939.5,86.1857 1942.04,86.1857 1944.57,86.1857 1947.11,86.1857 1949.65,86.1857 1952.18,86.1857 1954.72,86.1857 1957.25,86.1857 1959.79,86.1857 1962.33,86.1857 1964.86,86.1857 1967.4,86.1857 1969.93,86.1857 1972.47,86.1857 1975,86.1857 1977.54,86.1857 1980.08,86.1857 1982.61,86.1857 1985.15,86.1857 1987.68,86.1857 1990.22,86.1857 1992.75,86.1857 1995.29,86.1857 1997.83,86.1857 2000.36,86.1857 2002.9,86.1857 2005.43,86.1857 2007.97,86.1857 2010.5,86.1857 2013.04,86.1857 2015.58,86.1857 2018.11,86.1857 2020.65,86.1857 2023.18,86.1857 2025.72,86.1857 2028.25,86.1857 2030.79,86.1857 2033.33,86.1857 2035.86,86.1857 2038.4,86.1857 2040.93,86.1857 2043.47,86.1857 2046.01,86.1857 2048.54,86.1857 2051.08,86.1857 2053.61,86.1857 2056.15,86.1857 2058.68,86.1857 2061.22,86.1857 2063.76,86.1857 2066.29,86.1857 2068.83,86.1857 2071.36,86.1857 2073.9,86.1857 2076.43,86.1857 2078.97,86.1857 2081.51,86.1857 2084.04,86.1857 2086.58,86.1857 2089.11,86.1857 2091.65,86.1857 2094.18,86.1857 2096.72,86.1857 2099.26,86.1857 2101.79,86.1857 2104.33,86.1857 2106.86,86.1857 2109.4,86.1857 2111.93,86.1857 2114.47,86.1857 2117.01,86.1857 2119.54,86.1857 2122.08,86.1857 2124.61,86.1857 2127.15,86.1857 2129.69,86.1857 2132.22,86.1857 2134.76,86.1857 2137.29,86.1857 2139.83,86.1857 2142.36,86.1857 2144.9,86.1857 2147.44,86.1857 2149.97,86.1857 2152.51,86.1857 2155.04,86.1857 2157.58,86.1857 2160.11,86.1857 2162.65,86.1857 2165.19,86.1857 2167.72,86.1857 2170.26,86.1857 2172.79,86.1857 2175.33,86.1857 2177.86,86.1857 2180.4,86.1857 2182.94,86.1857 2185.47,86.1857 2188.01,86.1857 2190.54,86.1857 2193.08,86.1857 2195.61,86.1857 2198.15,86.1857 2200.69,86.1857 2203.22,86.1857 2205.76,86.1857 2208.29,86.1857 2210.83,86.1857 2213.37,86.1857 2215.9,86.1857 2218.44,86.1857 2220.97,86.1857 2223.51,86.1857 2226.04,86.1857 2228.58,86.1857 2231.12,86.1857 2233.65,86.1857 2236.19,86.1857 2238.72,86.1857 2241.26,86.1857 2243.79,86.1857 2246.33,86.1857 2248.87,86.1857 2251.4,86.1857 2253.94,86.1857 2256.47,86.1857 2259.01,86.1857 2261.54,86.1857 2264.08,86.1857 2266.62,86.1857 2269.15,86.1857 2271.69,86.1857 2274.22,86.1857 2276.76,86.1857 2279.29,86.1857 2281.83,86.1857 2284.37,86.1857 2286.9,86.1857 2289.44,86.1857 2291.97,86.1857 "></polyline>
<polyline clip-path="url(#clip032)" style="stroke:#e26f46; stroke-linecap:round; stroke-linejoin:round; stroke-width:4; stroke-opacity:1; fill:none" points="265.903,1384.24 268.439,1377.74 270.975,1371.26 273.51,1364.79 276.046,1358.34 278.582,1351.91 281.118,1345.49 283.653,1339.09 286.189,1332.7 288.725,1326.33 291.261,1319.98 293.796,1313.64 296.332,1307.32 298.868,1301.01 301.404,1294.72 303.939,1288.45 306.475,1282.19 309.011,1275.94 311.547,1269.72 314.082,1263.5 316.618,1257.31 319.154,1251.13 321.69,1244.96 324.226,1238.81 326.761,1232.67 329.297,1226.55 331.833,1220.45 334.369,1214.36 336.904,1208.29 339.44,1202.23 341.976,1196.18 344.512,1190.15 347.047,1184.14 349.583,1178.14 352.119,1172.16 354.655,1166.19 357.19,1160.23 359.726,1154.29 362.262,1148.37 364.798,1142.46 367.333,1136.57 369.869,1130.69 372.405,1124.82 374.941,1118.97 377.476,1113.13 380.012,1107.31 382.548,1101.51 385.084,1095.71 387.619,1089.94 390.155,1084.17 392.691,1078.42 395.227,1072.69 397.763,1066.97 400.298,1061.26 402.834,1055.57 405.37,1049.89 407.906,1044.23 410.441,1038.58 412.977,1032.94 415.513,1027.32 418.049,1021.71 420.584,1016.12 423.12,1010.54 425.656,1004.98 428.192,999.425 430.727,993.887 433.263,988.363 435.799,982.853 438.335,977.357 440.87,971.875 443.406,966.406 445.942,960.951 448.478,955.509 451.013,950.081 453.549,944.667 456.085,939.266 458.621,933.879 461.156,928.505 463.692,923.144 466.228,917.797 468.764,912.463 471.299,907.143 473.835,901.836 476.371,896.542 478.907,891.261 481.443,885.994 483.978,880.739 486.514,875.498 489.05,870.27 491.586,865.055 494.121,859.853 496.657,854.663 499.193,849.487 501.729,844.324 504.264,839.174 506.8,834.036 509.336,828.912 511.872,823.8 514.407,818.701 516.943,813.614 519.479,808.541 522.015,803.48 524.55,798.431 527.086,793.396 529.622,788.373 532.158,783.362 534.693,778.364 537.229,773.378 539.765,768.405 542.301,763.444 544.836,758.496 547.372,753.56 549.908,748.636 552.444,743.725 554.98,738.826 557.515,733.939 560.051,729.064 562.587,724.201 565.123,719.351 567.658,714.513 570.194,709.687 572.73,704.872 575.266,700.07 577.801,695.28 580.337,690.502 582.873,685.736 585.409,680.981 587.944,676.239 590.48,671.508 593.016,666.789 595.552,662.082 598.087,657.387 600.623,652.704 603.159,648.032 605.695,643.372 608.23,638.723 610.766,634.086 613.302,629.461 615.838,624.847 618.373,620.244 620.909,615.654 623.445,611.074 625.981,606.506 628.516,601.95 631.052,597.405 633.588,592.871 636.124,588.348 638.66,583.837 641.195,579.337 643.731,574.849 646.267,570.371 648.803,565.905 651.338,561.45 653.874,557.006 656.41,552.573 658.946,548.151 661.481,543.74 664.017,539.34 666.553,534.951 669.089,530.574 671.624,526.207 674.16,521.851 676.696,517.505 679.232,513.171 681.767,508.848 684.303,504.535 686.839,500.233 689.375,495.942 691.91,491.662 694.446,487.392 696.982,483.133 699.518,478.884 702.053,474.646 704.589,470.419 707.125,466.202 709.661,461.996 712.197,457.8 714.732,453.615 717.268,449.44 719.804,445.276 722.34,441.122 724.875,436.979 727.411,432.845 729.947,428.722 732.483,424.61 735.018,420.507 737.554,416.415 740.09,412.333 742.626,408.262 745.161,404.2 747.697,400.149 750.233,396.108 752.769,392.076 755.304,388.055 757.84,384.044 760.376,380.043 762.912,376.052 765.447,372.071 767.983,368.1 770.519,364.138 773.055,360.187 775.59,356.246 778.126,352.314 780.662,348.392 783.198,344.48 785.733,340.578 788.269,336.685 790.805,332.803 793.341,328.929 795.877,325.066 798.412,321.212 800.948,317.368 803.484,313.533 806.02,309.708 808.555,305.893 811.091,302.087 813.627,298.291 816.163,294.504 818.698,290.726 821.234,286.958 823.77,283.199 826.306,279.45 828.841,275.71 831.377,271.98 833.913,268.258 836.449,264.546 838.984,260.844 841.52,257.15 844.056,253.466 846.592,249.791 849.127,246.125 851.663,242.469 854.199,238.821 856.735,235.183 859.27,231.553 861.806,227.933 864.342,224.322 866.878,220.719 869.414,217.126 871.949,213.542 874.485,209.966 877.021,206.4 879.557,202.843 882.092,199.294 884.628,195.754 887.164,192.223 889.7,188.701 892.235,185.188 894.771,181.683 897.307,178.187 899.843,174.7 902.378,171.222 904.914,167.752 907.45,164.291 909.986,160.839 912.521,157.395 915.057,153.96 917.593,150.534 920.129,147.116 922.664,143.706 925.2,140.305 927.736,136.913 930.272,133.529 932.807,130.153 935.343,126.786 937.879,123.427 940.415,120.077 942.95,116.735 945.486,113.401 948.022,110.076 950.558,106.759 953.094,103.45 955.629,100.15 958.165,96.8576 960.701,93.5736 963.237,90.2978 965.772,87.0302 968.308,86.1857 970.844,86.1857 973.38,86.1857 975.915,86.1857 978.451,86.1857 980.987,86.1857 983.523,86.1857 986.058,86.1857 988.594,86.1857 991.13,86.1857 993.666,86.1857 996.201,86.1857 998.737,86.1857 1001.27,86.1857 1003.81,86.1857 1006.34,86.1857 1008.88,86.1857 1011.42,86.1857 1013.95,86.1857 1016.49,86.1857 1019.02,86.1857 1021.56,86.1857 1024.09,86.1857 1026.63,86.1857 1029.17,86.1857 1031.7,86.1857 1034.24,86.1857 1036.77,86.1857 1039.31,86.1857 1041.85,86.1857 1044.38,86.1857 1046.92,86.1857 1049.45,86.1857 1051.99,86.1857 1054.52,86.1857 1057.06,86.1857 1059.6,86.1857 1062.13,86.1857 1064.67,86.1857 1067.2,86.1857 1069.74,86.1857 1072.27,86.1857 1074.81,86.1857 1077.35,86.1857 1079.88,86.1857 1082.42,86.1857 1084.95,86.1857 1087.49,86.1857 1090.02,86.1857 1092.56,86.1857 1095.1,86.1857 1097.63,86.1857 1100.17,86.1857 1102.7,86.1857 1105.24,86.1857 1107.77,86.1857 1110.31,86.1857 1112.85,86.1857 1115.38,86.1857 1117.92,86.1857 1120.45,86.1857 1122.99,86.1857 1125.53,86.1857 1128.06,86.1857 1130.6,86.1857 1133.13,86.1857 1135.67,86.1857 1138.2,86.1857 1140.74,86.1857 1143.28,86.1857 1145.81,86.1857 1148.35,86.1857 1150.88,86.1857 1153.42,86.1857 1155.95,86.1857 1158.49,86.1857 1161.03,86.1857 1163.56,86.1857 1166.1,86.1857 1168.63,86.1857 1171.17,86.1857 1173.7,86.1857 1176.24,86.1857 1178.78,86.1857 1181.31,86.1857 1183.85,86.1857 1186.38,86.1857 1188.92,86.1857 1191.45,86.1857 1193.99,86.1857 1196.53,86.1857 1199.06,86.1857 1201.6,86.1857 1204.13,86.1857 1206.67,86.1857 1209.21,86.1857 1211.74,86.1857 1214.28,86.1857 1216.81,86.1857 1219.35,86.1857 1221.88,86.1857 1224.42,86.1857 1226.96,86.1857 1229.49,86.1857 1232.03,86.1857 1234.56,86.1857 1237.1,86.1857 1239.63,86.1857 1242.17,86.1857 1244.71,86.1857 1247.24,86.1857 1249.78,86.1857 1252.31,86.1857 1254.85,86.1857 1257.38,86.1857 1259.92,86.1857 1262.46,86.1857 1264.99,86.1857 1267.53,86.1857 1270.06,86.1857 1272.6,86.1857 1275.13,86.1857 1277.67,86.1857 1280.21,86.1857 1282.74,86.1857 1285.28,86.1857 1287.81,86.1857 1290.35,86.1857 1292.89,86.1857 1295.42,86.1857 1297.96,86.1857 1300.49,86.1857 1303.03,86.1857 1305.56,86.1857 1308.1,86.1857 1310.64,86.1857 1313.17,86.1857 1315.71,86.1857 1318.24,86.1857 1320.78,86.1857 1323.31,86.1857 1325.85,86.1857 1328.39,86.1857 1330.92,86.1857 1333.46,86.1857 1335.99,86.1857 1338.53,86.1857 1341.06,86.1857 1343.6,86.1857 1346.14,86.1857 1348.67,86.1857 1351.21,86.1857 1353.74,86.1857 1356.28,86.1857 1358.81,86.1857 1361.35,86.1857 1363.89,86.1857 1366.42,86.1857 1368.96,86.1857 1371.49,86.1857 1374.03,86.1857 1376.57,86.1857 1379.1,86.1857 1381.64,86.1857 1384.17,86.1857 1386.71,86.1857 1389.24,86.1857 1391.78,86.1857 1394.32,86.1857 1396.85,86.1857 1399.39,86.1857 1401.92,86.1857 1404.46,86.1857 1406.99,86.1857 1409.53,86.1857 1412.07,86.1857 1414.6,86.1857 1417.14,86.1857 1419.67,86.1857 1422.21,86.1857 1424.74,86.1857 1427.28,86.1857 1429.82,86.1857 1432.35,86.1857 1434.89,86.1857 1437.42,86.1857 1439.96,86.1857 1442.49,86.1857 1445.03,86.1857 1447.57,86.1857 1450.1,86.1857 1452.64,86.1857 1455.17,86.1857 1457.71,86.1857 1460.25,86.1857 1462.78,86.1857 1465.32,86.1857 1467.85,86.1857 1470.39,86.1857 1472.92,86.1857 1475.46,86.1857 1478,86.1857 1480.53,86.1857 1483.07,86.1857 1485.6,86.1857 1488.14,86.1857 1490.67,86.1857 1493.21,86.1857 1495.75,86.1857 1498.28,86.1857 1500.82,86.1857 1503.35,86.1857 1505.89,86.1857 1508.42,86.1857 1510.96,86.1857 1513.5,86.1857 1516.03,86.1857 1518.57,86.1857 1521.1,86.1857 1523.64,86.1857 1526.17,86.1857 1528.71,86.1857 1531.25,86.1857 1533.78,86.1857 1536.32,86.1857 1538.85,86.1857 1541.39,86.1857 1543.93,86.1857 1546.46,86.1857 1549,86.1857 1551.53,86.1857 1554.07,86.1857 1556.6,86.1857 1559.14,86.1857 1561.68,86.1857 1564.21,86.1857 1566.75,86.1857 1569.28,86.1857 1571.82,86.1857 1574.35,86.1857 1576.89,86.1857 1579.43,86.1857 1581.96,86.1857 1584.5,86.1857 1587.03,86.1857 1589.57,86.1857 1592.1,86.1857 1594.64,86.1857 1597.18,86.1857 1599.71,86.1857 1602.25,86.1857 1604.78,86.1857 1607.32,86.1857 1609.85,86.1857 1612.39,86.1857 1614.93,86.1857 1617.46,86.1857 1620,86.1857 1622.53,86.1857 1625.07,86.1857 1627.61,86.1857 1630.14,86.1857 1632.68,86.1857 1635.21,86.1857 1637.75,86.1857 1640.28,86.1857 1642.82,86.1857 1645.36,86.1857 1647.89,86.1857 1650.43,86.1857 1652.96,86.1857 1655.5,86.1857 1658.03,86.1857 1660.57,86.1857 1663.11,86.1857 1665.64,86.1857 1668.18,86.1857 1670.71,86.1857 1673.25,86.1857 1675.78,86.1857 1678.32,86.1857 1680.86,86.1857 1683.39,86.1857 1685.93,86.1857 1688.46,86.1857 1691,86.1857 1693.53,86.1857 1696.07,86.1857 1698.61,86.1857 1701.14,86.1857 1703.68,86.1857 1706.21,86.1857 1708.75,86.1857 1711.29,86.1857 1713.82,86.1857 1716.36,86.1857 1718.89,86.1857 1721.43,86.1857 1723.96,86.1857 1726.5,86.1857 1729.04,86.1857 1731.57,86.1857 1734.11,86.1857 1736.64,86.1857 1739.18,86.1857 1741.71,86.1857 1744.25,86.1857 1746.79,86.1857 1749.32,86.1857 1751.86,86.1857 1754.39,86.1857 1756.93,86.1857 1759.46,86.1857 1762,86.1857 1764.54,86.1857 1767.07,86.1857 1769.61,86.1857 1772.14,86.1857 1774.68,86.1857 1777.21,86.1857 1779.75,86.1857 1782.29,86.1857 1784.82,86.1857 1787.36,86.1857 1789.89,86.1857 1792.43,86.1857 1794.97,86.1857 1797.5,86.1857 1800.04,86.1857 1802.57,86.1857 1805.11,86.1857 1807.64,86.1857 1810.18,86.1857 1812.72,86.1857 1815.25,86.1857 1817.79,86.1857 1820.32,86.1857 1822.86,86.1857 1825.39,86.1857 1827.93,86.1857 1830.47,86.1857 1833,86.1857 1835.54,86.1857 1838.07,86.1857 1840.61,86.1857 1843.14,86.1857 1845.68,86.1857 1848.22,86.1857 1850.75,86.1857 1853.29,86.1857 1855.82,86.1857 1858.36,86.1857 1860.89,86.1857 1863.43,86.1857 1865.97,86.1857 1868.5,86.1857 1871.04,86.1857 1873.57,86.1857 1876.11,86.1857 1878.65,86.1857 1881.18,86.1857 1883.72,86.1857 1886.25,86.1857 1888.79,86.1857 1891.32,86.1857 1893.86,86.1857 1896.4,86.1857 1898.93,86.1857 1901.47,86.1857 1904,86.1857 1906.54,86.1857 1909.07,86.1857 1911.61,86.1857 1914.15,86.1857 1916.68,86.1857 1919.22,86.1857 1921.75,86.1857 1924.29,86.1857 1926.82,86.1857 1929.36,86.1857 1931.9,86.1857 1934.43,86.1857 1936.97,86.1857 1939.5,86.1857 1942.04,86.1857 1944.57,86.1857 1947.11,86.1857 1949.65,86.1857 1952.18,86.1857 1954.72,86.1857 1957.25,86.1857 1959.79,86.1857 1962.33,86.1857 1964.86,86.1857 1967.4,86.1857 1969.93,86.1857 1972.47,86.1857 1975,86.1857 1977.54,86.1857 1980.08,86.1857 1982.61,86.1857 1985.15,86.1857 1987.68,86.1857 1990.22,86.1857 1992.75,86.1857 1995.29,86.1857 1997.83,86.1857 2000.36,86.1857 2002.9,86.1857 2005.43,86.1857 2007.97,86.1857 2010.5,86.1857 2013.04,86.1857 2015.58,86.1857 2018.11,86.1857 2020.65,86.1857 2023.18,86.1857 2025.72,86.1857 2028.25,86.1857 2030.79,86.1857 2033.33,86.1857 2035.86,86.1857 2038.4,86.1857 2040.93,86.1857 2043.47,86.1857 2046.01,86.1857 2048.54,86.1857 2051.08,86.1857 2053.61,86.1857 2056.15,86.1857 2058.68,86.1857 2061.22,86.1857 2063.76,86.1857 2066.29,86.1857 2068.83,86.1857 2071.36,86.1857 2073.9,86.1857 2076.43,86.1857 2078.97,86.1857 2081.51,86.1857 2084.04,86.1857 2086.58,86.1857 2089.11,86.1857 2091.65,86.1857 2094.18,86.1857 2096.72,86.1857 2099.26,86.1857 2101.79,86.1857 2104.33,86.1857 2106.86,86.1857 2109.4,86.1857 2111.93,86.1857 2114.47,86.1857 2117.01,86.1857 2119.54,86.1857 2122.08,86.1857 2124.61,86.1857 2127.15,86.1857 2129.69,86.1857 2132.22,86.1857 2134.76,86.1857 2137.29,86.1857 2139.83,86.1857 2142.36,86.1857 2144.9,86.1857 2147.44,86.1857 2149.97,86.1857 2152.51,86.1857 2155.04,86.1857 2157.58,86.1857 2160.11,86.1857 2162.65,86.1857 2165.19,86.1857 2167.72,86.1857 2170.26,86.1857 2172.79,86.1857 2175.33,86.1857 2177.86,86.1857 2180.4,86.1857 2182.94,86.1857 2185.47,86.1857 2188.01,86.1857 2190.54,86.1857 2193.08,86.1857 2195.61,86.1857 2198.15,86.1857 2200.69,86.1857 2203.22,86.1857 2205.76,86.1857 2208.29,86.1857 2210.83,86.1857 2213.37,86.1857 2215.9,86.1857 2218.44,86.1857 2220.97,86.1857 2223.51,86.1857 2226.04,86.1857 2228.58,86.1857 2231.12,86.1857 2233.65,86.1857 2236.19,86.1857 2238.72,86.1857 2241.26,86.1857 2243.79,86.1857 2246.33,86.1857 2248.87,86.1857 2251.4,86.1857 2253.94,86.1857 2256.47,86.1857 2259.01,86.1857 2261.54,86.1857 2264.08,86.1857 2266.62,86.1857 2269.15,86.1857 2271.69,86.1857 2274.22,86.1857 2276.76,86.1857 2279.29,86.1857 2281.83,86.1857 2284.37,86.1857 2286.9,86.1857 2289.44,86.1857 2291.97,86.1857 "></polyline>
<path clip-path="url(#clip030)" d="M276.709 248.629 L708.786 248.629 L708.786 93.1086 L276.709 93.1086  Z" fill="#ffffff" fill-rule="evenodd" fill-opacity="1"></path>
<polyline clip-path="url(#clip030)" style="stroke:#000000; stroke-linecap:round; stroke-linejoin:round; stroke-width:4; stroke-opacity:1; fill:none" points="276.709,248.629 708.786,248.629 708.786,93.1086 276.709,93.1086 276.709,248.629 "></polyline>
<polyline clip-path="url(#clip030)" style="stroke:#009af9; stroke-linecap:round; stroke-linejoin:round; stroke-width:4; stroke-opacity:1; fill:none" points="300.571,144.949 443.747,144.949 "></polyline>
<path clip-path="url(#clip030)" d="M467.61 127.669 L473.906 127.669 L489.23 156.581 L489.23 127.669 L493.767 127.669 L493.767 162.229 L487.471 162.229 L472.147 133.317 L472.147 162.229 L467.61 162.229 L467.61 127.669 Z" fill="#000000" fill-rule="nonzero" fill-opacity="1"></path><path clip-path="url(#clip030)" d="M502.447 151.997 L502.447 136.303 L506.707 136.303 L506.707 151.835 Q506.707 155.516 508.142 157.368 Q509.577 159.196 512.447 159.196 Q515.896 159.196 517.887 156.997 Q519.901 154.798 519.901 151.002 L519.901 136.303 L524.16 136.303 L524.16 162.229 L519.901 162.229 L519.901 158.247 Q518.35 160.608 516.29 161.766 Q514.253 162.9 511.545 162.9 Q507.077 162.9 504.762 160.122 Q502.447 157.344 502.447 151.997 M513.165 135.678 L513.165 135.678 Z" fill="#000000" fill-rule="nonzero" fill-opacity="1"></path><path clip-path="url(#clip030)" d="M553.118 141.28 Q554.716 138.409 556.938 137.044 Q559.16 135.678 562.169 135.678 Q566.22 135.678 568.419 138.525 Q570.618 141.349 570.618 146.581 L570.618 162.229 L566.336 162.229 L566.336 146.719 Q566.336 142.993 565.017 141.187 Q563.697 139.382 560.989 139.382 Q557.679 139.382 555.757 141.581 Q553.836 143.78 553.836 147.576 L553.836 162.229 L549.554 162.229 L549.554 146.719 Q549.554 142.969 548.234 141.187 Q546.915 139.382 544.16 139.382 Q540.896 139.382 538.975 141.604 Q537.054 143.803 537.054 147.576 L537.054 162.229 L532.771 162.229 L532.771 136.303 L537.054 136.303 L537.054 140.331 Q538.512 137.946 540.549 136.812 Q542.586 135.678 545.387 135.678 Q548.211 135.678 550.179 137.113 Q552.169 138.548 553.118 141.28 Z" fill="#000000" fill-rule="nonzero" fill-opacity="1"></path><path clip-path="url(#clip030)" d="M601.29 148.201 L601.29 150.284 L581.706 150.284 Q581.984 154.682 584.345 156.997 Q586.729 159.289 590.966 159.289 Q593.419 159.289 595.711 158.687 Q598.026 158.085 600.294 156.881 L600.294 160.909 Q598.003 161.881 595.595 162.391 Q593.188 162.9 590.711 162.9 Q584.507 162.9 580.873 159.289 Q577.262 155.678 577.262 149.52 Q577.262 143.155 580.688 139.428 Q584.137 135.678 589.97 135.678 Q595.202 135.678 598.234 139.057 Q601.29 142.414 601.29 148.201 M597.03 146.951 Q596.984 143.456 595.063 141.372 Q593.165 139.289 590.016 139.289 Q586.452 139.289 584.299 141.303 Q582.169 143.317 581.845 146.974 L597.03 146.951 Z" fill="#000000" fill-rule="nonzero" fill-opacity="1"></path><path clip-path="url(#clip030)" d="M623.303 140.284 Q622.586 139.868 621.729 139.682 Q620.896 139.474 619.877 139.474 Q616.266 139.474 614.322 141.835 Q612.401 144.173 612.401 148.571 L612.401 162.229 L608.118 162.229 L608.118 136.303 L612.401 136.303 L612.401 140.331 Q613.743 137.969 615.896 136.835 Q618.049 135.678 621.127 135.678 Q621.567 135.678 622.1 135.747 Q622.632 135.794 623.28 135.909 L623.303 140.284 Z" fill="#000000" fill-rule="nonzero" fill-opacity="1"></path><path clip-path="url(#clip030)" d="M627.771 136.303 L632.03 136.303 L632.03 162.229 L627.771 162.229 L627.771 136.303 M627.771 126.21 L632.03 126.21 L632.03 131.604 L627.771 131.604 L627.771 126.21 Z" fill="#000000" fill-rule="nonzero" fill-opacity="1"></path><path clip-path="url(#clip030)" d="M659.599 137.298 L659.599 141.28 Q657.794 140.284 655.965 139.798 Q654.16 139.289 652.308 139.289 Q648.164 139.289 645.873 141.928 Q643.581 144.544 643.581 149.289 Q643.581 154.034 645.873 156.673 Q648.164 159.289 652.308 159.289 Q654.16 159.289 655.965 158.803 Q657.794 158.293 659.599 157.298 L659.599 161.233 Q657.817 162.067 655.896 162.483 Q653.998 162.9 651.845 162.9 Q645.988 162.9 642.539 159.219 Q639.09 155.539 639.09 149.289 Q639.09 142.946 642.562 139.312 Q646.058 135.678 652.123 135.678 Q654.09 135.678 655.965 136.095 Q657.84 136.488 659.599 137.298 Z" fill="#000000" fill-rule="nonzero" fill-opacity="1"></path><path clip-path="url(#clip030)" d="M683.534 137.067 L683.534 141.094 Q681.729 140.169 679.784 139.706 Q677.84 139.243 675.757 139.243 Q672.585 139.243 670.988 140.215 Q669.414 141.187 669.414 143.131 Q669.414 144.613 670.548 145.469 Q671.683 146.303 675.109 147.067 L676.567 147.391 Q681.104 148.363 683.002 150.145 Q684.923 151.905 684.923 155.076 Q684.923 158.687 682.053 160.793 Q679.206 162.9 674.206 162.9 Q672.122 162.9 669.854 162.483 Q667.609 162.09 665.109 161.28 L665.109 156.881 Q667.47 158.108 669.761 158.733 Q672.053 159.335 674.298 159.335 Q677.308 159.335 678.928 158.317 Q680.548 157.275 680.548 155.4 Q680.548 153.664 679.368 152.738 Q678.21 151.812 674.252 150.956 L672.771 150.608 Q668.812 149.775 667.053 148.062 Q665.294 146.326 665.294 143.317 Q665.294 139.659 667.886 137.669 Q670.479 135.678 675.247 135.678 Q677.609 135.678 679.692 136.025 Q681.775 136.372 683.534 137.067 Z" fill="#000000" fill-rule="nonzero" fill-opacity="1"></path><polyline clip-path="url(#clip030)" style="stroke:#e26f46; stroke-linecap:round; stroke-linejoin:round; stroke-width:4; stroke-opacity:1; fill:none" points="300.571,196.789 443.747,196.789 "></polyline>
<path clip-path="url(#clip030)" d="M467.61 179.509 L489.461 179.509 L489.461 183.444 L472.286 183.444 L472.286 193.675 L488.744 193.675 L488.744 197.61 L472.286 197.61 L472.286 210.133 L489.878 210.133 L489.878 214.069 L467.61 214.069 L467.61 179.509 Z" fill="#000000" fill-rule="nonzero" fill-opacity="1"></path><path clip-path="url(#clip030)" d="M518.929 188.143 L509.554 200.759 L519.415 214.069 L514.392 214.069 L506.846 203.883 L499.299 214.069 L494.276 214.069 L504.346 200.504 L495.133 188.143 L500.156 188.143 L507.031 197.379 L513.906 188.143 L518.929 188.143 Z" fill="#000000" fill-rule="nonzero" fill-opacity="1"></path><path clip-path="url(#clip030)" d="M537.216 201.036 Q532.054 201.036 530.063 202.217 Q528.072 203.397 528.072 206.245 Q528.072 208.513 529.554 209.856 Q531.058 211.175 533.628 211.175 Q537.17 211.175 539.299 208.675 Q541.452 206.152 541.452 201.985 L541.452 201.036 L537.216 201.036 M545.711 199.277 L545.711 214.069 L541.452 214.069 L541.452 210.133 Q539.994 212.495 537.818 213.629 Q535.642 214.74 532.494 214.74 Q528.512 214.74 526.151 212.518 Q523.813 210.272 523.813 206.522 Q523.813 202.147 526.73 199.925 Q529.67 197.703 535.48 197.703 L541.452 197.703 L541.452 197.286 Q541.452 194.347 539.507 192.749 Q537.586 191.129 534.091 191.129 Q531.869 191.129 529.762 191.661 Q527.656 192.194 525.711 193.259 L525.711 189.323 Q528.049 188.421 530.248 187.981 Q532.447 187.518 534.531 187.518 Q540.156 187.518 542.933 190.434 Q545.711 193.351 545.711 199.277 Z" fill="#000000" fill-rule="nonzero" fill-opacity="1"></path><path clip-path="url(#clip030)" d="M573.142 189.138 L573.142 193.12 Q571.336 192.124 569.507 191.638 Q567.702 191.129 565.85 191.129 Q561.706 191.129 559.415 193.768 Q557.123 196.384 557.123 201.129 Q557.123 205.874 559.415 208.513 Q561.706 211.129 565.85 211.129 Q567.702 211.129 569.507 210.643 Q571.336 210.133 573.142 209.138 L573.142 213.073 Q571.359 213.907 569.438 214.323 Q567.54 214.74 565.387 214.74 Q559.53 214.74 556.081 211.059 Q552.632 207.379 552.632 201.129 Q552.632 194.786 556.105 191.152 Q559.6 187.518 565.665 187.518 Q567.632 187.518 569.507 187.935 Q571.382 188.328 573.142 189.138 Z" fill="#000000" fill-rule="nonzero" fill-opacity="1"></path><path clip-path="url(#clip030)" d="M584.762 180.782 L584.762 188.143 L593.535 188.143 L593.535 191.453 L584.762 191.453 L584.762 205.527 Q584.762 208.698 585.618 209.601 Q586.498 210.504 589.16 210.504 L593.535 210.504 L593.535 214.069 L589.16 214.069 Q584.229 214.069 582.354 212.24 Q580.479 210.388 580.479 205.527 L580.479 191.453 L577.354 191.453 L577.354 188.143 L580.479 188.143 L580.479 180.782 L584.762 180.782 Z" fill="#000000" fill-rule="nonzero" fill-opacity="1"></path></svg>